<svg xmlns="http://www.w3.org/2000/svg" xmlns:xlink="http://www.w3.org/1999/xlink" xmlns:inkscape="http://www.inkscape.org/namespaces/inkscape" version="1.1" width="612" height="792" viewBox="0 0 612 792">
<defs>
<clipPath id="clip_1">
<path transform="matrix(.24,0,0,.24,0,0)" d="M0 0H2550V3300H0Z" clip-rule="evenodd"/>
</clipPath>
<clipPath id="clip_2">
<path transform="matrix(.24,0,0,.24,0,0)" d="M78.125 103.125H2471.875V3196.875H78.125Z" clip-rule="evenodd"/>
</clipPath>
</defs>
<g clip-path="url(#clip_1)">
<path transform="matrix(.75,0,0,.75,0,-792)" d="M0 1056H816V2112H0Z" fill="#ffffff"/>
</g>
<g clip-path="url(#clip_2)">
<path transform="matrix(.6742756,0,0,.6742756,-553.2939,25.837138)" stroke-width="1" stroke-linecap="butt" stroke-miterlimit="10" stroke-linejoin="miter" fill="none" stroke="#000000" d="M425.5 920V940H1580V30H1275V43.63"/>
<path transform="matrix(.6742756,0,0,.6742756,-553.2939,25.837138)" d="M1275 48.88 1271.5 41.88 1275 43.63 1278.5 41.88 1275 48.88Z"/>
<path transform="matrix(.6742756,0,0,.6742756,-553.2939,25.837138)" stroke-width="1" stroke-linecap="butt" stroke-miterlimit="10" stroke-linejoin="miter" fill="none" stroke="#000000" d="M1275 48.88 1271.5 41.88 1275 43.63 1278.5 41.88 1275 48.88Z"/>
<path transform="matrix(.6742756,0,0,.6742756,-553.2939,25.837138)" stroke-width="1" stroke-linecap="butt" stroke-miterlimit="10" stroke-linejoin="miter" fill="none" stroke="#000000" d="M1275 110V130 120 133.63"/>
<path transform="matrix(.6742756,0,0,.6742756,-553.2939,25.837138)" d="M1275 138.88 1271.5 131.88 1275 133.63 1278.5 131.88 1275 138.88Z"/>
<path transform="matrix(.6742756,0,0,.6742756,-553.2939,25.837138)" stroke-width="1" stroke-linecap="butt" stroke-miterlimit="10" stroke-linejoin="miter" fill="none" stroke="#000000" d="M1275 138.88 1271.5 131.88 1275 133.63 1278.5 131.88 1275 138.88Z"/>
<path transform="matrix(.6742756,0,0,.6742756,-553.2939,25.837138)" d="M1215 50H1335V110H1215Z" fill="#ffe6cc"/>
<path transform="matrix(.6742756,0,0,.6742756,-553.2939,25.837138)" stroke-width="1" stroke-linecap="butt" stroke-miterlimit="4" stroke-linejoin="miter" fill="none" stroke="#d79b00" d="M1215 50H1335V110H1215Z"/>
<text xml:space="preserve" transform="matrix(.6742756 0 0 .6742756 -553.63107 25.5)" font-size="12" font-family="Arial"><tspan y="84" x="1234.75 1242.754 1252.0901 1260.0941 1267.2051 1270.5411 1279.2051 1285.8771 1292.5491 1295.213 1301.213 1304.5491 1311.2211">POST Register</tspan></text>
<path transform="matrix(.6742756,0,0,.6742756,-553.2939,25.837138)" stroke-width="1" stroke-linecap="butt" stroke-miterlimit="10" stroke-linejoin="miter" fill="none" stroke="#000000" d="M1275 200V220 210 223.63"/>
<path transform="matrix(.6742756,0,0,.6742756,-553.2939,25.837138)" d="M1275 228.88 1271.5 221.88 1275 223.63 1278.5 221.88 1275 228.88Z"/>
<path transform="matrix(.6742756,0,0,.6742756,-553.2939,25.837138)" stroke-width="1" stroke-linecap="butt" stroke-miterlimit="10" stroke-linejoin="miter" fill="none" stroke="#000000" d="M1275 228.88 1271.5 221.88 1275 223.63 1278.5 221.88 1275 228.88Z"/>
<path transform="matrix(.6742756,0,0,.6742756,-553.2939,25.837138)" d="M1215 140H1335V200H1215Z" fill="#ffe6cc"/>
<path transform="matrix(.6742756,0,0,.6742756,-553.2939,25.837138)" stroke-width="1" stroke-linecap="butt" stroke-miterlimit="4" stroke-linejoin="miter" fill="none" stroke="#d79b00" d="M1215 140H1335V200H1215Z"/>
<text xml:space="preserve" transform="matrix(.6742756 0 0 .6742756 -553.63107 25.5)" font-size="12" font-family="Arial"><tspan y="167" x="1219.3125 1227.9765 1234.6484 1244.6444 1251.3164 1257.9884 1261.9844 1268.6564 1271.9924 1280.6564 1286.6564 1293.3284 1297.3244 1300.6604 1308.6644 1318.6604 1325.3324 1327.9963">Compare User Email</tspan></text>
<text xml:space="preserve" transform="matrix(.6742756 0 0 .6742756 -553.63107 25.5)" font-size="12" font-family="Arial"><tspan y="182" x="1219.6406 1222.9767 1229.6487 1232.9848 1239.6567 1242.3207 1244.9846 1248.3207 1254.9927 1260.9927 1263.6566 1269.6566 1272.9927 1275.6566 1282.3286 1289.0006 1292.3367 1299.0087 1309.0046 1315.6766 1318.3406 1321.0045 1327.0045">to all existing emails.</tspan></text>
<path transform="matrix(.6742756,0,0,.6742756,-553.2939,25.837138)" stroke-width="1" stroke-linecap="butt" stroke-miterlimit="10" stroke-linejoin="miter" fill="none" stroke="#000000" d="M1380 152.5H1357.5V170H1341.37"/>
<path transform="matrix(.6742756,0,0,.6742756,-553.2939,25.837138)" d="M1336.12 170 1343.12 166.5 1341.37 170 1343.12 173.5 1336.12 170Z"/>
<path transform="matrix(.6742756,0,0,.6742756,-553.2939,25.837138)" stroke-width="1" stroke-linecap="butt" stroke-miterlimit="10" stroke-linejoin="miter" fill="none" stroke="#000000" d="M1336.12 170 1343.12 166.5 1341.37 170 1343.12 173.5 1336.12 170Z"/>
<path transform="matrix(.6742756,0,0,.6742756,-553.2939,25.837138)" d="M1380 85C1380 76.72 1411.34 70 1450 70 1468.57 70 1486.37 71.58 1499.5 74.39 1512.63 77.21 1520 81.02 1520 85V175C1520 183.28 1488.66 190 1450 190 1411.34 190 1380 183.28 1380 175V85Z" fill="#e1d5e7"/>
<path transform="matrix(.6742756,0,0,.6742756,-553.2939,25.837138)" stroke-width="1" stroke-linecap="butt" stroke-miterlimit="10" stroke-linejoin="miter" fill="none" stroke="#9673a6" d="M1380 85C1380 76.72 1411.34 70 1450 70 1468.57 70 1486.37 71.58 1499.5 74.39 1512.63 77.21 1520 81.02 1520 85V175C1520 183.28 1488.66 190 1450 190 1411.34 190 1380 183.28 1380 175V85Z"/>
<path transform="matrix(.6742756,0,0,.6742756,-553.2939,25.837138)" stroke-width="1" stroke-linecap="butt" stroke-miterlimit="10" stroke-linejoin="miter" fill="none" stroke="#9673a6" d="M1520 85C1520 93.28 1488.66 100 1450 100 1411.34 100 1380 93.28 1380 85"/>
<text xml:space="preserve" transform="matrix(.6742756 0 0 .6742756 -553.63107 25.5)" font-size="12" font-family="Arial"><tspan y="147" x="1392.2969 1400.3009 1406.9729 1413.6449 1416.3088 1418.9728 1424.9728 1431.6448 1434.9808 1437.6448 1444.3168 1450.9888 1459.6527 1466.3247 1474.9887 1481.6607 1488.3327 1491.6687 1498.3407 1504.3407">ApplicationDbContext</tspan></text>
<path transform="matrix(.6742756,0,0,.6742756,-553.2939,25.837138)" stroke-width="1" stroke-linecap="butt" stroke-miterlimit="10" stroke-linejoin="miter" fill="none" stroke="#000000" d="M1170 270H740V480H716.37"/>
<path transform="matrix(.6742756,0,0,.6742756,-553.2939,25.837138)" stroke-width="1" stroke-linecap="butt" stroke-miterlimit="10" stroke-linejoin="miter" fill="none" stroke="#000000" d="M1275 310V330 310 323.63"/>
<path transform="matrix(.6742756,0,0,.6742756,-553.2939,25.837138)" d="M1275 328.88 1271.5 321.88 1275 323.63 1278.5 321.88 1275 328.88Z"/>
<path transform="matrix(.6742756,0,0,.6742756,-553.2939,25.837138)" stroke-width="1" stroke-linecap="butt" stroke-miterlimit="10" stroke-linejoin="miter" fill="none" stroke="#000000" d="M1275 328.88 1271.5 321.88 1275 323.63 1278.5 321.88 1275 328.88Z"/>
<path transform="matrix(.6742756,0,0,.6742756,-553.2939,25.837138)" d="M1275 230 1380 270 1275 310 1170 270 1275 230Z" fill="#f8cecc"/>
<path transform="matrix(.6742756,0,0,.6742756,-553.2939,25.837138)" stroke-width="1" stroke-linecap="butt" stroke-miterlimit="10" stroke-linejoin="miter" fill="none" stroke="#b85450" d="M1275 230 1380 270 1275 310 1170 270 1275 230Z"/>
<text xml:space="preserve" transform="matrix(.6742756 0 0 .6742756 -553.63107 25.5)" font-size="12" font-family="Arial"><tspan y="274" x="1205.625 1214.289 1220.9609 1227.6329 1233.6329 1236.969 1244.973 1254.969 1261.641 1264.3049 1266.9689 1270.3049 1276.9769 1279.6409 1283.6369 1290.3088 1296.9808 1303.6528 1309.6528 1312.9889 1319.6609 1325.6609 1328.3248 1334.3248 1337.6609">Does Email already exist?</tspan></text>
<path transform="matrix(.6742756,0,0,.6742756,-553.2939,25.837138)" stroke-width="1" stroke-linecap="butt" stroke-miterlimit="10" stroke-linejoin="miter" fill="none" stroke="#000000" d="M1275 390V410 390 403.63"/>
<path transform="matrix(.6742756,0,0,.6742756,-553.2939,25.837138)" d="M1275 408.88 1271.5 401.88 1275 403.63 1278.5 401.88 1275 408.88Z"/>
<path transform="matrix(.6742756,0,0,.6742756,-553.2939,25.837138)" stroke-width="1" stroke-linecap="butt" stroke-miterlimit="10" stroke-linejoin="miter" fill="none" stroke="#000000" d="M1275 408.88 1271.5 401.88 1275 403.63 1278.5 401.88 1275 408.88Z"/>
<path transform="matrix(.6742756,0,0,.6742756,-553.2939,25.837138)" d="M1215 330H1335V390H1215Z" fill="#ffe6cc"/>
<path transform="matrix(.6742756,0,0,.6742756,-553.2939,25.837138)" stroke-width="1" stroke-linecap="butt" stroke-miterlimit="4" stroke-linejoin="miter" fill="none" stroke="#d79b00" d="M1215 330H1335V390H1215Z"/>
<text xml:space="preserve" transform="matrix(.6742756 0 0 .6742756 -553.63107 25.5)" font-size="12" font-family="Arial"><tspan y="350" x="1231.2969 1239.9608 1246.6328 1249.9689 1256.6409 1263.3129 1269.9849 1275.9849 1282.6569 1285.9929 1291.9929 1295.329 1302.001 1305.997 1312.669">Database stores</tspan></text>
<text xml:space="preserve" transform="matrix(.6742756 0 0 .6742756 -553.63107 25.5)" font-size="12" font-family="Arial"><tspan y="364" x="1228.625 1235.297 1241.969 1245.305 1251.977 1254.641 1257.3049 1263.3049 1266.641 1273.313 1279.985 1286.657 1289.993 1295.993 1302.665 1308.665 1315.337">details and saves</tspan></text>
<text xml:space="preserve" transform="matrix(.6742756 0 0 .6742756 -553.63107 25.5)" font-size="12" font-family="Arial"><tspan y="379" x="1252.3125 1258.3125 1264.9845 1271.6565 1278.3285 1285.0005 1291.6725">changes</tspan></text>
<text xml:space="preserve" transform="matrix(.6742756 0 0 .6742756 -553.63107 25.5)" font-size="12" font-family="Arial"><tspan y="259" x="1127.875 1134.7598 1138.7557 1145.4277">True</tspan></text>
<text xml:space="preserve" transform="matrix(.6742756 0 0 .6742756 -553.63107 25.5)" font-size="12" font-family="Arial"><tspan y="319" x="1290.3281 1297.6602 1304.3322 1306.9961 1312.9961">False</tspan></text>
<path transform="matrix(.6742756,0,0,.6742756,-553.2939,25.837138)" stroke-width="1" stroke-linecap="butt" stroke-miterlimit="10" stroke-linejoin="miter" fill="none" stroke="#000000" d="M1275 470V490 475 488.63"/>
<path transform="matrix(.6742756,0,0,.6742756,-553.2939,25.837138)" d="M1275 493.88 1271.5 486.88 1275 488.63 1278.5 486.88 1275 493.88Z"/>
<path transform="matrix(.6742756,0,0,.6742756,-553.2939,25.837138)" stroke-width="1" stroke-linecap="butt" stroke-miterlimit="10" stroke-linejoin="miter" fill="none" stroke="#000000" d="M1275 493.88 1271.5 486.88 1275 488.63 1278.5 486.88 1275 493.88Z"/>
<path transform="matrix(.6742756,0,0,.6742756,-553.2939,25.837138)" d="M1215 470 1235 410H1335L1315 470H1215Z" fill="#fff2cc"/>
<path transform="matrix(.6742756,0,0,.6742756,-553.2939,25.837138)" stroke-width="1" stroke-linecap="butt" stroke-miterlimit="10" stroke-linejoin="miter" fill="none" stroke="#d6b656" d="M1215 470 1235 410H1335L1315 470H1215Z"/>
<text xml:space="preserve" transform="matrix(.6742756 0 0 .6742756 -553.63107 25.5)" font-size="12" font-family="Arial"><tspan y="444" x="1242.4219 1251.0858 1257.7578 1261.0939 1267.7659 1271.7619 1278.4338 1281.7699 1289.5606 1292.2245 1298.8965">Return View</tspan></text>
<path transform="matrix(.6742756,0,0,.6742756,-553.2939,25.837138)" d="M1224 495H1326C1326.5908 495.00004 1327.176 495.05769 1327.7557 495.17295 1328.3352 495.2882 1328.898 495.4589 1329.444 495.68504 1329.9899 495.91117 1330.5086 496.1884 1330.9999 496.5167 1331.4912 496.84504 1331.9459 497.2181 1332.3639 497.636 1332.7817 498.05384 1333.1549 498.50843 1333.4832 498.9998 1333.8114 499.49116 1334.0886 500.0098 1334.3147 500.5558 1334.5409 501.10176 1334.7117 501.66453 1334.8269 502.2441 1334.9423 502.82374 1334.9999 503.40904 1335 504V546C1334.9999 546.59097 1334.9423 547.1762 1334.8269 547.75576 1334.7117 548.33529 1334.5409 548.8981 1334.3147 549.44406 1334.0886 549.99 1333.8114 550.50869 1333.4832 551.00009 1333.1549 551.4914 1332.7817 551.946 1332.3639 552.3639 1331.9459 552.7817 1331.4912 553.1548 1330.9999 553.48318 1330.5086 553.8114 1329.9899 554.0886 1329.444 554.3148 1328.898 554.54098 1328.3352 554.7117 1327.7557 554.82699 1327.176 554.9423 1326.5908 555 1326 555H1224C1223.4089 555 1222.8236 554.9423 1222.244 554.82699 1221.6643 554.7117 1221.1016 554.54098 1220.5557 554.3148 1220.0097 554.0886 1219.491 553.8114 1218.9996 553.48318 1218.5083 553.1548 1218.0538 552.7817 1217.636 552.3639 1217.2182 551.946 1216.845 551.4914 1216.5167 551 1216.1884 550.50869 1215.9111 549.99 1215.6849 549.44406 1215.4588 548.8981 1215.2881 548.33529 1215.1729 547.75576 1215.0576 547.1762 1215 546.59097 1215 546V504C1215 503.40904 1215.0576 502.82377 1215.1729 502.24415 1215.2881 501.66453 1215.4588 501.10176 1215.6849 500.5558 1215.9111 500.0098 1216.1884 499.49116 1216.5166 498.99983 1216.845 498.50846 1217.2182 498.05384 1217.636 497.636 1218.0538 497.2181 1218.5083 496.84504 1218.9996 496.51673 1219.491 496.1884 1220.0097 495.91117 1220.5557 495.68504 1221.1016 495.4589 1221.6643 495.28819 1222.244 495.1729 1222.8236 495.05766 1223.4089 495.00004 1224 495Z" fill="#dae8fc"/>
<path transform="matrix(.6742756,0,0,.6742756,-553.2939,25.837138)" stroke-width="1" stroke-linecap="butt" stroke-miterlimit="4" stroke-linejoin="miter" fill="none" stroke="#6c8ebf" d="M1224 495H1326C1326.5908 495.00004 1327.176 495.05769 1327.7557 495.17295 1328.3352 495.2882 1328.898 495.4589 1329.444 495.68504 1329.9899 495.91117 1330.5086 496.1884 1330.9999 496.5167 1331.4912 496.84504 1331.9459 497.2181 1332.3639 497.636 1332.7817 498.05384 1333.1549 498.50843 1333.4832 498.9998 1333.8114 499.49116 1334.0886 500.0098 1334.3147 500.5558 1334.5409 501.10176 1334.7117 501.66453 1334.8269 502.2441 1334.9423 502.82374 1334.9999 503.40904 1335 504V546C1334.9999 546.59097 1334.9423 547.1762 1334.8269 547.75576 1334.7117 548.33529 1334.5409 548.8981 1334.3147 549.44406 1334.0886 549.99 1333.8114 550.50869 1333.4832 551.00009 1333.1549 551.4914 1332.7817 551.946 1332.3639 552.3639 1331.9459 552.7817 1331.4912 553.1548 1330.9999 553.48318 1330.5086 553.8114 1329.9899 554.0886 1329.444 554.3148 1328.898 554.54098 1328.3352 554.7117 1327.7557 554.82699 1327.176 554.9423 1326.5908 555 1326 555H1224C1223.4089 555 1222.8236 554.9423 1222.244 554.82699 1221.6643 554.7117 1221.1016 554.54098 1220.5557 554.3148 1220.0097 554.0886 1219.491 553.8114 1218.9996 553.48318 1218.5083 553.1548 1218.0538 552.7817 1217.636 552.3639 1217.2182 551.946 1216.845 551.4914 1216.5167 551 1216.1884 550.50869 1215.9111 549.99 1215.6849 549.44406 1215.4588 548.8981 1215.2881 548.33529 1215.1729 547.75576 1215.0576 547.1762 1215 546.59097 1215 546V504C1215 503.40904 1215.0576 502.82377 1215.1729 502.24415 1215.2881 501.66453 1215.4588 501.10176 1215.6849 500.5558 1215.9111 500.0098 1216.1884 499.49116 1216.5166 498.99983 1216.845 498.50846 1217.2182 498.05384 1217.636 497.636 1218.0538 497.2181 1218.5083 496.84504 1218.9996 496.51673 1219.491 496.1884 1220.0097 495.91117 1220.5557 495.68504 1221.1016 495.4589 1221.6643 495.28819 1222.244 495.1729 1222.8236 495.05766 1223.4089 495.00004 1224 495Z"/>
<text xml:space="preserve" transform="matrix(.6742756 0 0 .6742756 -553.63107 25.5)" font-size="12" font-family="Arial"><tspan y="529" x="1264.3125 1272.3165 1278.9885">End</tspan></text>
<path transform="matrix(.6742756,0,0,.6742756,-553.2939,25.837138)" stroke-width="1" stroke-linecap="butt" stroke-miterlimit="10" stroke-linejoin="miter" fill="none" stroke="#000000" d="M1335 360H1450V196.37"/>
<path transform="matrix(.6742756,0,0,.6742756,-553.2939,25.837138)" d="M1450 191.12 1453.5 198.12 1450 196.37 1446.5 198.12 1450 191.12Z"/>
<path transform="matrix(.6742756,0,0,.6742756,-553.2939,25.837138)" stroke-width="1" stroke-linecap="butt" stroke-miterlimit="10" stroke-linejoin="miter" fill="none" stroke="#000000" d="M1450 191.12 1453.5 198.12 1450 196.37 1446.5 198.12 1450 191.12Z"/>
<path transform="matrix(.6742756,0,0,.6742756,-553.2939,25.837138)" stroke-width="1" stroke-linecap="butt" stroke-miterlimit="10" stroke-linejoin="miter" fill="none" stroke="#000000" d="M1335 170H1357.5V152.5H1373.63"/>
<path transform="matrix(.6742756,0,0,.6742756,-553.2939,25.837138)" d="M1378.88 152.5 1371.88 156 1373.63 152.5 1371.88 149 1378.88 152.5Z"/>
<path transform="matrix(.6742756,0,0,.6742756,-553.2939,25.837138)" stroke-width="1" stroke-linecap="butt" stroke-miterlimit="10" stroke-linejoin="miter" fill="none" stroke="#000000" d="M1378.88 152.5 1371.88 156 1373.63 152.5 1371.88 149 1378.88 152.5Z"/>
<path transform="matrix(.6742756,0,0,.6742756,-553.2939,25.837138)" stroke-width="1" stroke-linecap="butt" stroke-miterlimit="10" stroke-linejoin="miter" fill="none" stroke="#000000" d="M1335 80H1357.5V107.5H1373.63"/>
<path transform="matrix(.6742756,0,0,.6742756,-553.2939,25.837138)" d="M1378.88 107.5 1371.88 111 1373.63 107.5 1371.88 104 1378.88 107.5Z"/>
<path transform="matrix(.6742756,0,0,.6742756,-553.2939,25.837138)" stroke-width="1" stroke-linecap="butt" stroke-miterlimit="10" stroke-linejoin="miter" fill="none" stroke="#000000" d="M1378.88 107.5 1371.88 111 1373.63 107.5 1371.88 104 1378.88 107.5Z"/>
<text xml:space="preserve" transform="matrix(.6742756 0 0 .6742756 -553.63107 25.5)" font-size="12" font-family="Arial"><tspan y="319" x="899.65628 907.6603 914.3323">Key</tspan></text>
<path transform="matrix(.6742756,0,0,.6742756,-553.2939,25.837138)" d="M890 380H990V420H890Z" fill="#ffe6cc"/>
<path transform="matrix(.6742756,0,0,.6742756,-553.2939,25.837138)" stroke-width="1" stroke-linecap="butt" stroke-miterlimit="4" stroke-linejoin="miter" fill="none" stroke="#d79b00" d="M890 380H990V420H890Z"/>
<text xml:space="preserve" transform="matrix(.6742756 0 0 .6742756 -553.63107 25.5)" font-size="12" font-family="Arial"><tspan y="404" x="918.3125 926.3165 930.3125 936.9845 942.9845 949.6565 955.6565">Process</tspan></text>
<path transform="matrix(.6742756,0,0,.6742756,-553.2939,25.837138)" d="M885 470 905 430H995L975 470H885Z" fill="#fff2cc"/>
<path transform="matrix(.6742756,0,0,.6742756,-553.2939,25.837138)" stroke-width="1" stroke-linecap="butt" stroke-miterlimit="10" stroke-linejoin="miter" fill="none" stroke="#d6b656" d="M885 470 905 430H995L975 470H885Z"/>
<text xml:space="preserve" transform="matrix(.6742756 0 0 .6742756 -553.63107 25.5)" font-size="12" font-family="Arial"><tspan y="454" x="906.96878 910.30477 916.97677 923.64877 930.32077 933.65676 936.99276 946.32876 953.00076 956.33676 963.0087 969.6807">Input/Output</tspan></text>
<path transform="matrix(.6742756,0,0,.6742756,-553.2939,25.837138)" d="M940 480 980 515 940 550 900 515 940 480Z" fill="#f8cecc"/>
<path transform="matrix(.6742756,0,0,.6742756,-553.2939,25.837138)" stroke-width="1" stroke-linecap="butt" stroke-miterlimit="10" stroke-linejoin="miter" fill="none" stroke="#b85450" d="M940 480 980 515 940 550 900 515 940 480Z"/>
<text xml:space="preserve" transform="matrix(.6742756 0 0 .6742756 -553.63107 25.5)" font-size="12" font-family="Arial"><tspan y="519" x="916.9844 925.6484 932.3204 938.3204 940.9844 946.9844 949.6484 956.3204">Decision</tspan></text>
<path transform="matrix(.6742756,0,0,.6742756,-553.2939,25.837138)" d="M910 570C910 561.72 923.43 555 940 555 947.96 555 955.59 556.58 961.21 559.39 966.84 562.21 970 566.02 970 570V605C970 613.28 956.57 620 940 620 923.43 620 910 613.28 910 605V570Z" fill="#e1d5e7"/>
<path transform="matrix(.6742756,0,0,.6742756,-553.2939,25.837138)" stroke-width="1" stroke-linecap="butt" stroke-miterlimit="10" stroke-linejoin="miter" fill="none" stroke="#9673a6" d="M910 570C910 561.72 923.43 555 940 555 947.96 555 955.59 556.58 961.21 559.39 966.84 562.21 970 566.02 970 570V605C970 613.28 956.57 620 940 620 923.43 620 910 613.28 910 605V570Z"/>
<path transform="matrix(.6742756,0,0,.6742756,-553.2939,25.837138)" stroke-width="1" stroke-linecap="butt" stroke-miterlimit="10" stroke-linejoin="miter" fill="none" stroke="#9673a6" d="M970 570C970 578.28 956.57 585 940 585 923.43 585 910 578.28 910 570"/>
<text xml:space="preserve" transform="matrix(.6742756 0 0 .6742756 -553.63107 25.5)" font-size="12" font-family="Arial"><tspan y="604" x="914.3125 922.9765 929.6485 932.9845 939.6565 946.3285 953.0005 959.0005">Database</tspan></text>
<path transform="matrix(.6742756,0,0,.6742756,-553.2939,25.837138)" stroke-width="1" stroke-linecap="butt" stroke-miterlimit="10" stroke-linejoin="miter" fill="none" stroke="#000000" d="M925 640 951.18 674.91"/>
<path transform="matrix(.6742756,0,0,.6742756,-553.2939,25.837138)" d="M954.33 679.11 947.33 675.61 951.18 674.91 952.93 671.41 954.33 679.11Z"/>
<path transform="matrix(.6742756,0,0,.6742756,-553.2939,25.837138)" stroke-width="1" stroke-linecap="butt" stroke-miterlimit="10" stroke-linejoin="miter" fill="none" stroke="#000000" d="M954.33 679.11 947.33 675.61 951.18 674.91 952.93 671.41 954.33 679.11Z"/>
<text xml:space="preserve" transform="matrix(.6742756 0 0 .6742756 -553.63107 25.5)" font-size="12" font-family="Arial"><tspan y="649" x="946.3125 954.9765 957.6405 961.6365 968.3085 974.3085 977.6445 980.3085 986.98049">Direction</tspan></text>
<path transform="matrix(.6742756,0,0,.6742756,-553.2939,25.837138)" d="M896 330H984C984.3939 330 984.78408 330.03843 985.1704 330.1153 985.5568 330.19215 985.93209 330.30595 986.296 330.4567 986.66 330.60746 987.00576 330.79228 987.3333 331.01115 987.6609 331.23 987.9639 331.47874 988.24258 331.75733 988.5211 332.0359 988.76986 332.33897 988.98867 332.66654 989.2075 332.9941 989.39236 333.33988 989.54318 333.70387 989.6939 334.06785 989.80776 334.44303 989.8846 334.82945 989.9615 335.21583 989.99996 335.60603 990 336V364C989.99996 364.39396 989.9615 364.78416 989.8846 365.17057 989.80776 365.55693 989.6939 365.9321 989.54318 366.29609 989.39236 366.66007 989.2075 367.00584 988.9886 367.3334 988.7698 367.66096 988.5211 367.96403 988.24258 368.2426 987.9639 368.52116 987.6609 368.76988 987.3333 368.98878 987.0057 369.20765 986.6599 369.39247 986.29598 369.54325 985.932 369.694 985.5568 369.80784 985.1704 369.8847 984.78408 369.96156 984.3939 369.99998 984 370H896C895.606 369.99998 895.2158 369.96156 894.8294 369.88468 894.443 369.80784 894.06777 369.69404 893.7038 369.54328 893.3398 369.3925 892.994 369.20765 892.66647 368.9888 892.33889 368.7699 892.03579 368.52116 891.75729 368.2426 891.47866 367.96403 891.2299 367.66096 891.011 367.3334 890.7921 367.00584 890.6073 366.66007 890.4566 366.29609 890.30587 365.9321 890.192 365.55693 890.1152 365.17054 890.0383 364.78416 889.99996 364.39396 890 364V336C889.99996 335.60603 890.0383 335.21583 890.1152 334.82945 890.192 334.44303 890.30587 334.06785 890.4566 333.70387 890.6073 333.33988 890.7921 332.9941 891.01107 332.66654 891.2299 332.33897 891.47866 332.0359 891.75729 331.75733 892.03579 331.47874 892.33889 331.23 892.66647 331.01115 892.994 330.79228 893.3398 330.60746 893.7038 330.4567 894.06777 330.30595 894.44296 330.19215 894.82937 330.1153 895.21578 330.03843 895.606 330 896 330Z" fill="#dae8fc"/>
<path transform="matrix(.6742756,0,0,.6742756,-553.2939,25.837138)" stroke-width="1" stroke-linecap="butt" stroke-miterlimit="4" stroke-linejoin="miter" fill="none" stroke="#6c8ebf" d="M896 330H984C984.3939 330 984.78408 330.03843 985.1704 330.1153 985.5568 330.19215 985.93209 330.30595 986.296 330.4567 986.66 330.60746 987.00576 330.79228 987.3333 331.01115 987.6609 331.23 987.9639 331.47874 988.24258 331.75733 988.5211 332.0359 988.76986 332.33897 988.98867 332.66654 989.2075 332.9941 989.39236 333.33988 989.54318 333.70387 989.6939 334.06785 989.80776 334.44303 989.8846 334.82945 989.9615 335.21583 989.99996 335.60603 990 336V364C989.99996 364.39396 989.9615 364.78416 989.8846 365.17057 989.80776 365.55693 989.6939 365.9321 989.54318 366.29609 989.39236 366.66007 989.2075 367.00584 988.9886 367.3334 988.7698 367.66096 988.5211 367.96403 988.24258 368.2426 987.9639 368.52116 987.6609 368.76988 987.3333 368.98878 987.0057 369.20765 986.6599 369.39247 986.29598 369.54325 985.932 369.694 985.5568 369.80784 985.1704 369.8847 984.78408 369.96156 984.3939 369.99998 984 370H896C895.606 369.99998 895.2158 369.96156 894.8294 369.88468 894.443 369.80784 894.06777 369.69404 893.7038 369.54328 893.3398 369.3925 892.994 369.20765 892.66647 368.9888 892.33889 368.7699 892.03579 368.52116 891.75729 368.2426 891.47866 367.96403 891.2299 367.66096 891.011 367.3334 890.7921 367.00584 890.6073 366.66007 890.4566 366.29609 890.30587 365.9321 890.192 365.55693 890.1152 365.17054 890.0383 364.78416 889.99996 364.39396 890 364V336C889.99996 335.60603 890.0383 335.21583 890.1152 334.82945 890.192 334.44303 890.30587 334.06785 890.4566 333.70387 890.6073 333.33988 890.7921 332.9941 891.01107 332.66654 891.2299 332.33897 891.47866 332.0359 891.75729 331.75733 892.03579 331.47874 892.33889 331.23 892.66647 331.01115 892.994 330.79228 893.3398 330.60746 893.7038 330.4567 894.06777 330.30595 894.44296 330.19215 894.82937 330.1153 895.21578 330.03843 895.606 330 896 330Z"/>
<text xml:space="preserve" transform="matrix(.6742756 0 0 .6742756 -553.63107 25.5)" font-size="12" font-family="Arial"><tspan y="354" x="914.9844 922.9884 926.3244 932.9964 936.9924 940.32839 943.66439 951.6684 958.3404">Start/End</tspan></text>
</g>
</svg>
