<svg xmlns="http://www.w3.org/2000/svg" xmlns:xlink="http://www.w3.org/1999/xlink" xmlns:inkscape="http://www.inkscape.org/namespaces/inkscape" version="1.1" width="612" height="792" viewBox="0 0 612 792">
<defs>
<clipPath id="clip_1">
<path transform="matrix(.24,0,0,.24,0,0)" d="M0 0H2550V3300H0Z" clip-rule="evenodd"/>
</clipPath>
<clipPath id="clip_2">
<path transform="matrix(.24,0,0,.24,0,0)" d="M78.125 103.125H2471.875V3196.875H78.125Z" clip-rule="evenodd"/>
</clipPath>
</defs>
<g clip-path="url(#clip_1)">
<path transform="matrix(.75,0,0,.75,0,-3168)" d="M0 4224H816V5280H0Z" fill="#ffffff"/>
</g>
<g clip-path="url(#clip_2)">
<text xml:space="preserve" transform="matrix(.6742756 0 0 .6742756 -2273.0338 25.5)" font-size="18" font-family="Arial" font-weight="bold"><tspan y="21" x="3739.9844 3751.9906 3762.9886 3767.9925 3773.9864 3778.9903 3791.9864 3802.9844 3813.9825 3829.9844 3839.9925 3844.9964 3855.9945 3860.9984 3871.9964 3886.0003 3896.0084 3907.0064 3917.0145 3924.0164">Edit Rooms Flowchart</tspan></text>
<path transform="matrix(.6742756,0,0,.6742756,-2272.6966,25.837138)" stroke-width="1" stroke-linecap="butt" stroke-miterlimit="10" stroke-linejoin="miter" fill="none" stroke="#000000" d="M3835 110 3835.34 123.63"/>
<path transform="matrix(.6742756,0,0,.6742756,-2272.6966,25.837138)" d="M3835.47 128.88 3831.8 121.97 3835.34 123.63 3838.8 121.8 3835.47 128.88Z"/>
<path transform="matrix(.6742756,0,0,.6742756,-2272.6966,25.837138)" stroke-width="1" stroke-linecap="butt" stroke-miterlimit="10" stroke-linejoin="miter" fill="none" stroke="#000000" d="M3835.47 128.88 3831.8 121.97 3835.34 123.63 3838.8 121.8 3835.47 128.88Z"/>
<path transform="matrix(.6742756,0,0,.6742756,-2272.6966,25.837138)" d="M3784 50H3886C3886.5906 50 3887.1759 50.057645 3887.7554 50.172929 3888.3348 50.288217 3888.8975 50.45893 3889.4434 50.685079 3889.9893 50.911226 3890.5079 51.188455 3890.9993 51.516767 3891.4908 51.84508 3891.9456 52.21817 3892.3636 52.636037 3892.7813 53.053899 3893.1544 53.508508 3893.4827 53.999864 3893.811 54.491216 3894.0882 55.009878 3894.3145 55.555845 3894.5406 56.101808 3894.7113 56.66459 3894.8267 57.244184 3894.9422 57.823778 3894.9998 58.40905 3895 59V101C3894.9998 101.59095 3894.9422 102.176219 3894.8267 102.75581 3894.7113 103.335399 3894.5406 103.89817 3894.3145 104.44414 3894.0882 104.990108 3893.811 105.50876 3893.4827 106.000118 3893.1544 106.49147 3892.7813 106.94608 3892.3636 107.36395 3891.9456 107.781818 3891.491 108.1549 3890.9996 108.483219 3890.508 108.81152 3889.9896 109.08875 3889.4437 109.3149 3888.8978 109.541049 3888.335 109.71176 3887.7557 109.82706 3887.1759 109.942348 3886.5906 109.99999 3886 110H3784C3783.409 109.99999 3782.8236 109.942348 3782.244 109.82706 3781.664 109.71176 3781.1014 109.541049 3780.5555 109.3149 3780.0096 109.08875 3779.491 108.81152 3778.9996 108.483219 3778.508 108.1549 3778.0535 107.781818 3777.6358 107.36395 3777.2178 106.94608 3776.8448 106.49147 3776.5164 106.000118 3776.188 105.50876 3775.9107 104.990108 3775.6846 104.44414 3775.4583 103.89817 3775.2877 103.33539 3775.1727 102.755809 3775.0574 102.176219 3774.9998 101.59095 3775 101V59C3774.9998 58.40905 3775.0574 57.82378 3775.1724 57.244188 3775.2877 56.66459 3775.4583 56.101808 3775.6846 55.555845 3775.9107 55.009878 3776.188 54.491216 3776.5164 53.99986 3776.8448 53.508508 3777.2178 53.053899 3777.6358 52.636037 3778.0535 52.21817 3778.508 51.84508 3778.9996 51.516767 3779.491 51.188455 3780.0096 50.911226 3780.5555 50.685079 3781.1014 50.45893 3781.664 50.288217 3782.244 50.17293 3782.8236 50.057645 3783.409 50 3784 50Z" fill="#dae8fc"/>
<path transform="matrix(.6742756,0,0,.6742756,-2272.6966,25.837138)" stroke-width="1" stroke-linecap="butt" stroke-miterlimit="4" stroke-linejoin="miter" fill="none" stroke="#6c8ebf" d="M3784 50H3886C3886.5906 50 3887.1759 50.057645 3887.7554 50.172929 3888.3348 50.288217 3888.8975 50.45893 3889.4434 50.685079 3889.9893 50.911226 3890.5079 51.188455 3890.9993 51.516767 3891.4908 51.84508 3891.9456 52.21817 3892.3636 52.636037 3892.7813 53.053899 3893.1544 53.508508 3893.4827 53.999864 3893.811 54.491216 3894.0882 55.009878 3894.3145 55.555845 3894.5406 56.101808 3894.7113 56.66459 3894.8267 57.244184 3894.9422 57.823778 3894.9998 58.40905 3895 59V101C3894.9998 101.59095 3894.9422 102.176219 3894.8267 102.75581 3894.7113 103.335399 3894.5406 103.89817 3894.3145 104.44414 3894.0882 104.990108 3893.811 105.50876 3893.4827 106.000118 3893.1544 106.49147 3892.7813 106.94608 3892.3636 107.36395 3891.9456 107.781818 3891.491 108.1549 3890.9996 108.483219 3890.508 108.81152 3889.9896 109.08875 3889.4437 109.3149 3888.8978 109.541049 3888.335 109.71176 3887.7557 109.82706 3887.1759 109.942348 3886.5906 109.99999 3886 110H3784C3783.409 109.99999 3782.8236 109.942348 3782.244 109.82706 3781.664 109.71176 3781.1014 109.541049 3780.5555 109.3149 3780.0096 109.08875 3779.491 108.81152 3778.9996 108.483219 3778.508 108.1549 3778.0535 107.781818 3777.6358 107.36395 3777.2178 106.94608 3776.8448 106.49147 3776.5164 106.000118 3776.188 105.50876 3775.9107 104.990108 3775.6846 104.44414 3775.4583 103.89817 3775.2877 103.33539 3775.1727 102.755809 3775.0574 102.176219 3774.9998 101.59095 3775 101V59C3774.9998 58.40905 3775.0574 57.82378 3775.1724 57.244188 3775.2877 56.66459 3775.4583 56.101808 3775.6846 55.555845 3775.9107 55.009878 3776.188 54.491216 3776.5164 53.99986 3776.8448 53.508508 3777.2178 53.053899 3777.6358 52.636037 3778.0535 52.21817 3778.508 51.84508 3778.9996 51.516767 3779.491 51.188455 3780.0096 50.911226 3780.5555 50.685079 3781.1014 50.45893 3781.664 50.288217 3782.244 50.17293 3782.8236 50.057645 3783.409 50 3784 50Z"/>
<text xml:space="preserve" transform="matrix(.6742756 0 0 .6742756 -2273.0338 25.5)" font-size="12" font-family="Arial"><tspan y="70" x="3791.6407 3800.3048 3802.9688 3805.6329 3811.6329 3817.6329 3820.9688 3827.6409 3834.313 3837.649 3840.9849 3847.657 3854.329 3857.665 3865.669 3872.341 3875.0052">Click on the Edit</tspan></text>
<text xml:space="preserve" transform="matrix(.6742756 0 0 .6742756 -2273.0338 25.5)" font-size="12" font-family="Arial"><tspan y="84" x="3793.6407 3802.3048 3808.9769 3815.649 3825.645 3828.981 3835.653 3842.3253 3845.6612 3848.997 3855.6693 3862.3414 3865.6773 3872.3494">Room button or</tspan></text>
<text xml:space="preserve" transform="matrix(.6742756 0 0 .6742756 -2273.0338 25.5)" font-size="12" font-family="Arial"><tspan y="99" x="3779.6407 3783.6368 3790.3089 3796.981 3799.645 3803.641 3810.3133 3816.3133 3819.6492 3822.985 3826.321 3830.3172 3836.9893 3846.9854 3850.3214 3856.9935 3860.3294 3867.0015 3873.6737 3880.3458 3887.0179">redirect from a page.</tspan></text>
<path transform="matrix(.6742756,0,0,.6742756,-2272.6966,25.837138)" stroke-width="1" stroke-linecap="butt" stroke-miterlimit="10" stroke-linejoin="miter" fill="none" stroke="#000000" d="M3835.5 190V203.63"/>
<path transform="matrix(.6742756,0,0,.6742756,-2272.6966,25.837138)" d="M3835.5 208.88 3832 201.88 3835.5 203.63 3839 201.88 3835.5 208.88Z"/>
<path transform="matrix(.6742756,0,0,.6742756,-2272.6966,25.837138)" stroke-width="1" stroke-linecap="butt" stroke-miterlimit="10" stroke-linejoin="miter" fill="none" stroke="#000000" d="M3835.5 208.88 3832 201.88 3835.5 203.63 3839 201.88 3835.5 208.88Z"/>
<path transform="matrix(.6742756,0,0,.6742756,-2272.6966,25.837138)" d="M3763 190 3783 130H3908L3888 190H3763Z" fill="#fff2cc"/>
<path transform="matrix(.6742756,0,0,.6742756,-2272.6966,25.837138)" stroke-width="1" stroke-linecap="butt" stroke-miterlimit="10" stroke-linejoin="miter" fill="none" stroke="#d6b656" d="M3763 190 3783 130H3908L3888 190H3763Z"/>
<text xml:space="preserve" transform="matrix(.6742756 0 0 .6742756 -2273.0338 25.5)" font-size="12" font-family="Arial"><tspan y="164" x="3786.7969 3790.1329 3796.805 3803.477 3810.1492 3813.485 3816.821 3825.485 3832.1573 3838.8294 3848.8255 3852.1614 3860.8255 3867.4976 3877.4937">Input Room Name</tspan></text>
<path transform="matrix(.6742756,0,0,.6742756,-2272.6966,25.837138)" stroke-width="1" stroke-linecap="butt" stroke-miterlimit="10" stroke-linejoin="miter" fill="none" stroke="#000000" d="M3835.5 270H3832.5V283.63"/>
<path transform="matrix(.6742756,0,0,.6742756,-2272.6966,25.837138)" d="M3832.5 288.88 3829 281.88 3832.5 283.63 3836 281.88 3832.5 288.88Z"/>
<path transform="matrix(.6742756,0,0,.6742756,-2272.6966,25.837138)" stroke-width="1" stroke-linecap="butt" stroke-miterlimit="10" stroke-linejoin="miter" fill="none" stroke="#000000" d="M3832.5 288.88 3829 281.88 3832.5 283.63 3836 281.88 3832.5 288.88Z"/>
<path transform="matrix(.6742756,0,0,.6742756,-2272.6966,25.837138)" d="M3763 270 3783 210H3908L3888 270H3763Z" fill="#fff2cc"/>
<path transform="matrix(.6742756,0,0,.6742756,-2272.6966,25.837138)" stroke-width="1" stroke-linecap="butt" stroke-miterlimit="10" stroke-linejoin="miter" fill="none" stroke="#d6b656" d="M3763 270 3783 210H3908L3888 270H3763Z"/>
<text xml:space="preserve" transform="matrix(.6742756 0 0 .6742756 -2273.0338 25.5)" font-size="12" font-family="Arial"><tspan y="237" x="3804.4688 3807.8048 3814.4769 3821.149 3827.821 3831.157 3834.493 3843.157 3849.829 3856.5013">Input Room</tspan></text>
<text xml:space="preserve" transform="matrix(.6742756 0 0 .6742756 -2273.0338 25.5)" font-size="12" font-family="Arial"><tspan y="252" x="3791.4688 3798.1409 3804.813 3810.813 3817.485 3820.821 3823.485 3830.1573 3836.8294 3845.4935 3852.1656 3862.1617 3868.8338 3875.5059">LocationNumber</tspan></text>
<path transform="matrix(.6742756,0,0,.6742756,-2272.6966,25.837138)" d="M3760 350 3780 290H3905L3885 350H3760Z" fill="#fff2cc"/>
<path transform="matrix(.6742756,0,0,.6742756,-2272.6966,25.837138)" stroke-width="1" stroke-linecap="butt" stroke-miterlimit="10" stroke-linejoin="miter" fill="none" stroke="#d6b656" d="M3760 350 3780 290H3905L3885 350H3760Z"/>
<text xml:space="preserve" transform="matrix(.6742756 0 0 .6742756 -2273.0338 25.5)" font-size="12" font-family="Arial"><tspan y="324" x="3786.9063 3790.2423 3796.9144 3803.5865 3810.2586 3813.5946 3816.9305 3825.5946 3832.2667 3838.9388 3848.9349 3852.0567 3858.7247 3864.7247 3871.3968">Input Room Type</tspan></text>
<path transform="matrix(.6742756,0,0,.6742756,-2272.6966,25.837138)" stroke-width="1" stroke-linecap="butt" stroke-miterlimit="10" stroke-linejoin="miter" fill="none" stroke="#000000" d="M3828.5 430V450 440 453.63"/>
<path transform="matrix(.6742756,0,0,.6742756,-2272.6966,25.837138)" d="M3828.5 458.88 3825 451.88 3828.5 453.63 3832 451.88 3828.5 458.88Z"/>
<path transform="matrix(.6742756,0,0,.6742756,-2272.6966,25.837138)" stroke-width="1" stroke-linecap="butt" stroke-miterlimit="10" stroke-linejoin="miter" fill="none" stroke="#000000" d="M3828.5 458.88 3825 451.88 3828.5 453.63 3832 451.88 3828.5 458.88Z"/>
<path transform="matrix(.6742756,0,0,.6742756,-2272.6966,25.837138)" d="M3752 430 3772 370H3905L3885 430H3752Z" fill="#fff2cc"/>
<path transform="matrix(.6742756,0,0,.6742756,-2272.6966,25.837138)" stroke-width="1" stroke-linecap="butt" stroke-miterlimit="10" stroke-linejoin="miter" fill="none" stroke="#d6b656" d="M3752 430 3772 370H3905L3885 430H3752Z"/>
<text xml:space="preserve" transform="matrix(.6742756 0 0 .6742756 -2273.0338 25.5)" font-size="12" font-family="Arial"><tspan y="404" x="3763.7969 3767.1329 3773.805 3780.477 3787.1492 3790.485 3793.821 3796.485 3799.821 3803.157 3807.153 3813.8253 3820.4974 3830.4935 3833.8294 3836.4935 3842.4935 3845.8294 3852.5015 3858.5015 3865.1737 3867.8377 3870.5018 3877.1739 3883.846 3886.51">Input if room is available</tspan></text>
<path transform="matrix(.6742756,0,0,.6742756,-2272.6966,25.837138)" stroke-width="1" stroke-linecap="butt" stroke-miterlimit="10" stroke-linejoin="miter" fill="none" stroke="#000000" d="M3832.5 350H3835.8L3835.83 362.19"/>
<path transform="matrix(.6742756,0,0,.6742756,-2272.6966,25.837138)" d="M3835.84 367.44 3832.32 360.45 3835.83 362.19 3839.32 360.43 3835.84 367.44Z"/>
<path transform="matrix(.6742756,0,0,.6742756,-2272.6966,25.837138)" stroke-width="1" stroke-linecap="butt" stroke-miterlimit="10" stroke-linejoin="miter" fill="none" stroke="#000000" d="M3835.84 367.44 3832.32 360.45 3835.83 362.19 3839.32 360.43 3835.84 367.44Z"/>
<path transform="matrix(.6742756,0,0,.6742756,-2272.6966,25.837138)" stroke-width="1" stroke-linecap="butt" stroke-miterlimit="10" stroke-linejoin="miter" fill="none" stroke="#000000" d="M3953.5 515H4050V386.37"/>
<path transform="matrix(.6742756,0,0,.6742756,-2272.6966,25.837138)" d="M4050 381.12 4053.5 388.12 4050 386.37 4046.5 388.12 4050 381.12Z"/>
<path transform="matrix(.6742756,0,0,.6742756,-2272.6966,25.837138)" stroke-width="1" stroke-linecap="butt" stroke-miterlimit="10" stroke-linejoin="miter" fill="none" stroke="#000000" d="M4050 381.12 4053.5 388.12 4050 386.37 4046.5 388.12 4050 381.12Z"/>
<path transform="matrix(.6742756,0,0,.6742756,-2272.6966,25.837138)" stroke-width="1" stroke-linecap="butt" stroke-miterlimit="10" stroke-linejoin="miter" fill="none" stroke="#000000" d="M3828.5 570V583.63"/>
<path transform="matrix(.6742756,0,0,.6742756,-2272.6966,25.837138)" d="M3828.5 588.88 3825 581.88 3828.5 583.63 3832 581.88 3828.5 588.88Z"/>
<path transform="matrix(.6742756,0,0,.6742756,-2272.6966,25.837138)" stroke-width="1" stroke-linecap="butt" stroke-miterlimit="10" stroke-linejoin="miter" fill="none" stroke="#000000" d="M3828.5 588.88 3825 581.88 3828.5 583.63 3832 581.88 3828.5 588.88Z"/>
<path transform="matrix(.6742756,0,0,.6742756,-2272.6966,25.837138)" d="M3828.5 460 3953.5 515 3828.5 570 3703.5 515 3828.5 460Z" fill="#f8cecc"/>
<path transform="matrix(.6742756,0,0,.6742756,-2272.6966,25.837138)" stroke-width="1" stroke-linecap="butt" stroke-miterlimit="10" stroke-linejoin="miter" fill="none" stroke="#b85450" d="M3828.5 460 3953.5 515 3828.5 570 3703.5 515 3828.5 460Z"/>
<text xml:space="preserve" transform="matrix(.6742756 0 0 .6742756 -2273.0338 25.5)" font-size="12" font-family="Arial"><tspan y="512" x="3710.2657 3718.9298 3725.6019 3732.274 3738.274 3741.6099 3744.9459 3751.618 3758.29 3761.626 3768.298 3774.9703 3778.3062 3784.9783 3788.3143 3794.9864 3801.6585 3807.6585 3813.6585 3816.9945 3823.6666 3826.3306 3828.9947 3832.3306 3838.3306 3845.0028 3847.6668 3850.3309 3857.003 3863.675 3867.011 3869.675 3876.3472 3883.0194 3886.3553 3890.3514 3897.0235 3899.6876 3906.3597 3912.3597 3915.6956 3921.6956 3928.3677 3931.7037 3935.0396 3941.7117">Does the data pass all validation rules set by</tspan></text>
<text xml:space="preserve" transform="matrix(.6742756 0 0 .6742756 -2273.0338 25.5)" font-size="12" font-family="Arial"><tspan y="527" x="3793.3126 3796.6485 3803.3206 3809.9927 3813.3287 3820.0008 3823.9969 3830.669 3837.341 3841.3372 3848.0093 3858.0054">the program?</tspan></text>
<path transform="matrix(.6742756,0,0,.6742756,-2272.6966,25.837138)" stroke-width="1" stroke-linecap="butt" stroke-miterlimit="10" stroke-linejoin="miter" fill="none" stroke="#000000" d="M4050 320V120H3846.37"/>
<path transform="matrix(.6742756,0,0,.6742756,-2272.6966,25.837138)" d="M3841.12 120 3848.12 116.5 3846.37 120 3848.12 123.5 3841.12 120Z"/>
<path transform="matrix(.6742756,0,0,.6742756,-2272.6966,25.837138)" stroke-width="1" stroke-linecap="butt" stroke-miterlimit="10" stroke-linejoin="miter" fill="none" stroke="#000000" d="M3841.12 120 3848.12 116.5 3846.37 120 3848.12 123.5 3841.12 120Z"/>
<path transform="matrix(.6742756,0,0,.6742756,-2272.6966,25.837138)" d="M3980 380 4000 320H4120L4100 380H3980Z" fill="#fff2cc"/>
<path transform="matrix(.6742756,0,0,.6742756,-2272.6966,25.837138)" stroke-width="1" stroke-linecap="butt" stroke-miterlimit="10" stroke-linejoin="miter" fill="none" stroke="#d6b656" d="M3980 380 4000 320H4120L4100 380H3980Z"/>
<text xml:space="preserve" transform="matrix(.6742756 0 0 .6742756 -2273.0338 25.5)" font-size="12" font-family="Arial"><tspan y="340" x="4001.6407 4010.9766 4017.6488 4020.9847 4027.6568 4034.3289 4037.6649 4041.0008 4049.6649 4052.3289 4059.001 4065.673 4069.6693 4073.0052 4079.6773 4083.6734 4087.6695 4094.3416">Output Clear error</tspan></text>
<text xml:space="preserve" transform="matrix(.6742756 0 0 .6742756 -2273.0338 25.5)" font-size="12" font-family="Arial"><tspan y="354" x="3992.2969 4002.293 4008.965 4014.965 4020.965 4027.6373 4034.3094 4040.9815 4044.3175 4050.9896 4057.6617 4063.6617 4066.9976 4070.3336 4073.6695 4080.3416 4083.6776 4087.0135 4093.6856 4097.6818">message next to form</tspan></text>
<text xml:space="preserve" transform="matrix(.6742756 0 0 .6742756 -2273.0338 25.5)" font-size="12" font-family="Arial"><tspan y="369" x="4040.3126 4046.9847 4053.6568">box</tspan></text>
<text xml:space="preserve" transform="matrix(.6742756 0 0 .6742756 -2273.0338 25.5)" font-size="12" font-family="Arial"><tspan y="504" x="3969.3282 3976.6602 3983.3323 3985.9964 3991.9964">False</tspan></text>
<path transform="matrix(.6742756,0,0,.6742756,-2272.6966,25.837138)" stroke-width="1" stroke-linecap="butt" stroke-miterlimit="10" stroke-linejoin="miter" fill="none" stroke="#000000" d="M3828.5 650V663.63"/>
<path transform="matrix(.6742756,0,0,.6742756,-2272.6966,25.837138)" d="M3828.5 668.88 3825 661.88 3828.5 663.63 3832 661.88 3828.5 668.88Z"/>
<path transform="matrix(.6742756,0,0,.6742756,-2272.6966,25.837138)" stroke-width="1" stroke-linecap="butt" stroke-miterlimit="10" stroke-linejoin="miter" fill="none" stroke="#000000" d="M3828.5 668.88 3825 661.88 3828.5 663.63 3832 661.88 3828.5 668.88Z"/>
<path transform="matrix(.6742756,0,0,.6742756,-2272.6966,25.837138)" d="M3768.5 590H3888.5V650H3768.5Z" fill="#ffe6cc"/>
<path transform="matrix(.6742756,0,0,.6742756,-2272.6966,25.837138)" stroke-width="1" stroke-linecap="butt" stroke-miterlimit="4" stroke-linejoin="miter" fill="none" stroke="#d79b00" d="M3768.5 590H3888.5V650H3768.5Z"/>
<text xml:space="preserve" transform="matrix(.6742756 0 0 .6742756 -2273.0338 25.5)" font-size="12" font-family="Arial"><tspan y="624" x="3784.75 3792.754 3802.0899 3810.0938 3817.205 3820.541 3828.545 3835.217 3837.881 3841.217 3849.881 3856.5533 3863.2254">POST EditRoom</tspan></text>
<path transform="matrix(.6742756,0,0,.6742756,-2272.6966,25.837138)" stroke-width="1" stroke-linecap="butt" stroke-miterlimit="10" stroke-linejoin="miter" fill="none" stroke="#000000" d="M3660 650H3714.3V700H3762.13"/>
<path transform="matrix(.6742756,0,0,.6742756,-2272.6966,25.837138)" d="M3767.38 700 3760.38 703.5 3762.13 700 3760.38 696.5 3767.38 700Z"/>
<path transform="matrix(.6742756,0,0,.6742756,-2272.6966,25.837138)" stroke-width="1" stroke-linecap="butt" stroke-miterlimit="10" stroke-linejoin="miter" fill="none" stroke="#000000" d="M3767.38 700 3760.38 703.5 3762.13 700 3760.38 696.5 3767.38 700Z"/>
<path transform="matrix(.6742756,0,0,.6742756,-2272.6966,25.837138)" stroke-width="1" stroke-linecap="butt" stroke-miterlimit="10" stroke-linejoin="miter" fill="none" stroke="#000000" d="M3590 690V790H3739.13"/>
<path transform="matrix(.6742756,0,0,.6742756,-2272.6966,25.837138)" d="M3744.38 790 3737.38 793.5 3739.13 790 3737.38 786.5 3744.38 790Z"/>
<path transform="matrix(.6742756,0,0,.6742756,-2272.6966,25.837138)" stroke-width="1" stroke-linecap="butt" stroke-miterlimit="10" stroke-linejoin="miter" fill="none" stroke="#000000" d="M3744.38 790 3737.38 793.5 3739.13 790 3737.38 786.5 3744.38 790Z"/>
<path transform="matrix(.6742756,0,0,.6742756,-2272.6966,25.837138)" stroke-width="1" stroke-linecap="butt" stroke-miterlimit="10" stroke-linejoin="miter" fill="none" stroke="#000000" d="M3540.3 685.65V980H3738.63"/>
<path transform="matrix(.6742756,0,0,.6742756,-2272.6966,25.837138)" d="M3743.88 980 3736.88 983.5 3738.63 980 3736.88 976.5 3743.88 980Z"/>
<path transform="matrix(.6742756,0,0,.6742756,-2272.6966,25.837138)" stroke-width="1" stroke-linecap="butt" stroke-miterlimit="10" stroke-linejoin="miter" fill="none" stroke="#000000" d="M3743.88 980 3736.88 983.5 3738.63 980 3736.88 976.5 3743.88 980Z"/>
<path transform="matrix(.6742756,0,0,.6742756,-2272.6966,25.837138)" d="M3520 575C3520 566.72 3551.34 560 3590 560 3608.57 560 3626.37 561.58 3639.5 564.39 3652.63 567.21 3660 571.02 3660 575V675C3660 683.28 3628.66 690 3590 690 3551.34 690 3520 683.28 3520 675V575Z" fill="#e1d5e7"/>
<path transform="matrix(.6742756,0,0,.6742756,-2272.6966,25.837138)" stroke-width="1" stroke-linecap="butt" stroke-miterlimit="10" stroke-linejoin="miter" fill="none" stroke="#9673a6" d="M3520 575C3520 566.72 3551.34 560 3590 560 3608.57 560 3626.37 561.58 3639.5 564.39 3652.63 567.21 3660 571.02 3660 575V675C3660 683.28 3628.66 690 3590 690 3551.34 690 3520 683.28 3520 675V575Z"/>
<path transform="matrix(.6742756,0,0,.6742756,-2272.6966,25.837138)" stroke-width="1" stroke-linecap="butt" stroke-miterlimit="10" stroke-linejoin="miter" fill="none" stroke="#9673a6" d="M3660 575C3660 583.28 3628.66 590 3590 590 3551.34 590 3520 583.28 3520 575"/>
<text xml:space="preserve" transform="matrix(.6742756 0 0 .6742756 -2273.0338 25.5)" font-size="12" font-family="Arial"><tspan y="642" x="3532.2969 3540.3009 3546.973 3553.645 3556.309 3558.9732 3564.9732 3571.6453 3574.9813 3577.6453 3584.3175 3590.9896 3599.6536 3606.3258 3614.9898 3621.6619 3628.334 3631.67 3638.342 3644.342">ApplicationDbContext</tspan></text>
<path transform="matrix(.6742756,0,0,.6742756,-2272.6966,25.837138)" stroke-width="1" stroke-linecap="butt" stroke-miterlimit="10" stroke-linejoin="miter" fill="none" stroke="#000000" d="M3768.5 620H3714.3V600H3666.37"/>
<path transform="matrix(.6742756,0,0,.6742756,-2272.6966,25.837138)" d="M3661.12 600 3668.12 596.5 3666.37 600 3668.12 603.5 3661.12 600Z"/>
<path transform="matrix(.6742756,0,0,.6742756,-2272.6966,25.837138)" stroke-width="1" stroke-linecap="butt" stroke-miterlimit="10" stroke-linejoin="miter" fill="none" stroke="#000000" d="M3661.12 600 3668.12 596.5 3666.37 600 3668.12 603.5 3661.12 600Z"/>
<path transform="matrix(.6742756,0,0,.6742756,-2272.6966,25.837138)" stroke-width="1" stroke-linecap="butt" stroke-miterlimit="10" stroke-linejoin="miter" fill="none" stroke="#000000" d="M3828.5 730H3830.5V743.63"/>
<path transform="matrix(.6742756,0,0,.6742756,-2272.6966,25.837138)" d="M3830.5 748.88 3827 741.88 3830.5 743.63 3834 741.88 3830.5 748.88Z"/>
<path transform="matrix(.6742756,0,0,.6742756,-2272.6966,25.837138)" stroke-width="1" stroke-linecap="butt" stroke-miterlimit="10" stroke-linejoin="miter" fill="none" stroke="#000000" d="M3830.5 748.88 3827 741.88 3830.5 743.63 3834 741.88 3830.5 748.88Z"/>
<path transform="matrix(.6742756,0,0,.6742756,-2272.6966,25.837138)" d="M3768.5 670H3888.5V730H3768.5Z" fill="#ffe6cc"/>
<path transform="matrix(.6742756,0,0,.6742756,-2272.6966,25.837138)" stroke-width="1" stroke-linecap="butt" stroke-miterlimit="4" stroke-linejoin="miter" fill="none" stroke="#d79b00" d="M3768.5 670H3888.5V730H3768.5Z"/>
<text xml:space="preserve" transform="matrix(.6742756 0 0 .6742756 -2273.0338 25.5)" font-size="12" font-family="Arial"><tspan y="697" x="3783.2969 3791.961 3798.633 3808.6292 3815.3013 3821.9735 3825.9696 3832.6417 3835.9776 3844.6417 3851.3138 3854.6497 3861.3218 3864.6578 3867.9937">Compare Data to</tspan></text>
<text xml:space="preserve" transform="matrix(.6742756 0 0 .6742756 -2273.0338 25.5)" font-size="12" font-family="Arial"><tspan y="712" x="3786.9688 3793.6409 3799.6409 3802.305 3808.305 3811.6409 3814.305 3820.977 3827.6492 3830.985 3834.9813 3841.6534 3847.6534 3854.3255 3858.3216 3864.9937">existing records</tspan></text>
<path transform="matrix(.6742756,0,0,.6742756,-2272.6966,25.837138)" stroke-width="1" stroke-linecap="butt" stroke-miterlimit="10" stroke-linejoin="miter" fill="none" stroke="#000000" d="M3830.5 830H3832.5V853.63"/>
<path transform="matrix(.6742756,0,0,.6742756,-2272.6966,25.837138)" d="M3832.5 858.88 3829 851.88 3832.5 853.63 3836 851.88 3832.5 858.88Z"/>
<path transform="matrix(.6742756,0,0,.6742756,-2272.6966,25.837138)" stroke-width="1" stroke-linecap="butt" stroke-miterlimit="10" stroke-linejoin="miter" fill="none" stroke="#000000" d="M3832.5 858.88 3829 851.88 3832.5 853.63 3836 851.88 3832.5 858.88Z"/>
<path transform="matrix(.6742756,0,0,.6742756,-2272.6966,25.837138)" d="M3830.5 750 3915.5 790 3830.5 830 3745.5 790 3830.5 750Z" fill="#f8cecc"/>
<path transform="matrix(.6742756,0,0,.6742756,-2272.6966,25.837138)" stroke-width="1" stroke-linecap="butt" stroke-miterlimit="10" stroke-linejoin="miter" fill="none" stroke="#b85450" d="M3830.5 750 3915.5 790 3830.5 830 3745.5 790 3830.5 750Z"/>
<text xml:space="preserve" transform="matrix(.6742756 0 0 .6742756 -2273.0338 25.5)" font-size="12" font-family="Arial"><tspan y="794" x="3762.9688 3771.6329 3778.305 3784.977 3790.977 3794.313 3798.309 3804.9813 3811.6534 3821.6495 3824.9854 3831.6575 3834.3216 3838.3177 3844.9898 3851.6619 3858.334 3864.334 3867.67 3874.342 3880.342 3883.006 3889.006 3892.342">Does room already exist?</tspan></text>
<text xml:space="preserve" transform="matrix(.6742756 0 0 .6742756 -2273.0338 25.5)" font-size="12" font-family="Arial"><tspan y="769" x="3904.3282 3911.6602 3918.3323 3920.9964 3926.9964">False</tspan></text>
<text xml:space="preserve" transform="matrix(.6742756 0 0 .6742756 -2273.0338 25.5)" font-size="12" font-family="Arial"><tspan y="839" x="3862.875 3869.7598 3873.7559 3880.428">True</tspan></text>
<path transform="matrix(.6742756,0,0,.6742756,-2272.6966,25.837138)" stroke-width="1" stroke-linecap="butt" stroke-miterlimit="10" stroke-linejoin="miter" fill="none" stroke="#000000" d="M3835 1020V1042.4L3722.25 1042.36"/>
<path transform="matrix(.6742756,0,0,.6742756,-2272.6966,25.837138)" d="M3717 1042.35 3724 1038.86 3722.25 1042.36 3724 1045.86 3717 1042.35Z"/>
<path transform="matrix(.6742756,0,0,.6742756,-2272.6966,25.837138)" stroke-width="1" stroke-linecap="butt" stroke-miterlimit="10" stroke-linejoin="miter" fill="none" stroke="#000000" d="M3717 1042.35 3724 1038.86 3722.25 1042.36 3724 1045.86 3717 1042.35Z"/>
<path transform="matrix(.6742756,0,0,.6742756,-2272.6966,25.837138)" d="M3835 940 3925 980 3835 1020 3745 980 3835 940Z" fill="#f8cecc"/>
<path transform="matrix(.6742756,0,0,.6742756,-2272.6966,25.837138)" stroke-width="1" stroke-linecap="butt" stroke-miterlimit="10" stroke-linejoin="miter" fill="none" stroke="#b85450" d="M3835 940 3925 980 3835 1020 3745 980 3835 940Z"/>
<text xml:space="preserve" transform="matrix(.6742756 0 0 .6742756 -2273.0338 25.5)" font-size="12" font-family="Arial"><tspan y="984" x="3778.2969 3786.961 3793.633 3800.3052 3806.3052 3809.641 3812.977 3819.6492 3826.3214 3829.6573 3833.6534 3840.3255 3846.9976 3856.9937 3860.3297 3867.0018 3873.0018 3875.6658 3881.6658 3885.0018">Does the room exist?</tspan></text>
<path transform="matrix(.6742756,0,0,.6742756,-2272.6966,25.837138)" stroke-width="1" stroke-linecap="butt" stroke-miterlimit="10" stroke-linejoin="miter" fill="none" stroke="#000000" d="M3832.5 920H3835V933.63"/>
<path transform="matrix(.6742756,0,0,.6742756,-2272.6966,25.837138)" d="M3835 938.88 3831.5 931.88 3835 933.63 3838.5 931.88 3835 938.88Z"/>
<path transform="matrix(.6742756,0,0,.6742756,-2272.6966,25.837138)" stroke-width="1" stroke-linecap="butt" stroke-miterlimit="10" stroke-linejoin="miter" fill="none" stroke="#000000" d="M3835 938.88 3831.5 931.88 3835 933.63 3838.5 931.88 3835 938.88Z"/>
<path transform="matrix(.6742756,0,0,.6742756,-2272.6966,25.837138)" d="M3772.5 860H3892.5V920H3772.5Z" fill="#ffe6cc"/>
<path transform="matrix(.6742756,0,0,.6742756,-2272.6966,25.837138)" stroke-width="1" stroke-linecap="butt" stroke-miterlimit="4" stroke-linejoin="miter" fill="none" stroke="#d79b00" d="M3772.5 860H3892.5V920H3772.5Z"/>
<text xml:space="preserve" transform="matrix(.6742756 0 0 .6742756 -2273.0338 25.5)" font-size="12" font-family="Arial"><tspan y="880" x="3799.0938 3807.0977 3816.4337 3824.4376 3831.5489 3834.8848 3843.5489 3850.221 3856.893">POST Room</tspan></text>
<text xml:space="preserve" transform="matrix(.6742756 0 0 .6742756 -2273.0338 25.5)" font-size="12" font-family="Arial"><tspan y="894" x="3782.6407 3785.9766 3792.6488 3795.9847 3802.6568 3806.6529 3816.649 3823.321 3826.657 3829.321 3835.9932 3842.6654 3846.0013 3849.3372 3856.0093 3859.3453 3867.349 3876.685">Information to SQL</tspan></text>
<text xml:space="preserve" transform="matrix(.6742756 0 0 .6742756 -2273.0338 25.5)" font-size="12" font-family="Arial"><tspan y="909" x="3813.9844 3821.9884 3828.6605 3832.6566 3838.6566 3845.3287 3848.666">Server.</tspan></text>
<path transform="matrix(.6742756,0,0,.6742756,-2272.6966,25.837138)" stroke-width="1" stroke-linecap="butt" stroke-miterlimit="10" stroke-linejoin="miter" fill="none" stroke="#000000" d="M3745.5 790H3590V696.37"/>
<path transform="matrix(.6742756,0,0,.6742756,-2272.6966,25.837138)" d="M3590 691.12 3593.5 698.12 3590 696.37 3586.5 698.12 3590 691.12Z"/>
<path transform="matrix(.6742756,0,0,.6742756,-2272.6966,25.837138)" stroke-width="1" stroke-linecap="butt" stroke-miterlimit="10" stroke-linejoin="miter" fill="none" stroke="#000000" d="M3590 691.12 3593.5 698.12 3590 696.37 3586.5 698.12 3590 691.12Z"/>
<path transform="matrix(.6742756,0,0,.6742756,-2272.6966,25.837138)" stroke-width="1" stroke-linecap="butt" stroke-miterlimit="10" stroke-linejoin="miter" fill="none" stroke="#000000" d="M3925 980H4099.3L4099.28 388.95"/>
<path transform="matrix(.6742756,0,0,.6742756,-2272.6966,25.837138)" d="M4099.28 383.7 4102.78 390.7 4099.28 388.95 4095.78 390.7 4099.28 383.7Z"/>
<path transform="matrix(.6742756,0,0,.6742756,-2272.6966,25.837138)" stroke-width="1" stroke-linecap="butt" stroke-miterlimit="10" stroke-linejoin="miter" fill="none" stroke="#000000" d="M4099.28 383.7 4102.78 390.7 4099.28 388.95 4095.78 390.7 4099.28 383.7Z"/>
<path transform="matrix(.6742756,0,0,.6742756,-2272.6966,25.837138)" stroke-width="1" stroke-linecap="butt" stroke-miterlimit="10" stroke-linejoin="miter" fill="none" stroke="#000000" d="M3915.5 790H4076L4076.04 388.95"/>
<path transform="matrix(.6742756,0,0,.6742756,-2272.6966,25.837138)" d="M4076.04 383.7 4079.54 390.7 4076.04 388.95 4072.54 390.7 4076.04 383.7Z"/>
<path transform="matrix(.6742756,0,0,.6742756,-2272.6966,25.837138)" stroke-width="1" stroke-linecap="butt" stroke-miterlimit="10" stroke-linejoin="miter" fill="none" stroke="#000000" d="M4076.04 383.7 4079.54 390.7 4076.04 388.95 4072.54 390.7 4076.04 383.7Z"/>
<text xml:space="preserve" transform="matrix(.6742756 0 0 .6742756 -2273.0338 25.5)" font-size="12" font-family="Arial"><tspan y="969" x="3931.3282 3938.6602 3945.3323 3947.9964 3953.9964">False</tspan></text>
<text xml:space="preserve" transform="matrix(.6742756 0 0 .6742756 -2273.0338 25.5)" font-size="12" font-family="Arial"><tspan y="1029" x="3887.875 3894.7598 3898.7559 3905.428">True</tspan></text>
<path transform="matrix(.6742756,0,0,.6742756,-2272.6966,25.837138)" stroke-width="1" stroke-linecap="butt" stroke-miterlimit="10" stroke-linejoin="miter" fill="none" stroke="#000000" d="M3580 1030H3475V991.37"/>
<path transform="matrix(.6742756,0,0,.6742756,-2272.6966,25.837138)" d="M3475 986.12 3478.5 993.12 3475 991.37 3471.5 993.12 3475 986.12Z"/>
<path transform="matrix(.6742756,0,0,.6742756,-2272.6966,25.837138)" stroke-width="1" stroke-linecap="butt" stroke-miterlimit="10" stroke-linejoin="miter" fill="none" stroke="#000000" d="M3475 986.12 3478.5 993.12 3475 991.37 3471.5 993.12 3475 986.12Z"/>
<path transform="matrix(.6742756,0,0,.6742756,-2272.6966,25.837138)" d="M3570 1060 3590 1000H3730L3710 1060H3570Z" fill="#fff2cc"/>
<path transform="matrix(.6742756,0,0,.6742756,-2272.6966,25.837138)" stroke-width="1" stroke-linecap="butt" stroke-miterlimit="10" stroke-linejoin="miter" fill="none" stroke="#d6b656" d="M3570 1060 3590 1000H3730L3710 1060H3570Z"/>
<text xml:space="preserve" transform="matrix(.6742756 0 0 .6742756 -2273.0338 25.5)" font-size="12" font-family="Arial"><tspan y="1027" x="3571.9532 3581.289 3587.9613 3591.297 3597.9693 3604.6414 3607.9774 3611.3133 3619.3172 3625.9893 3631.9893 3637.9893 3644.6614 3650.6614 3656.6614 3659.9974 3666.6695 3673.3416 3680.0137 3683.3497 3687.3458 3694.0179 3697.3538 3704.026 3708.022 3714.694 3718.03 3721.366">Output Success and return to</tspan></text>
<text xml:space="preserve" transform="matrix(.6742756 0 0 .6742756 -2273.0338 25.5)" font-size="12" font-family="Arial"><tspan y="1042" x="3635.3126 3638.6485 3645.3206 3651.9927 3658.6649">Index</tspan></text>
<path transform="matrix(.6742756,0,0,.6742756,-2272.6966,25.837138)" d="M3436 945H3514C3514.3939 945 3514.7838 945.0384 3515.1702 945.1152 3515.5567 945.1921 3515.9317 945.3059 3516.2957 945.4566 3516.6597 945.6074 3517.0057 945.79226 3517.333 946.01107 3517.6605 946.2299 3517.9637 946.47866 3518.2423 946.75729 3518.5208 947.0358 3518.7694 947.33889 3518.9884 947.66647 3519.2073 947.99398 3519.392 948.3397 3519.5428 948.70376 3519.6934 949.0677 3519.8074 949.4429 3519.8843 949.8293 3519.9613 950.21578 3519.9998 950.606 3520 951V979C3519.9998 979.394 3519.9613 979.7841 3519.8843 980.1705 3519.8074 980.5569 3519.6934 980.93209 3519.5428 981.296 3519.392 981.66 3519.2073 982.0058 3518.9884 982.3334 3518.7694 982.66098 3518.5208 982.96408 3518.2423 983.2426 3517.9637 983.5212 3517.6605 983.7699 3517.333 983.9887 3517.0057 984.2076 3516.6597 984.3924 3516.2957 984.5432 3515.9317 984.694 3515.5567 984.8078 3515.1702 984.88467 3514.7838 984.96157 3514.3939 985 3514 985H3436C3435.606 985 3435.2156 984.96157 3434.829 984.88467 3434.4427 984.8078 3434.0675 984.694 3433.7034 984.5432 3433.3394 984.3924 3432.9935 984.2076 3432.666 983.9887 3432.3387 983.7699 3432.0357 983.5212 3431.757 983.2426 3431.4786 982.96408 3431.2298 982.66098 3431.0108 982.3334 3430.7918 982.0058 3430.607 981.66 3430.4564 981.296 3430.3055 980.93209 3430.1917 980.5569 3430.115 980.1705 3430.038 979.7841 3429.9998 979.394 3430 979V951C3429.9998 950.606 3430.0379 950.21578 3430.1148 949.8293 3430.1915 949.4429 3430.3052 949.0677 3430.456 948.70376 3430.607 948.3397 3430.7918 947.99398 3431.0106 947.66647 3431.2296 947.33889 3431.4786 947.0358 3431.757 946.75729 3432.0357 946.47866 3432.3387 946.2299 3432.666 946.01107 3432.9935 945.79226 3433.3394 945.6074 3433.7034 945.4566 3434.0675 945.3059 3434.4427 945.1921 3434.829 945.11526 3435.2156 945.0384 3435.606 945 3436 945Z" fill="#dae8fc"/>
<path transform="matrix(.6742756,0,0,.6742756,-2272.6966,25.837138)" stroke-width="1" stroke-linecap="butt" stroke-miterlimit="4" stroke-linejoin="miter" fill="none" stroke="#6c8ebf" d="M3436 945H3514C3514.3939 945 3514.7838 945.0384 3515.1702 945.1152 3515.5567 945.1921 3515.9317 945.3059 3516.2957 945.4566 3516.6597 945.6074 3517.0057 945.79226 3517.333 946.01107 3517.6605 946.2299 3517.9637 946.47866 3518.2423 946.75729 3518.5208 947.0358 3518.7694 947.33889 3518.9884 947.66647 3519.2073 947.99398 3519.392 948.3397 3519.5428 948.70376 3519.6934 949.0677 3519.8074 949.4429 3519.8843 949.8293 3519.9613 950.21578 3519.9998 950.606 3520 951V979C3519.9998 979.394 3519.9613 979.7841 3519.8843 980.1705 3519.8074 980.5569 3519.6934 980.93209 3519.5428 981.296 3519.392 981.66 3519.2073 982.0058 3518.9884 982.3334 3518.7694 982.66098 3518.5208 982.96408 3518.2423 983.2426 3517.9637 983.5212 3517.6605 983.7699 3517.333 983.9887 3517.0057 984.2076 3516.6597 984.3924 3516.2957 984.5432 3515.9317 984.694 3515.5567 984.8078 3515.1702 984.88467 3514.7838 984.96157 3514.3939 985 3514 985H3436C3435.606 985 3435.2156 984.96157 3434.829 984.88467 3434.4427 984.8078 3434.0675 984.694 3433.7034 984.5432 3433.3394 984.3924 3432.9935 984.2076 3432.666 983.9887 3432.3387 983.7699 3432.0357 983.5212 3431.757 983.2426 3431.4786 982.96408 3431.2298 982.66098 3431.0108 982.3334 3430.7918 982.0058 3430.607 981.66 3430.4564 981.296 3430.3055 980.93209 3430.1917 980.5569 3430.115 980.1705 3430.038 979.7841 3429.9998 979.394 3430 979V951C3429.9998 950.606 3430.0379 950.21578 3430.1148 949.8293 3430.1915 949.4429 3430.3052 949.0677 3430.456 948.70376 3430.607 948.3397 3430.7918 947.99398 3431.0106 947.66647 3431.2296 947.33889 3431.4786 947.0358 3431.757 946.75729 3432.0357 946.47866 3432.3387 946.2299 3432.666 946.01107 3432.9935 945.79226 3433.3394 945.6074 3433.7034 945.4566 3434.0675 945.3059 3434.4427 945.1921 3434.829 945.11526 3435.2156 945.0384 3435.606 945 3436 945Z"/>
<text xml:space="preserve" transform="matrix(.6742756 0 0 .6742756 -2273.0338 25.5)" font-size="12" font-family="Arial"><tspan y="969" x="3464.3126 3472.3165 3478.9886">End</tspan></text>
<path transform="matrix(.6742756,0,0,.6742756,-2272.6966,25.837138)" stroke-width="1" stroke-linecap="butt" stroke-miterlimit="10" stroke-linejoin="miter" fill="none" stroke="#000000" d="M3772.5 890H3569.6L3569.56 695.33"/>
<path transform="matrix(.6742756,0,0,.6742756,-2272.6966,25.837138)" d="M3569.56 690.08 3573.06 697.08 3569.56 695.33 3566.06 697.08 3569.56 690.08Z"/>
<path transform="matrix(.6742756,0,0,.6742756,-2272.6966,25.837138)" stroke-width="1" stroke-linecap="butt" stroke-miterlimit="10" stroke-linejoin="miter" fill="none" stroke="#000000" d="M3569.56 690.08 3573.06 697.08 3569.56 695.33 3566.06 697.08 3569.56 690.08Z"/>
<path transform="matrix(.6742756,0,0,.6742756,-2272.6966,25.837138)" stroke-width="1" stroke-linecap="butt" stroke-miterlimit="10" stroke-linejoin="miter" fill="none" stroke="#000000" d="M3745 980H3540.3V692.02"/>
<path transform="matrix(.6742756,0,0,.6742756,-2272.6966,25.837138)" d="M3540.3 686.77 3543.8 693.77 3540.3 692.02 3536.8 693.77 3540.3 686.77Z"/>
<path transform="matrix(.6742756,0,0,.6742756,-2272.6966,25.837138)" stroke-width="1" stroke-linecap="butt" stroke-miterlimit="10" stroke-linejoin="miter" fill="none" stroke="#000000" d="M3540.3 686.77 3543.8 693.77 3540.3 692.02 3536.8 693.77 3540.3 686.77Z"/>
<text xml:space="preserve" transform="matrix(.6742756 0 0 .6742756 -2273.0338 25.5)" font-size="12" font-family="Arial"><tspan y="19" x="3419.6563 3427.6602 3434.3323">Key</tspan></text>
<path transform="matrix(.6742756,0,0,.6742756,-2272.6966,25.837138)" d="M3410 80H3510V120H3410Z" fill="#ffe6cc"/>
<path transform="matrix(.6742756,0,0,.6742756,-2272.6966,25.837138)" stroke-width="1" stroke-linecap="butt" stroke-miterlimit="4" stroke-linejoin="miter" fill="none" stroke="#d79b00" d="M3410 80H3510V120H3410Z"/>
<text xml:space="preserve" transform="matrix(.6742756 0 0 .6742756 -2273.0338 25.5)" font-size="12" font-family="Arial"><tspan y="104" x="3438.3126 3446.3165 3450.3126 3456.9847 3462.9847 3469.6568 3475.6568">Process</tspan></text>
<path transform="matrix(.6742756,0,0,.6742756,-2272.6966,25.837138)" d="M3405 170 3425 130H3515L3495 170H3405Z" fill="#fff2cc"/>
<path transform="matrix(.6742756,0,0,.6742756,-2272.6966,25.837138)" stroke-width="1" stroke-linecap="butt" stroke-miterlimit="10" stroke-linejoin="miter" fill="none" stroke="#d6b656" d="M3405 170 3425 130H3515L3495 170H3405Z"/>
<text xml:space="preserve" transform="matrix(.6742756 0 0 .6742756 -2273.0338 25.5)" font-size="12" font-family="Arial"><tspan y="154" x="3426.9688 3430.3048 3436.9769 3443.649 3450.321 3453.657 3456.993 3466.3289 3473.001 3476.337 3483.009 3489.6812">Input/Output</tspan></text>
<path transform="matrix(.6742756,0,0,.6742756,-2272.6966,25.837138)" d="M3460 180 3500 215 3460 250 3420 215 3460 180Z" fill="#f8cecc"/>
<path transform="matrix(.6742756,0,0,.6742756,-2272.6966,25.837138)" stroke-width="1" stroke-linecap="butt" stroke-miterlimit="10" stroke-linejoin="miter" fill="none" stroke="#b85450" d="M3460 180 3500 215 3460 250 3420 215 3460 180Z"/>
<text xml:space="preserve" transform="matrix(.6742756 0 0 .6742756 -2273.0338 25.5)" font-size="12" font-family="Arial"><tspan y="219" x="3436.9844 3445.6485 3452.3206 3458.3206 3460.9847 3466.9847 3469.6488 3476.3209">Decision</tspan></text>
<path transform="matrix(.6742756,0,0,.6742756,-2272.6966,25.837138)" d="M3430 270C3430 261.72 3443.43 255 3460 255 3467.96 255 3475.59 256.58 3481.21 259.39 3486.84 262.21 3490 266.02 3490 270V305C3490 313.28 3476.57 320 3460 320 3443.43 320 3430 313.28 3430 305V270Z" fill="#e1d5e7"/>
<path transform="matrix(.6742756,0,0,.6742756,-2272.6966,25.837138)" stroke-width="1" stroke-linecap="butt" stroke-miterlimit="10" stroke-linejoin="miter" fill="none" stroke="#9673a6" d="M3430 270C3430 261.72 3443.43 255 3460 255 3467.96 255 3475.59 256.58 3481.21 259.39 3486.84 262.21 3490 266.02 3490 270V305C3490 313.28 3476.57 320 3460 320 3443.43 320 3430 313.28 3430 305V270Z"/>
<path transform="matrix(.6742756,0,0,.6742756,-2272.6966,25.837138)" stroke-width="1" stroke-linecap="butt" stroke-miterlimit="10" stroke-linejoin="miter" fill="none" stroke="#9673a6" d="M3490 270C3490 278.28 3476.57 285 3460 285 3443.43 285 3430 278.28 3430 270"/>
<text xml:space="preserve" transform="matrix(.6742756 0 0 .6742756 -2273.0338 25.5)" font-size="12" font-family="Arial"><tspan y="304" x="3434.3126 3442.9766 3449.6488 3452.9847 3459.6568 3466.3289 3473.001 3479.001">Database</tspan></text>
<path transform="matrix(.6742756,0,0,.6742756,-2272.6966,25.837138)" stroke-width="1" stroke-linecap="butt" stroke-miterlimit="10" stroke-linejoin="miter" fill="none" stroke="#000000" d="M3445 340 3471.18 374.91"/>
<path transform="matrix(.6742756,0,0,.6742756,-2272.6966,25.837138)" d="M3474.33 379.11 3467.33 375.61 3471.18 374.91 3472.93 371.41 3474.33 379.11Z"/>
<path transform="matrix(.6742756,0,0,.6742756,-2272.6966,25.837138)" stroke-width="1" stroke-linecap="butt" stroke-miterlimit="10" stroke-linejoin="miter" fill="none" stroke="#000000" d="M3474.33 379.11 3467.33 375.61 3471.18 374.91 3472.93 371.41 3474.33 379.11Z"/>
<text xml:space="preserve" transform="matrix(.6742756 0 0 .6742756 -2273.0338 25.5)" font-size="12" font-family="Arial"><tspan y="349" x="3466.3126 3474.9766 3477.6407 3481.6368 3488.3089 3494.3089 3497.6448 3500.3089 3506.981">Direction</tspan></text>
<path transform="matrix(.6742756,0,0,.6742756,-2272.6966,25.837138)" d="M3416 30H3504C3504.3939 30 3504.7838 30.03843 3505.1702 30.115288 3505.5567 30.192147 3505.9317 30.305956 3506.2957 30.456719 3506.6597 30.607483 3507.0057 30.792304 3507.333 31.011179 3507.6607 31.230053 3507.9639 31.478779 3508.2425 31.757357 3508.521 32.035936 3508.7696 32.339006 3508.9886 32.666578 3509.2073 32.994146 3509.392 33.339918 3509.543 33.703897 3509.6937 34.067876 3509.8077 34.443059 3509.8846 34.829454 3509.9615 35.21585 3509.9998 35.606035 3510 36V64C3509.9998 64.39396 3509.9615 64.78414 3509.8846 65.17053 3509.8077 65.55693 3509.6937 65.93212 3509.543 66.2961 3509.392 66.66007 3509.2073 67.00585 3508.9886 67.33342 3508.7696 67.66099 3508.521 67.964069 3508.2425 68.24264 3507.9639 68.52121 3507.6607 68.769939 3507.333 68.98881 3507.0057 69.20769 3506.6597 69.3925 3506.2957 69.54327 3505.9317 69.69403 3505.5567 69.80784 3505.1702 69.884708 3504.7838 69.96157 3504.3939 70 3504 70H3416C3415.606 70 3415.2159 69.96157 3414.8294 69.884708 3414.4429 69.80784 3414.0677 69.69403 3413.7039 69.54327 3413.3397 69.3925 3412.994 69.20769 3412.6666 68.98881 3412.3389 68.769939 3412.036 68.52121 3411.7574 68.24264 3411.4788 67.964069 3411.2298 67.66099 3411.0108 67.33342 3410.792 67.00585 3410.6072 66.66007 3410.4564 66.2961 3410.3057 65.93212 3410.192 65.55693 3410.1153 65.17053 3410.0384 64.78414 3409.9998 64.39396 3410 64V36C3409.9998 35.606035 3410.038 35.21585 3410.115 34.829454 3410.192 34.443059 3410.3057 34.067876 3410.4564 33.703897 3410.6072 33.339918 3410.792 32.994146 3411.011 32.666578 3411.23 32.339006 3411.4788 32.035936 3411.7574 31.757357 3412.036 31.478779 3412.3387 31.230053 3412.666 31.011179 3412.9937 30.792304 3413.3397 30.607483 3413.7037 30.45672 3414.0677 30.305958 3414.4429 30.192147 3414.8294 30.115288 3415.2159 30.03843 3415.606 30 3416 30Z" fill="#dae8fc"/>
<path transform="matrix(.6742756,0,0,.6742756,-2272.6966,25.837138)" stroke-width="1" stroke-linecap="butt" stroke-miterlimit="4" stroke-linejoin="miter" fill="none" stroke="#6c8ebf" d="M3416 30H3504C3504.3939 30 3504.7838 30.03843 3505.1702 30.115288 3505.5567 30.192147 3505.9317 30.305956 3506.2957 30.456719 3506.6597 30.607483 3507.0057 30.792304 3507.333 31.011179 3507.6607 31.230053 3507.9639 31.478779 3508.2425 31.757357 3508.521 32.035936 3508.7696 32.339006 3508.9886 32.666578 3509.2073 32.994146 3509.392 33.339918 3509.543 33.703897 3509.6937 34.067876 3509.8077 34.443059 3509.8846 34.829454 3509.9615 35.21585 3509.9998 35.606035 3510 36V64C3509.9998 64.39396 3509.9615 64.78414 3509.8846 65.17053 3509.8077 65.55693 3509.6937 65.93212 3509.543 66.2961 3509.392 66.66007 3509.2073 67.00585 3508.9886 67.33342 3508.7696 67.66099 3508.521 67.964069 3508.2425 68.24264 3507.9639 68.52121 3507.6607 68.769939 3507.333 68.98881 3507.0057 69.20769 3506.6597 69.3925 3506.2957 69.54327 3505.9317 69.69403 3505.5567 69.80784 3505.1702 69.884708 3504.7838 69.96157 3504.3939 70 3504 70H3416C3415.606 70 3415.2159 69.96157 3414.8294 69.884708 3414.4429 69.80784 3414.0677 69.69403 3413.7039 69.54327 3413.3397 69.3925 3412.994 69.20769 3412.6666 68.98881 3412.3389 68.769939 3412.036 68.52121 3411.7574 68.24264 3411.4788 67.964069 3411.2298 67.66099 3411.0108 67.33342 3410.792 67.00585 3410.6072 66.66007 3410.4564 66.2961 3410.3057 65.93212 3410.192 65.55693 3410.1153 65.17053 3410.0384 64.78414 3409.9998 64.39396 3410 64V36C3409.9998 35.606035 3410.038 35.21585 3410.115 34.829454 3410.192 34.443059 3410.3057 34.067876 3410.4564 33.703897 3410.6072 33.339918 3410.792 32.994146 3411.011 32.666578 3411.23 32.339006 3411.4788 32.035936 3411.7574 31.757357 3412.036 31.478779 3412.3387 31.230053 3412.666 31.011179 3412.9937 30.792304 3413.3397 30.607483 3413.7037 30.45672 3414.0677 30.305958 3414.4429 30.192147 3414.8294 30.115288 3415.2159 30.03843 3415.606 30 3416 30Z"/>
<text xml:space="preserve" transform="matrix(.6742756 0 0 .6742756 -2273.0338 25.5)" font-size="12" font-family="Arial"><tspan y="54" x="3434.9844 3442.9884 3446.3243 3452.9964 3456.9925 3460.3284 3463.6644 3471.6683 3478.3404">Start/End</tspan></text>
</g>
</svg>
