<svg xmlns="http://www.w3.org/2000/svg" xmlns:xlink="http://www.w3.org/1999/xlink" xmlns:inkscape="http://www.inkscape.org/namespaces/inkscape" version="1.1" width="612" height="792" viewBox="0 0 612 792">
<defs>
<clipPath id="clip_1">
<path transform="matrix(.24,0,0,.24,0,0)" d="M0 0H2550V3300H0Z" clip-rule="evenodd"/>
</clipPath>
<clipPath id="clip_2">
<path transform="matrix(.24,0,0,.24,0,0)" d="M78.125 103.125H2471.875V3196.875H78.125Z" clip-rule="evenodd"/>
</clipPath>
</defs>
<g clip-path="url(#clip_1)">
<path transform="matrix(.75,0,0,.75,0,-3960)" d="M0 5280H816V6336H0Z" fill="#ffffff"/>
</g>
<g clip-path="url(#clip_2)">
<text xml:space="preserve" transform="matrix(.6742756 0 0 .6742756 -2846.168 25.5)" font-size="18" font-family="Arial" font-weight="bold"><tspan y="31" x="4579.9846 4592.9807 4599.9826 4609.99 4619.998 4625.992 4630.996 4641.994 4652.992 4657.996 4670.992 4681.99 4692.9885 4702.996 4708 4718.998 4729.996 4740.004 4745.008 4756.006 4761.01 4772.008 4786.0119 4796.0197 4807.0178 4817.0256 4824.0275">Creating Bookings Flowchart</tspan></text>
<path transform="matrix(.6742756,0,0,.6742756,-2845.8309,25.837138)" stroke-width="1" stroke-linecap="butt" stroke-miterlimit="10" stroke-linejoin="miter" fill="none" stroke="#000000" d="M4705 120V133.63"/>
<path transform="matrix(.6742756,0,0,.6742756,-2845.8309,25.837138)" d="M4705 138.88 4701.5 131.88 4705 133.63 4708.5 131.88 4705 138.88Z"/>
<path transform="matrix(.6742756,0,0,.6742756,-2845.8309,25.837138)" stroke-width="1" stroke-linecap="butt" stroke-miterlimit="10" stroke-linejoin="miter" fill="none" stroke="#000000" d="M4705 138.88 4701.5 131.88 4705 133.63 4708.5 131.88 4705 138.88Z"/>
<path transform="matrix(.6742756,0,0,.6742756,-2845.8309,25.837138)" d="M4654 60H4756C4756.591 60 4757.176 60.057645 4757.7556 60.17293 4758.335 60.288217 4758.8977 60.45893 4759.4436 60.685079 4759.9899 60.911226 4760.5085 61.188455 4761 61.516767 4761.491 61.845087 4761.946 62.218175 4762.364 62.636037 4762.7814 63.053899 4763.1545 63.508508 4763.4826 63.999864 4763.811 64.49122 4764.0886 65.00987 4764.3146 65.55584 4764.5407 66.10181 4764.7116 66.66459 4764.826 67.24418 4764.942 67.82378 4764.9997 68.40905 4765 69V111C4764.9997 111.59094 4764.942 112.17621 4764.826 112.7558 4764.7116 113.335399 4764.5407 113.89817 4764.3146 114.44414 4764.0886 114.990108 4763.811 115.508769 4763.4826 116.00012 4763.1545 116.49148 4762.7814 116.94608 4762.364 117.36395 4761.946 117.78181 4761.491 118.15489 4761 118.48321 4760.5085 118.81152 4759.9899 119.08876 4759.4436 119.3149 4758.8977 119.541049 4758.335 119.71177 4757.7556 119.82706 4757.176 119.942348 4756.591 119.99999 4756 120H4654C4653.4089 119.99999 4652.8239 119.942348 4652.244 119.82706 4651.6647 119.71177 4651.102 119.541049 4650.5559 119.3149 4650.0095 119.08876 4649.4909 118.81152 4648.9997 118.48321 4648.508 118.15489 4648.053 117.78181 4647.6359 117.36395 4647.218 116.94608 4646.8449 116.49148 4646.516 116.00012 4646.1877 115.508769 4645.9108 114.990108 4645.6848 114.44414 4645.4587 113.89817 4645.2878 113.335399 4645.173 112.7558 4645.057 112.17621 4644.9997 111.59094 4645 111V69C4644.9997 68.40905 4645.057 67.82378 4645.173 67.24418 4645.2878 66.66459 4645.4587 66.10181 4645.6848 65.55584 4645.9108 65.00987 4646.1877 64.49121 4646.516 63.99986 4646.8449 63.508508 4647.218 63.053899 4647.6359 62.636037 4648.053 62.218175 4648.508 61.845087 4648.9997 61.51677 4649.4909 61.188459 4650.0095 60.91123 4650.5559 60.68508 4651.102 60.458936 4651.6647 60.288217 4652.244 60.17293 4652.8239 60.057645 4653.4089 60 4654 60Z" fill="#dae8fc"/>
<path transform="matrix(.6742756,0,0,.6742756,-2845.8309,25.837138)" stroke-width="1" stroke-linecap="butt" stroke-miterlimit="4" stroke-linejoin="miter" fill="none" stroke="#6c8ebf" d="M4654 60H4756C4756.591 60 4757.176 60.057645 4757.7556 60.17293 4758.335 60.288217 4758.8977 60.45893 4759.4436 60.685079 4759.9899 60.911226 4760.5085 61.188455 4761 61.516767 4761.491 61.845087 4761.946 62.218175 4762.364 62.636037 4762.7814 63.053899 4763.1545 63.508508 4763.4826 63.999864 4763.811 64.49122 4764.0886 65.00987 4764.3146 65.55584 4764.5407 66.10181 4764.7116 66.66459 4764.826 67.24418 4764.942 67.82378 4764.9997 68.40905 4765 69V111C4764.9997 111.59094 4764.942 112.17621 4764.826 112.7558 4764.7116 113.335399 4764.5407 113.89817 4764.3146 114.44414 4764.0886 114.990108 4763.811 115.508769 4763.4826 116.00012 4763.1545 116.49148 4762.7814 116.94608 4762.364 117.36395 4761.946 117.78181 4761.491 118.15489 4761 118.48321 4760.5085 118.81152 4759.9899 119.08876 4759.4436 119.3149 4758.8977 119.541049 4758.335 119.71177 4757.7556 119.82706 4757.176 119.942348 4756.591 119.99999 4756 120H4654C4653.4089 119.99999 4652.8239 119.942348 4652.244 119.82706 4651.6647 119.71177 4651.102 119.541049 4650.5559 119.3149 4650.0095 119.08876 4649.4909 118.81152 4648.9997 118.48321 4648.508 118.15489 4648.053 117.78181 4647.6359 117.36395 4647.218 116.94608 4646.8449 116.49148 4646.516 116.00012 4646.1877 115.508769 4645.9108 114.990108 4645.6848 114.44414 4645.4587 113.89817 4645.2878 113.335399 4645.173 112.7558 4645.057 112.17621 4644.9997 111.59094 4645 111V69C4644.9997 68.40905 4645.057 67.82378 4645.173 67.24418 4645.2878 66.66459 4645.4587 66.10181 4645.6848 65.55584 4645.9108 65.00987 4646.1877 64.49121 4646.516 63.99986 4646.8449 63.508508 4647.218 63.053899 4647.6359 62.636037 4648.053 62.218175 4648.508 61.845087 4648.9997 61.51677 4649.4909 61.188459 4650.0095 60.91123 4650.5559 60.68508 4651.102 60.458936 4651.6647 60.288217 4652.244 60.17293 4652.8239 60.057645 4653.4089 60 4654 60Z"/>
<text xml:space="preserve" transform="matrix(.6742756 0 0 .6742756 -2846.168 25.5)" font-size="12" font-family="Arial"><tspan y="80" x="4653.9689 4662.633 4665.297 4667.961 4673.961 4679.961 4683.297 4689.9689 4696.6408 4699.9768 4703.3127 4709.9846 4716.6564 4719.992 4728.6564 4732.6525 4739.324 4745.996 4749.332">Click on the Create</tspan></text>
<text xml:space="preserve" transform="matrix(.6742756 0 0 .6742756 -2846.168 25.5)" font-size="12" font-family="Arial"><tspan y="94" x="4657.953 4665.957 4672.629 4679.301 4685.301 4687.965 4694.6369 4701.3088 4704.6447 4711.3166 4717.9885 4721.324 4724.66 4731.332 4738.004 4741.34 4748.0119">Booking button or</tspan></text>
<text xml:space="preserve" transform="matrix(.6742756 0 0 .6742756 -2846.168 25.5)" font-size="12" font-family="Arial"><tspan y="109" x="4649.6408 4653.6369 4660.3088 4666.9807 4669.6447 4673.6408 4680.3127 4686.3127 4689.6486 4692.9846 4696.3205 4700.3166 4706.9885 4716.9846 4720.3205 4726.992 4730.328 4737 4743.672 4750.3439 4757.0158">redirect from a page.</tspan></text>
<path transform="matrix(.6742756,0,0,.6742756,-2845.8309,25.837138)" stroke-width="1" stroke-linecap="butt" stroke-miterlimit="10" stroke-linejoin="miter" fill="none" stroke="#000000" d="M4830 440H4920V396.37"/>
<path transform="matrix(.6742756,0,0,.6742756,-2845.8309,25.837138)" d="M4920 391.12 4923.5 398.12 4920 396.37 4916.5 398.12 4920 391.12Z"/>
<path transform="matrix(.6742756,0,0,.6742756,-2845.8309,25.837138)" stroke-width="1" stroke-linecap="butt" stroke-miterlimit="10" stroke-linejoin="miter" fill="none" stroke="#000000" d="M4920 391.12 4923.5 398.12 4920 396.37 4916.5 398.12 4920 391.12Z"/>
<path transform="matrix(.6742756,0,0,.6742756,-2845.8309,25.837138)" stroke-width="1" stroke-linecap="butt" stroke-miterlimit="10" stroke-linejoin="miter" fill="none" stroke="#000000" d="M4705 495V518.63"/>
<path transform="matrix(.6742756,0,0,.6742756,-2845.8309,25.837138)" d="M4705 523.88 4701.5 516.88 4705 518.63 4708.5 516.88 4705 523.88Z"/>
<path transform="matrix(.6742756,0,0,.6742756,-2845.8309,25.837138)" stroke-width="1" stroke-linecap="butt" stroke-miterlimit="10" stroke-linejoin="miter" fill="none" stroke="#000000" d="M4705 523.88 4701.5 516.88 4705 518.63 4708.5 516.88 4705 523.88Z"/>
<path transform="matrix(.6742756,0,0,.6742756,-2845.8309,25.837138)" d="M4705 385 4830 440 4705 495 4580 440 4705 385Z" fill="#f8cecc"/>
<path transform="matrix(.6742756,0,0,.6742756,-2845.8309,25.837138)" stroke-width="1" stroke-linecap="butt" stroke-miterlimit="10" stroke-linejoin="miter" fill="none" stroke="#b85450" d="M4705 385 4830 440 4705 495 4580 440 4705 385Z"/>
<text xml:space="preserve" transform="matrix(.6742756 0 0 .6742756 -2846.168 25.5)" font-size="12" font-family="Arial"><tspan y="437" x="4586.2658 4594.9299 4601.6018 4608.2736 4614.2736 4617.6096 4620.9455 4627.617 4634.289 4637.625 4644.297 4650.9689 4654.3049 4660.9768 4664.3127 4670.9846 4677.6564 4683.6564 4689.6564 4692.992 4699.664 4702.328 4704.992 4708.328 4714.328 4721 4723.664 4726.328 4733 4739.672 4743.008 4745.672 4752.3439 4759.0158 4762.3518 4766.3479 4773.0197 4775.6838 4782.3557 4788.3557 4791.6916 4797.6916 4804.3635 4807.699 4811.035 4817.707">Does the data pass all validation rules set by</tspan></text>
<text xml:space="preserve" transform="matrix(.6742756 0 0 .6742756 -2846.168 25.5)" font-size="12" font-family="Arial"><tspan y="452" x="4669.3127 4672.6486 4679.3205 4685.992 4689.328 4696 4699.996 4706.668 4713.34 4717.336 4724.008 4734.004">the program?</tspan></text>
<path transform="matrix(.6742756,0,0,.6742756,-2845.8309,25.837138)" stroke-width="1" stroke-linecap="butt" stroke-miterlimit="10" stroke-linejoin="miter" fill="none" stroke="#000000" d="M4920 330V130H4716.37"/>
<path transform="matrix(.6742756,0,0,.6742756,-2845.8309,25.837138)" d="M4711.12 130 4718.12 126.5 4716.37 130 4718.12 133.5 4711.12 130Z"/>
<path transform="matrix(.6742756,0,0,.6742756,-2845.8309,25.837138)" stroke-width="1" stroke-linecap="butt" stroke-miterlimit="10" stroke-linejoin="miter" fill="none" stroke="#000000" d="M4711.12 130 4718.12 126.5 4716.37 130 4718.12 133.5 4711.12 130Z"/>
<path transform="matrix(.6742756,0,0,.6742756,-2845.8309,25.837138)" d="M4850 390 4870 330H4990L4970 390H4850Z" fill="#fff2cc"/>
<path transform="matrix(.6742756,0,0,.6742756,-2845.8309,25.837138)" stroke-width="1" stroke-linecap="butt" stroke-miterlimit="10" stroke-linejoin="miter" fill="none" stroke="#d6b656" d="M4850 390 4870 330H4990L4970 390H4850Z"/>
<text xml:space="preserve" transform="matrix(.6742756 0 0 .6742756 -2846.168 25.5)" font-size="12" font-family="Arial"><tspan y="350" x="4871.6408 4880.9768 4887.6486 4890.9846 4897.6564 4904.328 4907.664 4911 4919.664 4922.328 4929 4935.672 4939.668 4943.004 4949.676 4953.672 4957.668 4964.34">Output Clear error</tspan></text>
<text xml:space="preserve" transform="matrix(.6742756 0 0 .6742756 -2846.168 25.5)" font-size="12" font-family="Arial"><tspan y="364" x="4862.297 4872.293 4878.965 4884.965 4890.965 4897.6369 4904.3088 4910.9807 4914.3166 4920.9885 4927.66 4933.66 4936.996 4940.332 4943.668 4950.34 4953.676 4957.0119 4963.6838 4967.6799">message next to form</tspan></text>
<text xml:space="preserve" transform="matrix(.6742756 0 0 .6742756 -2846.168 25.5)" font-size="12" font-family="Arial"><tspan y="379" x="4910.3127 4916.9846 4923.6564">box</tspan></text>
<text xml:space="preserve" transform="matrix(.6742756 0 0 .6742756 -2846.168 25.5)" font-size="12" font-family="Arial"><tspan y="459" x="4834.328 4841.66 4848.332 4850.996 4856.996">False</tspan></text>
<path transform="matrix(.6742756,0,0,.6742756,-2845.8309,25.837138)" stroke-width="1" stroke-linecap="butt" stroke-miterlimit="10" stroke-linejoin="miter" fill="none" stroke="#000000" d="M4705 585V613.63"/>
<path transform="matrix(.6742756,0,0,.6742756,-2845.8309,25.837138)" d="M4705 618.88 4701.5 611.88 4705 613.63 4708.5 611.88 4705 618.88Z"/>
<path transform="matrix(.6742756,0,0,.6742756,-2845.8309,25.837138)" stroke-width="1" stroke-linecap="butt" stroke-miterlimit="10" stroke-linejoin="miter" fill="none" stroke="#000000" d="M4705 618.88 4701.5 611.88 4705 613.63 4708.5 611.88 4705 618.88Z"/>
<path transform="matrix(.6742756,0,0,.6742756,-2845.8309,25.837138)" d="M4645 525H4765V585H4645Z" fill="#ffe6cc"/>
<path transform="matrix(.6742756,0,0,.6742756,-2845.8309,25.837138)" stroke-width="1" stroke-linecap="butt" stroke-miterlimit="4" stroke-linejoin="miter" fill="none" stroke="#d79b00" d="M4645 525H4765V585H4645Z"/>
<text xml:space="preserve" transform="matrix(.6742756 0 0 .6742756 -2846.168 25.5)" font-size="12" font-family="Arial"><tspan y="559" x="4647.4064 4655.41 4664.746 4672.75 4679.8615 4683.1975 4691.8615 4695.8576 4702.5295 4709.201 4712.537 4719.209 4727.213 4733.885 4740.5568 4746.5568 4749.2209 4755.8928">POST CreateBooking</tspan></text>
<path transform="matrix(.6742756,0,0,.6742756,-2845.8309,25.837138)" stroke-width="1" stroke-linecap="butt" stroke-miterlimit="10" stroke-linejoin="miter" fill="none" stroke="#000000" d="M4530 605H4587.5V650H4638.63"/>
<path transform="matrix(.6742756,0,0,.6742756,-2845.8309,25.837138)" d="M4643.88 650 4636.88 653.5 4638.63 650 4636.88 646.5 4643.88 650Z"/>
<path transform="matrix(.6742756,0,0,.6742756,-2845.8309,25.837138)" stroke-width="1" stroke-linecap="butt" stroke-miterlimit="10" stroke-linejoin="miter" fill="none" stroke="#000000" d="M4643.88 650 4636.88 653.5 4638.63 650 4636.88 646.5 4643.88 650Z"/>
<path transform="matrix(.6742756,0,0,.6742756,-2845.8309,25.837138)" stroke-width="1" stroke-linecap="butt" stroke-miterlimit="10" stroke-linejoin="miter" fill="none" stroke="#000000" d="M4460 645V750H4613.63"/>
<path transform="matrix(.6742756,0,0,.6742756,-2845.8309,25.837138)" d="M4618.88 750 4611.88 753.5 4613.63 750 4611.88 746.5 4618.88 750Z"/>
<path transform="matrix(.6742756,0,0,.6742756,-2845.8309,25.837138)" stroke-width="1" stroke-linecap="butt" stroke-miterlimit="10" stroke-linejoin="miter" fill="none" stroke="#000000" d="M4618.88 750 4611.88 753.5 4613.63 750 4611.88 746.5 4618.88 750Z"/>
<path transform="matrix(.6742756,0,0,.6742756,-2845.8309,25.837138)" stroke-width="1" stroke-linecap="butt" stroke-miterlimit="10" stroke-linejoin="miter" fill="none" stroke="#000000" d="M4460 515V170H4638.63"/>
<path transform="matrix(.6742756,0,0,.6742756,-2845.8309,25.837138)" d="M4643.88 170 4636.88 173.5 4638.63 170 4636.88 166.5 4643.88 170Z"/>
<path transform="matrix(.6742756,0,0,.6742756,-2845.8309,25.837138)" stroke-width="1" stroke-linecap="butt" stroke-miterlimit="10" stroke-linejoin="miter" fill="none" stroke="#000000" d="M4643.88 170 4636.88 173.5 4638.63 170 4636.88 166.5 4643.88 170Z"/>
<path transform="matrix(.6742756,0,0,.6742756,-2845.8309,25.837138)" stroke-width="1" stroke-linecap="butt" stroke-miterlimit="10" stroke-linejoin="miter" fill="none" stroke="#000000" d="M4460 515V255H4638.63"/>
<path transform="matrix(.6742756,0,0,.6742756,-2845.8309,25.837138)" d="M4643.88 255 4636.88 258.5 4638.63 255 4636.88 251.5 4643.88 255Z"/>
<path transform="matrix(.6742756,0,0,.6742756,-2845.8309,25.837138)" stroke-width="1" stroke-linecap="butt" stroke-miterlimit="10" stroke-linejoin="miter" fill="none" stroke="#000000" d="M4643.88 255 4636.88 258.5 4638.63 255 4636.88 251.5 4643.88 255Z"/>
<path transform="matrix(.6742756,0,0,.6742756,-2845.8309,25.837138)" stroke-width="1" stroke-linecap="butt" stroke-miterlimit="10" stroke-linejoin="miter" fill="none" stroke="#000000" d="M4460 515V330H4638.63"/>
<path transform="matrix(.6742756,0,0,.6742756,-2845.8309,25.837138)" d="M4643.88 330 4636.88 333.5 4638.63 330 4636.88 326.5 4643.88 330Z"/>
<path transform="matrix(.6742756,0,0,.6742756,-2845.8309,25.837138)" stroke-width="1" stroke-linecap="butt" stroke-miterlimit="10" stroke-linejoin="miter" fill="none" stroke="#000000" d="M4643.88 330 4636.88 333.5 4638.63 330 4636.88 326.5 4643.88 330Z"/>
<path transform="matrix(.6742756,0,0,.6742756,-2845.8309,25.837138)" stroke-width="1" stroke-linecap="butt" stroke-miterlimit="10" stroke-linejoin="miter" fill="none" stroke="#000000" d="M4410.3 640.65V950H4608.63"/>
<path transform="matrix(.6742756,0,0,.6742756,-2845.8309,25.837138)" d="M4613.88 950 4606.88 953.5 4608.63 950 4606.88 946.5 4613.88 950Z"/>
<path transform="matrix(.6742756,0,0,.6742756,-2845.8309,25.837138)" stroke-width="1" stroke-linecap="butt" stroke-miterlimit="10" stroke-linejoin="miter" fill="none" stroke="#000000" d="M4613.88 950 4606.88 953.5 4608.63 950 4606.88 946.5 4613.88 950Z"/>
<path transform="matrix(.6742756,0,0,.6742756,-2845.8309,25.837138)" d="M4390 530C4390 521.72 4421.34 515 4460 515 4478.57 515 4496.37 516.58 4509.5 519.39 4522.63 522.21 4530 526.02 4530 530V630C4530 638.28 4498.66 645 4460 645 4421.34 645 4390 638.28 4390 630V530Z" fill="#e1d5e7"/>
<path transform="matrix(.6742756,0,0,.6742756,-2845.8309,25.837138)" stroke-width="1" stroke-linecap="butt" stroke-miterlimit="10" stroke-linejoin="miter" fill="none" stroke="#9673a6" d="M4390 530C4390 521.72 4421.34 515 4460 515 4478.57 515 4496.37 516.58 4509.5 519.39 4522.63 522.21 4530 526.02 4530 530V630C4530 638.28 4498.66 645 4460 645 4421.34 645 4390 638.28 4390 630V530Z"/>
<path transform="matrix(.6742756,0,0,.6742756,-2845.8309,25.837138)" stroke-width="1" stroke-linecap="butt" stroke-miterlimit="10" stroke-linejoin="miter" fill="none" stroke="#9673a6" d="M4530 530C4530 538.28 4498.66 545 4460 545 4421.34 545 4390 538.28 4390 530"/>
<text xml:space="preserve" transform="matrix(.6742756 0 0 .6742756 -2846.168 25.5)" font-size="12" font-family="Arial"><tspan y="597" x="4402.297 4410.301 4416.9729 4423.6447 4426.3088 4428.9729 4434.9729 4441.6447 4444.9807 4447.6447 4454.3166 4460.9885 4469.6525 4476.324 4484.9885 4491.66 4498.332 4501.668 4508.34 4514.34">ApplicationDbContext</tspan></text>
<path transform="matrix(.6742756,0,0,.6742756,-2845.8309,25.837138)" stroke-width="1" stroke-linecap="butt" stroke-miterlimit="10" stroke-linejoin="miter" fill="none" stroke="#000000" d="M4645 555H4536.37"/>
<path transform="matrix(.6742756,0,0,.6742756,-2845.8309,25.837138)" d="M4531.12 555 4538.12 551.5 4536.37 555 4538.12 558.5 4531.12 555Z"/>
<path transform="matrix(.6742756,0,0,.6742756,-2845.8309,25.837138)" stroke-width="1" stroke-linecap="butt" stroke-miterlimit="10" stroke-linejoin="miter" fill="none" stroke="#000000" d="M4531.12 555 4538.12 551.5 4536.37 555 4538.12 558.5 4531.12 555Z"/>
<path transform="matrix(.6742756,0,0,.6742756,-2845.8309,25.837138)" stroke-width="1" stroke-linecap="butt" stroke-miterlimit="10" stroke-linejoin="miter" fill="none" stroke="#000000" d="M4705 680V703.63"/>
<path transform="matrix(.6742756,0,0,.6742756,-2845.8309,25.837138)" d="M4705 708.88 4701.5 701.88 4705 703.63 4708.5 701.88 4705 708.88Z"/>
<path transform="matrix(.6742756,0,0,.6742756,-2845.8309,25.837138)" stroke-width="1" stroke-linecap="butt" stroke-miterlimit="10" stroke-linejoin="miter" fill="none" stroke="#000000" d="M4705 708.88 4701.5 701.88 4705 703.63 4708.5 701.88 4705 708.88Z"/>
<path transform="matrix(.6742756,0,0,.6742756,-2845.8309,25.837138)" d="M4645 620H4765V680H4645Z" fill="#ffe6cc"/>
<path transform="matrix(.6742756,0,0,.6742756,-2845.8309,25.837138)" stroke-width="1" stroke-linecap="butt" stroke-miterlimit="4" stroke-linejoin="miter" fill="none" stroke="#d79b00" d="M4645 620H4765V680H4645Z"/>
<text xml:space="preserve" transform="matrix(.6742756 0 0 .6742756 -2846.168 25.5)" font-size="12" font-family="Arial"><tspan y="647" x="4659.297 4667.961 4674.633 4684.629 4691.301 4697.9729 4701.9689 4708.6408 4711.9768 4720.6408 4727.3127 4730.6486 4737.3205 4740.6564 4743.992">Compare Data to</tspan></text>
<text xml:space="preserve" transform="matrix(.6742756 0 0 .6742756 -2846.168 25.5)" font-size="12" font-family="Arial"><tspan y="662" x="4662.9689 4669.6408 4675.6408 4678.3049 4684.3049 4687.6408 4690.3049 4696.9768 4703.6486 4706.9846 4710.9807 4717.6525 4723.6525 4730.324 4734.3205 4740.992">existing records</tspan></text>
<path transform="matrix(.6742756,0,0,.6742756,-2845.8309,25.837138)" stroke-width="1" stroke-linecap="butt" stroke-miterlimit="10" stroke-linejoin="miter" fill="none" stroke="#000000" d="M4705 790V818.63"/>
<path transform="matrix(.6742756,0,0,.6742756,-2845.8309,25.837138)" d="M4705 823.88 4701.5 816.88 4705 818.63 4708.5 816.88 4705 823.88Z"/>
<path transform="matrix(.6742756,0,0,.6742756,-2845.8309,25.837138)" stroke-width="1" stroke-linecap="butt" stroke-miterlimit="10" stroke-linejoin="miter" fill="none" stroke="#000000" d="M4705 823.88 4701.5 816.88 4705 818.63 4708.5 816.88 4705 823.88Z"/>
<path transform="matrix(.6742756,0,0,.6742756,-2845.8309,25.837138)" d="M4705 710 4790 750 4705 790 4620 750 4705 710Z" fill="#f8cecc"/>
<path transform="matrix(.6742756,0,0,.6742756,-2845.8309,25.837138)" stroke-width="1" stroke-linecap="butt" stroke-miterlimit="10" stroke-linejoin="miter" fill="none" stroke="#b85450" d="M4705 710 4790 750 4705 790 4620 750 4705 710Z"/>
<text xml:space="preserve" transform="matrix(.6742756 0 0 .6742756 -2846.168 25.5)" font-size="12" font-family="Arial"><tspan y="754" x="4636.9689 4645.633 4652.3049 4658.9768 4664.9768 4668.3127 4672.3088 4678.9807 4685.6525 4695.6486 4698.9846 4705.6564 4708.3205 4712.3166 4718.9885 4725.66 4732.332 4738.332 4741.668 4748.34 4754.34 4757.004 4763.004 4766.34">Does room already exist?</tspan></text>
<text xml:space="preserve" transform="matrix(.6742756 0 0 .6742756 -2846.168 25.5)" font-size="12" font-family="Arial"><tspan y="739" x="4797.875 4804.76 4808.756 4815.4279">True</tspan></text>
<text xml:space="preserve" transform="matrix(.6742756 0 0 .6742756 -2846.168 25.5)" font-size="12" font-family="Arial"><tspan y="809" x="4720.328 4727.66 4734.332 4736.996 4742.996">False</tspan></text>
<path transform="matrix(.6742756,0,0,.6742756,-2845.8309,25.837138)" stroke-width="1" stroke-linecap="butt" stroke-miterlimit="10" stroke-linejoin="miter" fill="none" stroke="#000000" d="M4705 990V1025H4526.37"/>
<path transform="matrix(.6742756,0,0,.6742756,-2845.8309,25.837138)" d="M4521.12 1025 4528.12 1021.5 4526.37 1025 4528.12 1028.5 4521.12 1025Z"/>
<path transform="matrix(.6742756,0,0,.6742756,-2845.8309,25.837138)" stroke-width="1" stroke-linecap="butt" stroke-miterlimit="10" stroke-linejoin="miter" fill="none" stroke="#000000" d="M4521.12 1025 4528.12 1021.5 4526.37 1025 4528.12 1028.5 4521.12 1025Z"/>
<path transform="matrix(.6742756,0,0,.6742756,-2845.8309,25.837138)" d="M4705 910 4795 950 4705 990 4615 950 4705 910Z" fill="#f8cecc"/>
<path transform="matrix(.6742756,0,0,.6742756,-2845.8309,25.837138)" stroke-width="1" stroke-linecap="butt" stroke-miterlimit="10" stroke-linejoin="miter" fill="none" stroke="#b85450" d="M4705 910 4795 950 4705 990 4615 950 4705 910Z"/>
<text xml:space="preserve" transform="matrix(.6742756 0 0 .6742756 -2846.168 25.5)" font-size="12" font-family="Arial"><tspan y="954" x="4648.297 4656.961 4663.633 4670.3049 4676.3049 4679.6408 4682.9768 4689.6486 4696.3205 4699.6564 4703.6525 4710.324 4716.996 4726.992 4730.328 4737 4743 4745.664 4751.664 4755">Does the room exist?</tspan></text>
<path transform="matrix(.6742756,0,0,.6742756,-2845.8309,25.837138)" stroke-width="1" stroke-linecap="butt" stroke-miterlimit="10" stroke-linejoin="miter" fill="none" stroke="#000000" d="M4705 885V903.63"/>
<path transform="matrix(.6742756,0,0,.6742756,-2845.8309,25.837138)" d="M4705 908.88 4701.5 901.88 4705 903.63 4708.5 901.88 4705 908.88Z"/>
<path transform="matrix(.6742756,0,0,.6742756,-2845.8309,25.837138)" stroke-width="1" stroke-linecap="butt" stroke-miterlimit="10" stroke-linejoin="miter" fill="none" stroke="#000000" d="M4705 908.88 4701.5 901.88 4705 903.63 4708.5 901.88 4705 908.88Z"/>
<path transform="matrix(.6742756,0,0,.6742756,-2845.8309,25.837138)" d="M4645 825H4765V885H4645Z" fill="#ffe6cc"/>
<path transform="matrix(.6742756,0,0,.6742756,-2845.8309,25.837138)" stroke-width="1" stroke-linecap="butt" stroke-miterlimit="4" stroke-linejoin="miter" fill="none" stroke="#d79b00" d="M4645 825H4765V885H4645Z"/>
<text xml:space="preserve" transform="matrix(.6742756 0 0 .6742756 -2846.168 25.5)" font-size="12" font-family="Arial"><tspan y="845" x="4671.0939 4679.0979 4688.4338 4696.4377 4703.549 4706.885 4715.549 4722.2209 4728.8928">POST Room</tspan></text>
<text xml:space="preserve" transform="matrix(.6742756 0 0 .6742756 -2846.168 25.5)" font-size="12" font-family="Arial"><tspan y="859" x="4654.6408 4657.9768 4664.6486 4667.9846 4674.6564 4678.6525 4688.6486 4695.3205 4698.6564 4701.3205 4707.992 4714.664 4718 4721.336 4728.008 4731.3439 4739.3479 4748.6838">Information to SQL</tspan></text>
<text xml:space="preserve" transform="matrix(.6742756 0 0 .6742756 -2846.168 25.5)" font-size="12" font-family="Arial"><tspan y="874" x="4685.9846 4693.9885 4700.66 4704.6564 4710.6564 4717.328 4720.666">Server.</tspan></text>
<path transform="matrix(.6742756,0,0,.6742756,-2845.8309,25.837138)" stroke-width="1" stroke-linecap="butt" stroke-miterlimit="10" stroke-linejoin="miter" fill="none" stroke="#000000" d="M4620 750H4460V651.37"/>
<path transform="matrix(.6742756,0,0,.6742756,-2845.8309,25.837138)" d="M4460 646.12 4463.5 653.12 4460 651.37 4456.5 653.12 4460 646.12Z"/>
<path transform="matrix(.6742756,0,0,.6742756,-2845.8309,25.837138)" stroke-width="1" stroke-linecap="butt" stroke-miterlimit="10" stroke-linejoin="miter" fill="none" stroke="#000000" d="M4460 646.12 4463.5 653.12 4460 651.37 4456.5 653.12 4460 646.12Z"/>
<path transform="matrix(.6742756,0,0,.6742756,-2845.8309,25.837138)" stroke-width="1" stroke-linecap="butt" stroke-miterlimit="10" stroke-linejoin="miter" fill="none" stroke="#000000" d="M4795 950H4969.3L4969.28 398.95"/>
<path transform="matrix(.6742756,0,0,.6742756,-2845.8309,25.837138)" d="M4969.28 393.7 4972.78 400.7 4969.28 398.95 4965.78 400.7 4969.28 393.7Z"/>
<path transform="matrix(.6742756,0,0,.6742756,-2845.8309,25.837138)" stroke-width="1" stroke-linecap="butt" stroke-miterlimit="10" stroke-linejoin="miter" fill="none" stroke="#000000" d="M4969.28 393.7 4972.78 400.7 4969.28 398.95 4965.78 400.7 4969.28 393.7Z"/>
<path transform="matrix(.6742756,0,0,.6742756,-2845.8309,25.837138)" stroke-width="1" stroke-linecap="butt" stroke-miterlimit="10" stroke-linejoin="miter" fill="none" stroke="#000000" d="M4790 750H4946L4946.04 398.95"/>
<path transform="matrix(.6742756,0,0,.6742756,-2845.8309,25.837138)" d="M4946.04 393.7 4949.54 400.7 4946.04 398.95 4942.54 400.7 4946.04 393.7Z"/>
<path transform="matrix(.6742756,0,0,.6742756,-2845.8309,25.837138)" stroke-width="1" stroke-linecap="butt" stroke-miterlimit="10" stroke-linejoin="miter" fill="none" stroke="#000000" d="M4946.04 393.7 4949.54 400.7 4946.04 398.95 4942.54 400.7 4946.04 393.7Z"/>
<text xml:space="preserve" transform="matrix(.6742756 0 0 .6742756 -2846.168 25.5)" font-size="12" font-family="Arial"><tspan y="934" x="4795.328 4802.66 4809.332 4811.996 4817.996">False</tspan></text>
<text xml:space="preserve" transform="matrix(.6742756 0 0 .6742756 -2846.168 25.5)" font-size="12" font-family="Arial"><tspan y="1004" x="4727.875 4734.76 4738.756 4745.4279">True</tspan></text>
<path transform="matrix(.6742756,0,0,.6742756,-2845.8309,25.837138)" stroke-width="1" stroke-linecap="butt" stroke-miterlimit="10" stroke-linejoin="miter" fill="none" stroke="#000000" d="M4380 1025H4315V976.37"/>
<path transform="matrix(.6742756,0,0,.6742756,-2845.8309,25.837138)" d="M4315 971.12 4318.5 978.12 4315 976.37 4311.5 978.12 4315 971.12Z"/>
<path transform="matrix(.6742756,0,0,.6742756,-2845.8309,25.837138)" stroke-width="1" stroke-linecap="butt" stroke-miterlimit="10" stroke-linejoin="miter" fill="none" stroke="#000000" d="M4315 971.12 4318.5 978.12 4315 976.37 4311.5 978.12 4315 971.12Z"/>
<path transform="matrix(.6742756,0,0,.6742756,-2845.8309,25.837138)" d="M4370 1055 4390 995H4530L4510 1055H4370Z" fill="#fff2cc"/>
<path transform="matrix(.6742756,0,0,.6742756,-2845.8309,25.837138)" stroke-width="1" stroke-linecap="butt" stroke-miterlimit="10" stroke-linejoin="miter" fill="none" stroke="#d6b656" d="M4370 1055 4390 995H4530L4510 1055H4370Z"/>
<text xml:space="preserve" transform="matrix(.6742756 0 0 .6742756 -2846.168 25.5)" font-size="12" font-family="Arial"><tspan y="1022" x="4371.953 4381.289 4387.961 4391.297 4397.9689 4404.6408 4407.9768 4411.3127 4419.3166 4425.9885 4431.9885 4437.9885 4444.66 4450.66 4456.66 4459.996 4466.668 4473.34 4480.0119 4483.3479 4487.3439 4494.0158 4497.3518 4504.0236 4508.0197 4514.6916 4518.0275 4521.3635">Output Success and return to</tspan></text>
<text xml:space="preserve" transform="matrix(.6742756 0 0 .6742756 -2846.168 25.5)" font-size="12" font-family="Arial"><tspan y="1037" x="4435.3127 4438.6486 4445.3205 4451.992 4458.664">Index</tspan></text>
<path transform="matrix(.6742756,0,0,.6742756,-2845.8309,25.837138)" d="M4276 930H4354C4354.394 930 4354.784 930.0384 4355.1706 930.11526 4355.5568 930.1921 4355.9318 930.30587 4356.2956 930.45669 4356.659 930.6075 4357.005 930.7923 4357.3327 931.0111 4357.66 931.23 4357.9636 931.4787 4358.242 931.7573 4358.5207 932.0359 4358.769 932.3389 4358.9885 932.6665 4359.2067 932.994 4359.3918 933.3398 4359.5427 933.7038 4359.6936 934.06777 4359.807 934.44296 4359.8845 934.82937 4359.9616 935.21578 4360 935.606 4360 936V964C4360 964.3939 4359.9616 964.78408 4359.8845 965.1704 4359.807 965.5569 4359.6936 965.93209 4359.5427 966.296 4359.3918 966.66 4359.2067 967.00576 4358.9885 967.3333 4358.769 967.6609 4358.5207 967.9639 4358.242 968.24258 4357.9636 968.5212 4357.66 968.7699 4357.3327 968.9888 4357.005 969.20767 4356.659 969.39248 4356.2956 969.54318 4355.9318 969.6939 4355.5568 969.80776 4355.1706 969.8846 4354.784 969.9614 4354.394 969.99996 4354 970H4276C4275.606 969.99996 4275.2155 969.9614 4274.829 969.8846 4274.4426 969.80776 4274.067 969.6939 4273.703 969.54318 4273.3395 969.39248 4272.993 969.20767 4272.6657 968.9887 4272.338 968.7699 4272.035 968.5212 4271.757 968.24258 4271.478 967.9639 4271.2297 967.6609 4271.0109 967.3333 4270.7917 967.0057 4270.607 966.6599 4270.456 966.29598 4270.305 965.932 4270.191 965.5568 4270.1145 965.1705 4270.0378 964.78408 4269.9997 964.3939 4270 964V936C4269.9997 935.606 4270.0378 935.21578 4270.1145 934.82937 4270.191 934.44296 4270.305 934.06777 4270.456 933.7038 4270.607 933.3398 4270.7917 932.994 4271.0109 932.6665 4271.2297 932.3389 4271.478 932.0359 4271.757 931.7573 4272.035 931.4787 4272.338 931.23 4272.6657 931.01107 4272.993 930.79226 4273.3395 930.6075 4273.703 930.45669 4274.067 930.30587 4274.4426 930.1921 4274.829 930.11526 4275.2155 930.0384 4275.606 930 4276 930Z" fill="#dae8fc"/>
<path transform="matrix(.6742756,0,0,.6742756,-2845.8309,25.837138)" stroke-width="1" stroke-linecap="butt" stroke-miterlimit="4" stroke-linejoin="miter" fill="none" stroke="#6c8ebf" d="M4276 930H4354C4354.394 930 4354.784 930.0384 4355.1706 930.11526 4355.5568 930.1921 4355.9318 930.30587 4356.2956 930.45669 4356.659 930.6075 4357.005 930.7923 4357.3327 931.0111 4357.66 931.23 4357.9636 931.4787 4358.242 931.7573 4358.5207 932.0359 4358.769 932.3389 4358.9885 932.6665 4359.2067 932.994 4359.3918 933.3398 4359.5427 933.7038 4359.6936 934.06777 4359.807 934.44296 4359.8845 934.82937 4359.9616 935.21578 4360 935.606 4360 936V964C4360 964.3939 4359.9616 964.78408 4359.8845 965.1704 4359.807 965.5569 4359.6936 965.93209 4359.5427 966.296 4359.3918 966.66 4359.2067 967.00576 4358.9885 967.3333 4358.769 967.6609 4358.5207 967.9639 4358.242 968.24258 4357.9636 968.5212 4357.66 968.7699 4357.3327 968.9888 4357.005 969.20767 4356.659 969.39248 4356.2956 969.54318 4355.9318 969.6939 4355.5568 969.80776 4355.1706 969.8846 4354.784 969.9614 4354.394 969.99996 4354 970H4276C4275.606 969.99996 4275.2155 969.9614 4274.829 969.8846 4274.4426 969.80776 4274.067 969.6939 4273.703 969.54318 4273.3395 969.39248 4272.993 969.20767 4272.6657 968.9887 4272.338 968.7699 4272.035 968.5212 4271.757 968.24258 4271.478 967.9639 4271.2297 967.6609 4271.0109 967.3333 4270.7917 967.0057 4270.607 966.6599 4270.456 966.29598 4270.305 965.932 4270.191 965.5568 4270.1145 965.1705 4270.0378 964.78408 4269.9997 964.3939 4270 964V936C4269.9997 935.606 4270.0378 935.21578 4270.1145 934.82937 4270.191 934.44296 4270.305 934.06777 4270.456 933.7038 4270.607 933.3398 4270.7917 932.994 4271.0109 932.6665 4271.2297 932.3389 4271.478 932.0359 4271.757 931.7573 4272.035 931.4787 4272.338 931.23 4272.6657 931.01107 4272.993 930.79226 4273.3395 930.6075 4273.703 930.45669 4274.067 930.30587 4274.4426 930.1921 4274.829 930.11526 4275.2155 930.0384 4275.606 930 4276 930Z"/>
<text xml:space="preserve" transform="matrix(.6742756 0 0 .6742756 -2846.168 25.5)" font-size="12" font-family="Arial"><tspan y="954" x="4304.3127 4312.3166 4318.9885">End</tspan></text>
<path transform="matrix(.6742756,0,0,.6742756,-2845.8309,25.837138)" stroke-width="1" stroke-linecap="butt" stroke-miterlimit="10" stroke-linejoin="miter" fill="none" stroke="#000000" d="M4645 855H4439.6L4439.56 650.33"/>
<path transform="matrix(.6742756,0,0,.6742756,-2845.8309,25.837138)" d="M4439.56 645.08 4443.06 652.08 4439.56 650.33 4436.06 652.08 4439.56 645.08Z"/>
<path transform="matrix(.6742756,0,0,.6742756,-2845.8309,25.837138)" stroke-width="1" stroke-linecap="butt" stroke-miterlimit="10" stroke-linejoin="miter" fill="none" stroke="#000000" d="M4439.56 645.08 4443.06 652.08 4439.56 650.33 4436.06 652.08 4439.56 645.08Z"/>
<path transform="matrix(.6742756,0,0,.6742756,-2845.8309,25.837138)" stroke-width="1" stroke-linecap="butt" stroke-miterlimit="10" stroke-linejoin="miter" fill="none" stroke="#000000" d="M4615 950H4410.3V647.02"/>
<path transform="matrix(.6742756,0,0,.6742756,-2845.8309,25.837138)" d="M4410.3 641.77 4413.8 648.77 4410.3 647.02 4406.8 648.77 4410.3 641.77Z"/>
<path transform="matrix(.6742756,0,0,.6742756,-2845.8309,25.837138)" stroke-width="1" stroke-linecap="butt" stroke-miterlimit="10" stroke-linejoin="miter" fill="none" stroke="#000000" d="M4410.3 641.77 4413.8 648.77 4410.3 647.02 4406.8 648.77 4410.3 641.77Z"/>
<path transform="matrix(.6742756,0,0,.6742756,-2845.8309,25.837138)" stroke-width="1" stroke-linecap="butt" stroke-miterlimit="10" stroke-linejoin="miter" fill="none" stroke="#000000" d="M4705 200V218.63"/>
<path transform="matrix(.6742756,0,0,.6742756,-2845.8309,25.837138)" d="M4705 223.88 4701.5 216.88 4705 218.63 4708.5 216.88 4705 223.88Z"/>
<path transform="matrix(.6742756,0,0,.6742756,-2845.8309,25.837138)" stroke-width="1" stroke-linecap="butt" stroke-miterlimit="10" stroke-linejoin="miter" fill="none" stroke="#000000" d="M4705 223.88 4701.5 216.88 4705 218.63 4708.5 216.88 4705 223.88Z"/>
<path transform="matrix(.6742756,0,0,.6742756,-2845.8309,25.837138)" d="M4645 140H4765V200H4645Z" fill="#ffe6cc"/>
<path transform="matrix(.6742756,0,0,.6742756,-2845.8309,25.837138)" stroke-width="1" stroke-linecap="butt" stroke-miterlimit="4" stroke-linejoin="miter" fill="none" stroke="#d79b00" d="M4645 140H4765V200H4645Z"/>
<text xml:space="preserve" transform="matrix(.6742756 0 0 .6742756 -2846.168 25.5)" font-size="12" font-family="Arial"><tspan y="167" x="4659.7658 4669.1018 4677.1057 4684.217 4687.5529 4696.217 4702.217 4708.8889 4712.885 4716.2209 4722.8928 4726.2287 4729.5646 4733.5607 4740.2326">GET UserId from</tspan></text>
<text xml:space="preserve" transform="matrix(.6742756 0 0 .6742756 -2846.168 25.5)" font-size="12" font-family="Arial"><tspan y="182" x="4657.9689 4664.6408 4671.3127 4677.9846 4681.3205 4689.324 4695.324 4701.996 4710.66 4717.332 4720.668 4729.332 4735.332 4742.004 4746">dbo.AspNetUsers</tspan></text>
<path transform="matrix(.6742756,0,0,.6742756,-2845.8309,25.837138)" stroke-width="1" stroke-linecap="butt" stroke-miterlimit="10" stroke-linejoin="miter" fill="none" stroke="#000000" d="M4705 285V293.63"/>
<path transform="matrix(.6742756,0,0,.6742756,-2845.8309,25.837138)" d="M4705 298.88 4701.5 291.88 4705 293.63 4708.5 291.88 4705 298.88Z"/>
<path transform="matrix(.6742756,0,0,.6742756,-2845.8309,25.837138)" stroke-width="1" stroke-linecap="butt" stroke-miterlimit="10" stroke-linejoin="miter" fill="none" stroke="#000000" d="M4705 298.88 4701.5 291.88 4705 293.63 4708.5 291.88 4705 298.88Z"/>
<path transform="matrix(.6742756,0,0,.6742756,-2845.8309,25.837138)" d="M4645 225H4765V285H4645Z" fill="#ffe6cc"/>
<path transform="matrix(.6742756,0,0,.6742756,-2845.8309,25.837138)" stroke-width="1" stroke-linecap="butt" stroke-miterlimit="4" stroke-linejoin="miter" fill="none" stroke="#d79b00" d="M4645 225H4765V285H4645Z"/>
<text xml:space="preserve" transform="matrix(.6742756 0 0 .6742756 -2846.168 25.5)" font-size="12" font-family="Arial"><tspan y="259" x="4656.078 4665.414 4673.418 4680.5295 4683.865 4690.537 4697.209 4703.881 4706.545 4712.545 4715.881 4724.545 4731.217 4737.8889 4747.885">GET publc.Rooms</tspan></text>
<path transform="matrix(.6742756,0,0,.6742756,-2845.8309,25.837138)" stroke-width="1" stroke-linecap="butt" stroke-miterlimit="10" stroke-linejoin="miter" fill="none" stroke="#000000" d="M4705 360V378.63"/>
<path transform="matrix(.6742756,0,0,.6742756,-2845.8309,25.837138)" d="M4705 383.88 4701.5 376.88 4705 378.63 4708.5 376.88 4705 383.88Z"/>
<path transform="matrix(.6742756,0,0,.6742756,-2845.8309,25.837138)" stroke-width="1" stroke-linecap="butt" stroke-miterlimit="10" stroke-linejoin="miter" fill="none" stroke="#000000" d="M4705 383.88 4701.5 376.88 4705 378.63 4708.5 376.88 4705 383.88Z"/>
<path transform="matrix(.6742756,0,0,.6742756,-2845.8309,25.837138)" d="M4645 300H4765V360H4645Z" fill="#ffe6cc"/>
<path transform="matrix(.6742756,0,0,.6742756,-2845.8309,25.837138)" stroke-width="1" stroke-linecap="butt" stroke-miterlimit="4" stroke-linejoin="miter" fill="none" stroke="#d79b00" d="M4645 300H4765V360H4645Z"/>
<text xml:space="preserve" transform="matrix(.6742756 0 0 .6742756 -2846.168 25.5)" font-size="12" font-family="Arial"><tspan y="320" x="4647.078 4656.414 4664.418 4671.5295 4674.865 4681.537 4688.209 4694.209 4700.881 4704.217 4706.881 4713.5529 4720.2248 4728.8889 4735.5607 4745.5568 4752.2287 4758.9006">GET LocationNumber</tspan></text>
<text xml:space="preserve" transform="matrix(.6742756 0 0 .6742756 -2846.168 25.5)" font-size="12" font-family="Arial"><tspan y="334" x="4654.9846 4658.3205 4662.3166 4668.9885 4678.9846 4682.3205 4688.992 4695.664 4702.336 4705 4707.664 4713.664 4717 4725.664 4732.336 4739.008 4749.004">from public.Rooms</tspan></text>
<text xml:space="preserve" transform="matrix(.6742756 0 0 .6742756 -2846.168 25.5)" font-size="12" font-family="Arial"><tspan y="349" x="4673.3127 4679.3127 4681.9768 4688.6486 4691.9846 4700.6486 4707.3205 4713.992 4716.6564 4720.6525 4727.324 4733.324">via Redirect</tspan></text>
<text xml:space="preserve" transform="matrix(.6742756 0 0 .6742756 -2846.168 25.5)" font-size="12" font-family="Arial"><tspan y="505" x="4717.875 4724.76 4728.756 4735.4279">True</tspan></text>
<text xml:space="preserve" transform="matrix(.6742756 0 0 .6742756 -2846.168 25.5)" font-size="12" font-family="Arial"><tspan y="19" x="4269.6564 4277.66 4284.332">Key</tspan></text>
<path transform="matrix(.6742756,0,0,.6742756,-2845.8309,25.837138)" d="M4260 80H4360V120H4260Z" fill="#ffe6cc"/>
<path transform="matrix(.6742756,0,0,.6742756,-2845.8309,25.837138)" stroke-width="1" stroke-linecap="butt" stroke-miterlimit="4" stroke-linejoin="miter" fill="none" stroke="#d79b00" d="M4260 80H4360V120H4260Z"/>
<text xml:space="preserve" transform="matrix(.6742756 0 0 .6742756 -2846.168 25.5)" font-size="12" font-family="Arial"><tspan y="104" x="4288.3127 4296.3166 4300.3127 4306.9846 4312.9846 4319.6564 4325.6564">Process</tspan></text>
<path transform="matrix(.6742756,0,0,.6742756,-2845.8309,25.837138)" d="M4255 170 4275 130H4365L4345 170H4255Z" fill="#fff2cc"/>
<path transform="matrix(.6742756,0,0,.6742756,-2845.8309,25.837138)" stroke-width="1" stroke-linecap="butt" stroke-miterlimit="10" stroke-linejoin="miter" fill="none" stroke="#d6b656" d="M4255 170 4275 130H4365L4345 170H4255Z"/>
<text xml:space="preserve" transform="matrix(.6742756 0 0 .6742756 -2846.168 25.5)" font-size="12" font-family="Arial"><tspan y="154" x="4276.9689 4280.3049 4286.9768 4293.6486 4300.3205 4303.6564 4306.992 4316.328 4323 4326.336 4333.008 4339.6799">Input/Output</tspan></text>
<path transform="matrix(.6742756,0,0,.6742756,-2845.8309,25.837138)" d="M4310 180 4350 215 4310 250 4270 215 4310 180Z" fill="#f8cecc"/>
<path transform="matrix(.6742756,0,0,.6742756,-2845.8309,25.837138)" stroke-width="1" stroke-linecap="butt" stroke-miterlimit="10" stroke-linejoin="miter" fill="none" stroke="#b85450" d="M4310 180 4350 215 4310 250 4270 215 4310 180Z"/>
<text xml:space="preserve" transform="matrix(.6742756 0 0 .6742756 -2846.168 25.5)" font-size="12" font-family="Arial"><tspan y="219" x="4286.9846 4295.6486 4302.3205 4308.3205 4310.9846 4316.9846 4319.6486 4326.3205">Decision</tspan></text>
<path transform="matrix(.6742756,0,0,.6742756,-2845.8309,25.837138)" d="M4280 270C4280 261.72 4293.43 255 4310 255 4317.96 255 4325.59 256.58 4331.21 259.39 4336.84 262.21 4340 266.02 4340 270V305C4340 313.28 4326.57 320 4310 320 4293.43 320 4280 313.28 4280 305V270Z" fill="#e1d5e7"/>
<path transform="matrix(.6742756,0,0,.6742756,-2845.8309,25.837138)" stroke-width="1" stroke-linecap="butt" stroke-miterlimit="10" stroke-linejoin="miter" fill="none" stroke="#9673a6" d="M4280 270C4280 261.72 4293.43 255 4310 255 4317.96 255 4325.59 256.58 4331.21 259.39 4336.84 262.21 4340 266.02 4340 270V305C4340 313.28 4326.57 320 4310 320 4293.43 320 4280 313.28 4280 305V270Z"/>
<path transform="matrix(.6742756,0,0,.6742756,-2845.8309,25.837138)" stroke-width="1" stroke-linecap="butt" stroke-miterlimit="10" stroke-linejoin="miter" fill="none" stroke="#9673a6" d="M4340 270C4340 278.28 4326.57 285 4310 285 4293.43 285 4280 278.28 4280 270"/>
<text xml:space="preserve" transform="matrix(.6742756 0 0 .6742756 -2846.168 25.5)" font-size="12" font-family="Arial"><tspan y="304" x="4284.3127 4292.9768 4299.6486 4302.9846 4309.6564 4316.328 4323 4329">Database</tspan></text>
<path transform="matrix(.6742756,0,0,.6742756,-2845.8309,25.837138)" stroke-width="1" stroke-linecap="butt" stroke-miterlimit="10" stroke-linejoin="miter" fill="none" stroke="#000000" d="M4295 340 4321.18 374.91"/>
<path transform="matrix(.6742756,0,0,.6742756,-2845.8309,25.837138)" d="M4324.33 379.11 4317.33 375.61 4321.18 374.91 4322.93 371.41 4324.33 379.11Z"/>
<path transform="matrix(.6742756,0,0,.6742756,-2845.8309,25.837138)" stroke-width="1" stroke-linecap="butt" stroke-miterlimit="10" stroke-linejoin="miter" fill="none" stroke="#000000" d="M4324.33 379.11 4317.33 375.61 4321.18 374.91 4322.93 371.41 4324.33 379.11Z"/>
<text xml:space="preserve" transform="matrix(.6742756 0 0 .6742756 -2846.168 25.5)" font-size="12" font-family="Arial"><tspan y="349" x="4316.3127 4324.9768 4327.6408 4331.6369 4338.3088 4344.3088 4347.6447 4350.3088 4356.9807">Direction</tspan></text>
<path transform="matrix(.6742756,0,0,.6742756,-2845.8309,25.837138)" d="M4266 30H4354C4354.394 30 4354.784 30.03843 4355.1706 30.115288 4355.5568 30.192147 4355.9318 30.305956 4356.2956 30.456719 4356.659 30.607483 4357.005 30.792304 4357.3327 31.011179 4357.66 31.230053 4357.9636 31.478779 4358.242 31.757357 4358.5207 32.035936 4358.769 32.339006 4358.9885 32.666578 4359.2067 32.994146 4359.3918 33.339918 4359.5427 33.703897 4359.6936 34.067876 4359.807 34.443059 4359.8845 34.829454 4359.9616 35.21585 4360 35.606035 4360 36V64C4360 64.39396 4359.9616 64.78414 4359.8845 65.17053 4359.807 65.55693 4359.6936 65.93212 4359.5427 66.2961 4359.3918 66.66007 4359.2067 67.00585 4358.9885 67.33342 4358.769 67.66099 4358.5207 67.964069 4358.242 68.24264 4357.9636 68.52121 4357.66 68.769939 4357.3327 68.98881 4357.005 69.20769 4356.659 69.3925 4356.2956 69.54327 4355.9318 69.69403 4355.5568 69.80784 4355.1706 69.884708 4354.784 69.96157 4354.394 70 4354 70H4266C4265.606 70 4265.216 69.96157 4264.8298 69.884708 4264.4436 69.80784 4264.068 69.69403 4263.7038 69.54327 4263.34 69.3925 4262.994 69.20769 4262.6667 68.98881 4262.339 68.769939 4262.0358 68.52121 4261.7575 68.24264 4261.4787 67.964069 4261.23 67.66099 4261.011 67.33342 4260.792 67.00585 4260.6076 66.66007 4260.4567 66.2961 4260.3059 65.93212 4260.192 65.55693 4260.1149 65.17053 4260.038 64.78414 4259.9997 64.39396 4260 64V36C4259.9997 35.606035 4260.038 35.21585 4260.1149 34.829454 4260.192 34.443059 4260.3059 34.067876 4260.4567 33.703897 4260.6076 33.339918 4260.792 32.994146 4261.011 32.666578 4261.23 32.339006 4261.4787 32.035936 4261.7575 31.757357 4262.0358 31.478779 4262.339 31.230053 4262.6667 31.011179 4262.994 30.792304 4263.34 30.607483 4263.7038 30.45672 4264.068 30.305958 4264.4436 30.192147 4264.8298 30.115288 4265.216 30.03843 4265.606 30 4266 30Z" fill="#dae8fc"/>
<path transform="matrix(.6742756,0,0,.6742756,-2845.8309,25.837138)" stroke-width="1" stroke-linecap="butt" stroke-miterlimit="4" stroke-linejoin="miter" fill="none" stroke="#6c8ebf" d="M4266 30H4354C4354.394 30 4354.784 30.03843 4355.1706 30.115288 4355.5568 30.192147 4355.9318 30.305956 4356.2956 30.456719 4356.659 30.607483 4357.005 30.792304 4357.3327 31.011179 4357.66 31.230053 4357.9636 31.478779 4358.242 31.757357 4358.5207 32.035936 4358.769 32.339006 4358.9885 32.666578 4359.2067 32.994146 4359.3918 33.339918 4359.5427 33.703897 4359.6936 34.067876 4359.807 34.443059 4359.8845 34.829454 4359.9616 35.21585 4360 35.606035 4360 36V64C4360 64.39396 4359.9616 64.78414 4359.8845 65.17053 4359.807 65.55693 4359.6936 65.93212 4359.5427 66.2961 4359.3918 66.66007 4359.2067 67.00585 4358.9885 67.33342 4358.769 67.66099 4358.5207 67.964069 4358.242 68.24264 4357.9636 68.52121 4357.66 68.769939 4357.3327 68.98881 4357.005 69.20769 4356.659 69.3925 4356.2956 69.54327 4355.9318 69.69403 4355.5568 69.80784 4355.1706 69.884708 4354.784 69.96157 4354.394 70 4354 70H4266C4265.606 70 4265.216 69.96157 4264.8298 69.884708 4264.4436 69.80784 4264.068 69.69403 4263.7038 69.54327 4263.34 69.3925 4262.994 69.20769 4262.6667 68.98881 4262.339 68.769939 4262.0358 68.52121 4261.7575 68.24264 4261.4787 67.964069 4261.23 67.66099 4261.011 67.33342 4260.792 67.00585 4260.6076 66.66007 4260.4567 66.2961 4260.3059 65.93212 4260.192 65.55693 4260.1149 65.17053 4260.038 64.78414 4259.9997 64.39396 4260 64V36C4259.9997 35.606035 4260.038 35.21585 4260.1149 34.829454 4260.192 34.443059 4260.3059 34.067876 4260.4567 33.703897 4260.6076 33.339918 4260.792 32.994146 4261.011 32.666578 4261.23 32.339006 4261.4787 32.035936 4261.7575 31.757357 4262.0358 31.478779 4262.339 31.230053 4262.6667 31.011179 4262.994 30.792304 4263.34 30.607483 4263.7038 30.45672 4264.068 30.305958 4264.4436 30.192147 4264.8298 30.115288 4265.216 30.03843 4265.606 30 4266 30Z"/>
<text xml:space="preserve" transform="matrix(.6742756 0 0 .6742756 -2846.168 25.5)" font-size="12" font-family="Arial"><tspan y="54" x="4284.9846 4292.9885 4296.324 4302.996 4306.992 4310.328 4313.664 4321.668 4328.34">Start/End</tspan></text>
</g>
</svg>
