<svg xmlns="http://www.w3.org/2000/svg" xmlns:xlink="http://www.w3.org/1999/xlink" xmlns:inkscape="http://www.inkscape.org/namespaces/inkscape" version="1.1" width="612" height="792" viewBox="0 0 612 792">
<defs>
<clipPath id="clip_1">
<path transform="matrix(.24,0,0,.24,0,0)" d="M0 0H2550V3300H0Z" clip-rule="evenodd"/>
</clipPath>
<clipPath id="clip_2">
<path transform="matrix(.24,0,0,.24,0,0)" d="M78.125 103.125H2471.875V3196.875H78.125Z" clip-rule="evenodd"/>
</clipPath>
</defs>
<g clip-path="url(#clip_1)">
<path transform="matrix(.75,0,0,.75,0,0)" d="M0 0H816V1056H0Z" fill="#ffffff"/>
</g>
<g clip-path="url(#clip_2)">
<path transform="matrix(.6742756,0,0,.6742756,19.840334,25.837138)" stroke-width="1" stroke-linecap="butt" stroke-miterlimit="10" stroke-linejoin="miter" fill="none" stroke="#000000" d="M425 100V113.63"/>
<path transform="matrix(.6742756,0,0,.6742756,19.840334,25.837138)" d="M425 118.88 421.5 111.88 425 113.63 428.5 111.88 425 118.88Z"/>
<path transform="matrix(.6742756,0,0,.6742756,19.840334,25.837138)" stroke-width="1" stroke-linecap="butt" stroke-miterlimit="10" stroke-linejoin="miter" fill="none" stroke="#000000" d="M425 118.88 421.5 111.88 425 113.63 428.5 111.88 425 118.88Z"/>
<path transform="matrix(.6742756,0,0,.6742756,19.840334,25.837138)" d="M374 40H476C476.5909 40 477.17619 40.057645 477.75578 40.17293 478.33537 40.288217 478.89814 40.458936 479.4441 40.68508 479.99006 40.91123 480.5087 41.188459 481.00007 41.51677 481.49143 41.845087 481.94606 42.218175 482.36393 42.636037 482.7818 43.0539 483.15489 43.50851 483.4832 43.999864 483.8115 44.49122 484.0887 45.00988 484.31489 45.555849 484.54106 46.10181 484.71177 46.66459 484.82704 47.244184 484.9423 47.823778 484.99998 48.409048 485 49V91C484.99998 91.59094 484.9423 92.17621 484.827 92.755809 484.71174 93.335399 484.54103 93.89817 484.31486 94.44414 484.0887 94.9901 483.8115 95.50876 483.48316 96.000118 483.15489 96.49148 482.7818 96.94609 482.36393 97.36395 481.94606 97.781818 481.49143 98.1549 481.00007 98.48321 480.5087 98.811519 479.99006 99.088748 479.4441 99.314899 478.89814 99.54104 478.33537 99.71176 477.75578 99.82706 477.17619 99.942348 476.5909 99.99999 476 100H374C373.40904 99.99999 372.82377 99.942348 372.24415 99.82706 371.66456 99.71176 371.10179 99.54104 370.55583 99.314899 370.00984 99.088748 369.49119 98.811519 368.99983 98.48321 368.50846 98.1549 368.05387 97.781818 367.63603 97.36395 367.21815 96.94609 366.84504 96.49148 366.51673 96.00012 366.18843 95.50876 365.9112 94.9901 365.68507 94.44414 365.45893 93.89817 365.2882 93.335399 365.1729 92.755809 365.05766 92.17621 365 91.59094 365 91V49C365 48.409048 365.05766 47.823778 365.1729 47.244184 365.2882 46.66459 365.45893 46.101808 365.68507 45.555845 365.9112 45.009878 366.18843 44.491216 366.51673 43.999864 366.84504 43.50851 367.21815 43.0539 367.63603 42.636037 368.05387 42.218175 368.50846 41.845087 368.99983 41.51677 369.49119 41.188459 370.00984 40.91123 370.55583 40.68508 371.10179 40.458936 371.66456 40.288217 372.24415 40.17293 372.82377 40.057645 373.40904 40 374 40Z" fill="#dae8fc"/>
<path transform="matrix(.6742756,0,0,.6742756,19.840334,25.837138)" stroke-width="1" stroke-linecap="butt" stroke-miterlimit="4" stroke-linejoin="miter" fill="none" stroke="#6c8ebf" d="M374 40H476C476.5909 40 477.17619 40.057645 477.75578 40.17293 478.33537 40.288217 478.89814 40.458936 479.4441 40.68508 479.99006 40.91123 480.5087 41.188459 481.00007 41.51677 481.49143 41.845087 481.94606 42.218175 482.36393 42.636037 482.7818 43.0539 483.15489 43.50851 483.4832 43.999864 483.8115 44.49122 484.0887 45.00988 484.31489 45.555849 484.54106 46.10181 484.71177 46.66459 484.82704 47.244184 484.9423 47.823778 484.99998 48.409048 485 49V91C484.99998 91.59094 484.9423 92.17621 484.827 92.755809 484.71174 93.335399 484.54103 93.89817 484.31486 94.44414 484.0887 94.9901 483.8115 95.50876 483.48316 96.000118 483.15489 96.49148 482.7818 96.94609 482.36393 97.36395 481.94606 97.781818 481.49143 98.1549 481.00007 98.48321 480.5087 98.811519 479.99006 99.088748 479.4441 99.314899 478.89814 99.54104 478.33537 99.71176 477.75578 99.82706 477.17619 99.942348 476.5909 99.99999 476 100H374C373.40904 99.99999 372.82377 99.942348 372.24415 99.82706 371.66456 99.71176 371.10179 99.54104 370.55583 99.314899 370.00984 99.088748 369.49119 98.811519 368.99983 98.48321 368.50846 98.1549 368.05387 97.781818 367.63603 97.36395 367.21815 96.94609 366.84504 96.49148 366.51673 96.00012 366.18843 95.50876 365.9112 94.9901 365.68507 94.44414 365.45893 93.89817 365.2882 93.335399 365.1729 92.755809 365.05766 92.17621 365 91.59094 365 91V49C365 48.409048 365.05766 47.823778 365.1729 47.244184 365.2882 46.66459 365.45893 46.101808 365.68507 45.555845 365.9112 45.009878 366.18843 44.491216 366.51673 43.999864 366.84504 43.50851 367.21815 43.0539 367.63603 42.636037 368.05387 42.218175 368.50846 41.845087 368.99983 41.51677 369.49119 41.188459 370.00984 40.91123 370.55583 40.68508 371.10179 40.458936 371.66456 40.288217 372.24415 40.17293 372.82377 40.057645 373.40904 40 374 40Z"/>
<text xml:space="preserve" transform="matrix(.6742756 0 0 .6742756 19.503195 25.5)" font-size="12" font-family="Arial"><tspan y="67" x="385.65626 393.66026 396.99626 403.66825 407.66426 411.00025 414.33625 418.33226 421.66825 430.33226 432.99626 435.66026 441.66026 447.66026 450.99626 457.66825">Start - Click on</tspan></text>
<text xml:space="preserve" transform="matrix(.6742756 0 0 .6742756 19.503195 25.5)" font-size="12" font-family="Arial"><tspan y="82" x="383.64064 392.30464 398.97663 405.64863 408.31263 414.31263 417.64863 424.32063 428.31663 431.65263 439.65663 446.3286 449.6646 453.0006 459.6726">Register Button</tspan></text>
<text xml:space="preserve" transform="matrix(.6742756 0 0 .6742756 19.503195 25.5)" font-size="18" font-family="Arial" font-weight="bold"><tspan y="21" x="344.46876 357.46476 367.47276 378.47074 383.47474 393.48274 399.4767 409.4847 416.48674 421.49073 432.4887 437.4927 448.4907 462.4947 472.5027 483.50068 493.50868 500.51069">Register Flowchart</tspan></text>
<path transform="matrix(.6742756,0,0,.6742756,19.840334,25.837138)" d="M365.5 180 385.5 120H485.5L465.5 180H365.5Z" fill="#fff2cc"/>
<path transform="matrix(.6742756,0,0,.6742756,19.840334,25.837138)" stroke-width="1" stroke-linecap="butt" stroke-miterlimit="10" stroke-linejoin="miter" fill="none" stroke="#d6b656" d="M365.5 180 385.5 120H485.5L465.5 180H365.5Z"/>
<text xml:space="preserve" transform="matrix(.6742756 0 0 .6742756 19.503195 25.5)" font-size="12" font-family="Arial"><tspan y="154" x="381.64064 384.97663 391.64863 398.32063 404.9926 408.3286 411.6646 420.3286 426.3286 433.0006 436.9966 440.3326 448.3366 458.3326 465.0046 467.6686">Input User Email</tspan></text>
<path transform="matrix(.6742756,0,0,.6742756,19.840334,25.837138)" stroke-width="1" stroke-linecap="butt" stroke-miterlimit="10" stroke-linejoin="miter" fill="none" stroke="#000000" d="M425.5 350V370L425.32 373.64"/>
<path transform="matrix(.6742756,0,0,.6742756,19.840334,25.837138)" d="M425.06 378.88 421.91 371.72 425.32 373.64 428.9 372.07 425.06 378.88Z"/>
<path transform="matrix(.6742756,0,0,.6742756,19.840334,25.837138)" stroke-width="1" stroke-linecap="butt" stroke-miterlimit="10" stroke-linejoin="miter" fill="none" stroke="#000000" d="M425.06 378.88 421.91 371.72 425.32 373.64 428.9 372.07 425.06 378.88Z"/>
<path transform="matrix(.6742756,0,0,.6742756,19.840334,25.837138)" d="M343 350 363 290H508L488 350H343Z" fill="#fff2cc"/>
<path transform="matrix(.6742756,0,0,.6742756,19.840334,25.837138)" stroke-width="1" stroke-linecap="butt" stroke-miterlimit="10" stroke-linejoin="miter" fill="none" stroke="#d6b656" d="M343 350 363 290H508L488 350H343Z"/>
<text xml:space="preserve" transform="matrix(.6742756 0 0 .6742756 19.503195 25.5)" font-size="12" font-family="Arial"><tspan y="317" x="368.46876 371.80476 378.47676 385.14875 391.82075 395.15675 398.49275 407.15675 413.15675 419.82875 423.82475 427.16075 435.82475 442.49674 449.16874 452.50474 455.16874 459.16474 469.16075 475.83274">Input User Confirmed</tspan></text>
<text xml:space="preserve" transform="matrix(.6742756 0 0 .6742756 19.503195 25.5)" font-size="12" font-family="Arial"><tspan y="332" x="399.15626 407.16026 413.83226 419.83226 425.83226 434.49626 441.16825 445.16426">Password</tspan></text>
<path transform="matrix(.6742756,0,0,.6742756,19.840334,25.837138)" stroke-width="1" stroke-linecap="butt" stroke-miterlimit="10" stroke-linejoin="miter" fill="none" stroke="#000000" d="M425.5 180V193.63"/>
<path transform="matrix(.6742756,0,0,.6742756,19.840334,25.837138)" d="M425.5 198.88 422 191.88 425.5 193.63 429 191.88 425.5 198.88Z"/>
<path transform="matrix(.6742756,0,0,.6742756,19.840334,25.837138)" stroke-width="1" stroke-linecap="butt" stroke-miterlimit="10" stroke-linejoin="miter" fill="none" stroke="#000000" d="M425.5 198.88 422 191.88 425.5 193.63 429 191.88 425.5 198.88Z"/>
<path transform="matrix(.6742756,0,0,.6742756,19.840334,25.837138)" stroke-width="1" stroke-linecap="butt" stroke-miterlimit="10" stroke-linejoin="miter" fill="none" stroke="#000000" d="M425 260V280L425.18 283.64"/>
<path transform="matrix(.6742756,0,0,.6742756,19.840334,25.837138)" d="M425.44 288.88 421.6 282.07 425.18 283.64 428.59 281.72 425.44 288.88Z"/>
<path transform="matrix(.6742756,0,0,.6742756,19.840334,25.837138)" stroke-width="1" stroke-linecap="butt" stroke-miterlimit="10" stroke-linejoin="miter" fill="none" stroke="#000000" d="M425.44 288.88 421.6 282.07 425.18 283.64 428.59 281.72 425.44 288.88Z"/>
<path transform="matrix(.6742756,0,0,.6742756,19.840334,25.837138)" d="M345 260 365 200H505L485 260H345Z" fill="#fff2cc"/>
<path transform="matrix(.6742756,0,0,.6742756,19.840334,25.837138)" stroke-width="1" stroke-linecap="butt" stroke-miterlimit="10" stroke-linejoin="miter" fill="none" stroke="#d6b656" d="M345 260 365 200H505L485 260H345Z"/>
<text xml:space="preserve" transform="matrix(.6742756 0 0 .6742756 19.503195 25.5)" font-size="12" font-family="Arial"><tspan y="234" x="369.29689 372.63288 379.30488 385.97688 392.64888 395.98487 399.32087 407.98487 413.98487 420.65687 424.65287 427.98887 435.99287 442.66487 448.66487 454.66487 463.32887 470.00086 473.99687">Input User Password</tspan></text>
<path transform="matrix(.6742756,0,0,.6742756,19.840334,25.837138)" stroke-width="1" stroke-linecap="butt" stroke-miterlimit="10" stroke-linejoin="miter" fill="none" stroke="#000000" d="M425 440V460L425.11 463.66"/>
<path transform="matrix(.6742756,0,0,.6742756,19.840334,25.837138)" d="M425.27 468.91 421.56 462.01 425.11 463.66 428.56 461.81 425.27 468.91Z"/>
<path transform="matrix(.6742756,0,0,.6742756,19.840334,25.837138)" stroke-width="1" stroke-linecap="butt" stroke-miterlimit="10" stroke-linejoin="miter" fill="none" stroke="#000000" d="M425.27 468.91 421.56 462.01 425.11 463.66 428.56 461.81 425.27 468.91Z"/>
<path transform="matrix(.6742756,0,0,.6742756,19.840334,25.837138)" d="M330 440 350 380H520L500 440H330Z" fill="#fff2cc"/>
<path transform="matrix(.6742756,0,0,.6742756,19.840334,25.837138)" stroke-width="1" stroke-linecap="butt" stroke-miterlimit="10" stroke-linejoin="miter" fill="none" stroke="#d6b656" d="M330 440 350 380H520L500 440H330Z"/>
<text xml:space="preserve" transform="matrix(.6742756 0 0 .6742756 19.503195 25.5)" font-size="12" font-family="Arial"><tspan y="407" x="345.95314 349.28913 355.96113 362.63313 369.3051 372.6411 375.9771 383.9811 387.9771 394.6491 400.6491 406.6491 409.3131 415.9851 422.6571 425.9931 432.6651 436.0011 439.3371 442.6731 449.3451 456.0171 459.3531 468.0171 474.6891 481.36109 484.0251 490.0251 493.36109 500.03309">Input Pressing of the Register</tspan></text>
<text xml:space="preserve" transform="matrix(.6742756 0 0 .6742756 19.503195 25.5)" font-size="12" font-family="Arial"><tspan y="422" x="407.64064 415.64463 422.31663 425.65263 428.98863 435.6606">Button</tspan></text>
<path transform="matrix(.6742756,0,0,.6742756,19.840334,25.837138)" stroke-width="1" stroke-linecap="butt" stroke-miterlimit="10" stroke-linejoin="miter" fill="none" stroke="#000000" d="M425.3 599.98V620L425.19 623.63"/>
<path transform="matrix(.6742756,0,0,.6742756,19.840334,25.837138)" d="M425.03 628.88 421.75 621.78 425.19 623.63 428.74 621.99 425.03 628.88Z"/>
<path transform="matrix(.6742756,0,0,.6742756,19.840334,25.837138)" stroke-width="1" stroke-linecap="butt" stroke-miterlimit="10" stroke-linejoin="miter" fill="none" stroke="#000000" d="M425.03 628.88 421.75 621.78 425.19 623.63 428.74 621.99 425.03 628.88Z"/>
<path transform="matrix(.6742756,0,0,.6742756,19.840334,25.837138)" stroke-width="1" stroke-linecap="butt" stroke-miterlimit="10" stroke-linejoin="miter" fill="none" stroke="#000000" d="M557.5 535H615V516.37"/>
<path transform="matrix(.6742756,0,0,.6742756,19.840334,25.837138)" d="M615 511.12 618.5 518.12 615 516.37 611.5 518.12 615 511.12Z"/>
<path transform="matrix(.6742756,0,0,.6742756,19.840334,25.837138)" stroke-width="1" stroke-linecap="butt" stroke-miterlimit="10" stroke-linejoin="miter" fill="none" stroke="#000000" d="M615 511.12 618.5 518.12 615 516.37 611.5 518.12 615 511.12Z"/>
<path transform="matrix(.6742756,0,0,.6742756,19.840334,25.837138)" d="M425.25 470 557.5 535 425.25 600 293 535 425.25 470Z" fill="#f8cecc"/>
<path transform="matrix(.6742756,0,0,.6742756,19.840334,25.837138)" stroke-width="1" stroke-linecap="butt" stroke-miterlimit="10" stroke-linejoin="miter" fill="none" stroke="#b85450" d="M425.25 470 557.5 535 425.25 600 293 535 425.25 470Z"/>
<text xml:space="preserve" transform="matrix(.6742756 0 0 .6742756 19.503195 25.5)" font-size="12" font-family="Arial"><tspan y="532" x="296.09376 304.75776 311.42976 318.10176 324.10176 327.43775 330.77375 337.44575 344.11775 347.45375 354.12574 364.12174 370.79374 373.45774 376.12174 379.45774 386.12974 392.80174 398.80174 404.80174 408.13774 414.80973 417.47373 420.13774 423.47373 430.14573 440.14173 446.81373 449.47773 452.14173 455.47773 461.47773 468.14973 470.81373 473.47773 480.14973 486.82173 490.1577 492.82173 499.4937 506.1657 509.5017 513.4977 520.1697 522.8337 529.5057 535.5057 538.8417 544.8417 551.5137">Does the email pass all email validation rules set</tspan></text>
<text xml:space="preserve" transform="matrix(.6742756 0 0 .6742756 19.503195 25.5)" font-size="12" font-family="Arial"><tspan y="547" x="381.79689 388.46888 394.46888 397.80488 401.14088 407.81288 414.48487 417.82087 424.49287 428.48887 435.16087 441.83287 445.82887 452.50086 462.49687">by the program?</tspan></text>
<path transform="matrix(.6742756,0,0,.6742756,19.840334,25.837138)" stroke-width="1" stroke-linecap="butt" stroke-miterlimit="10" stroke-linejoin="miter" fill="none" stroke="#000000" d="M425 760V780L425.34 793.63"/>
<path transform="matrix(.6742756,0,0,.6742756,19.840334,25.837138)" d="M425.47 798.88 421.8 791.97 425.34 793.63 428.8 791.8 425.47 798.88Z"/>
<path transform="matrix(.6742756,0,0,.6742756,19.840334,25.837138)" stroke-width="1" stroke-linecap="butt" stroke-miterlimit="10" stroke-linejoin="miter" fill="none" stroke="#000000" d="M425.47 798.88 421.8 791.97 425.34 793.63 428.8 791.8 425.47 798.88Z"/>
<path transform="matrix(.6742756,0,0,.6742756,19.840334,25.837138)" d="M425 630 560 695 425 760 290 695 425 630Z" fill="#f8cecc"/>
<path transform="matrix(.6742756,0,0,.6742756,19.840334,25.837138)" stroke-width="1" stroke-linecap="butt" stroke-miterlimit="10" stroke-linejoin="miter" fill="none" stroke="#b85450" d="M425 630 560 695 425 760 290 695 425 630Z"/>
<text xml:space="preserve" transform="matrix(.6742756 0 0 .6742756 19.503195 25.5)" font-size="12" font-family="Arial"><tspan y="692" x="323.60939 332.27339 338.94538 345.61738 351.61738 354.95338 358.28938 364.96138 371.63337 374.96937 381.64137 388.31336 394.31336 400.31336 408.97737 415.64936 419.64537 426.31736 429.65336 439.64936 446.32136 452.99336 456.32936 459.66535 466.33735 469.00135 471.66535 475.00135 481.67335 488.34535 494.34535 500.34535 509.00935 515.68136 519.6773">Does the password meet all password</tspan></text>
<text xml:space="preserve" transform="matrix(.6742756 0 0 .6742756 19.503195 25.5)" font-size="12" font-family="Arial"><tspan y="707" x="334.95314 338.94914 345.62113 352.29313 358.96513 361.62913 365.62513 372.29713 382.29313 388.96513 395.63713 398.9731 404.9731 408.3091 414.3091 420.9811 424.3171 427.6531 434.3251 440.3251 443.6611 446.9971 453.6691 460.3411 463.6771 470.3491 474.3451 481.0171 487.6891 491.6851 498.3571 508.3531">requirements set by the program?</tspan></text>
<path transform="matrix(.6742756,0,0,.6742756,19.840334,25.837138)" stroke-width="1" stroke-linecap="butt" stroke-miterlimit="10" stroke-linejoin="miter" fill="none" stroke="#000000" d="M425.5 920V940H1580V30H1275V43.63"/>
<path transform="matrix(.6742756,0,0,.6742756,19.840334,25.837138)" d="M425.5 800 579 860 425.5 920 272 860 425.5 800Z" fill="#f8cecc"/>
<path transform="matrix(.6742756,0,0,.6742756,19.840334,25.837138)" stroke-width="1" stroke-linecap="butt" stroke-miterlimit="10" stroke-linejoin="miter" fill="none" stroke="#b85450" d="M425.5 800 579 860 425.5 920 272 860 425.5 800Z"/>
<text xml:space="preserve" transform="matrix(.6742756 0 0 .6742756 19.503195 25.5)" font-size="12" font-family="Arial"><tspan y="857" x="297.09376 305.75776 312.42976 319.10176 325.10176 328.43775 331.77375 338.44575 345.11775 348.45375 354.45375 361.12574 367.79774 371.13374 373.79774 377.79374 387.78974 394.46174 401.13374 404.46974 411.14173 417.81373 423.81373 429.81373 438.47773 445.14973 449.14573 455.81773 459.15373 469.14973 475.82173 479.1577 485.1577 491.8297 495.1657 498.5017 505.1737 511.8457 515.1817 521.8537 525.8497 528.5137 535.18569 537.8497 544.52169 551.19369">Does the confirmed password match the original</tspan></text>
<text xml:space="preserve" transform="matrix(.6742756 0 0 .6742756 19.503195 25.5)" font-size="12" font-family="Arial"><tspan y="872" x="374.45314 381.12513 387.79713 393.79713 399.79713 408.46113 415.13313 419.12913 425.80113 429.13713 435.8091 442.4811 445.8171 452.4891 456.4851 463.1571 469.8291">password entered?</tspan></text>
<path transform="matrix(.6742756,0,0,.6742756,19.840334,25.837138)" stroke-width="1" stroke-linecap="butt" stroke-miterlimit="10" stroke-linejoin="miter" fill="none" stroke="#000000" d="M650 450V110H436.37"/>
<path transform="matrix(.6742756,0,0,.6742756,19.840334,25.837138)" d="M431.12 110 438.12 106.5 436.37 110 438.12 113.5 431.12 110Z"/>
<path transform="matrix(.6742756,0,0,.6742756,19.840334,25.837138)" stroke-width="1" stroke-linecap="butt" stroke-miterlimit="10" stroke-linejoin="miter" fill="none" stroke="#000000" d="M431.12 110 438.12 106.5 436.37 110 438.12 113.5 431.12 110Z"/>
<path transform="matrix(.6742756,0,0,.6742756,19.840334,25.837138)" d="M580 510 600 450H720L700 510H580Z" fill="#fff2cc"/>
<path transform="matrix(.6742756,0,0,.6742756,19.840334,25.837138)" stroke-width="1" stroke-linecap="butt" stroke-miterlimit="10" stroke-linejoin="miter" fill="none" stroke="#d6b656" d="M580 510 600 450H720L700 510H580Z"/>
<text xml:space="preserve" transform="matrix(.6742756 0 0 .6742756 19.503195 25.5)" font-size="12" font-family="Arial"><tspan y="470" x="601.6406 610.9766 617.6486 620.9846 627.6566 634.3286 637.6646 641.0006 649.6646 652.3286 659.0006 665.6726 669.6686 673.0046 679.6766 683.67257 687.6685 694.3405">Output Clear error</tspan></text>
<text xml:space="preserve" transform="matrix(.6742756 0 0 .6742756 19.503195 25.5)" font-size="12" font-family="Arial"><tspan y="484" x="592.2969 602.29287 608.96487 614.96487 620.96487 627.63687 634.30886 640.98086 644.31686 650.98886 657.6608 663.6608 666.9968 670.3328 673.6688 680.3408 683.6768 687.0128 693.6848 697.6808">message next to form</tspan></text>
<text xml:space="preserve" transform="matrix(.6742756 0 0 .6742756 19.503195 25.5)" font-size="12" font-family="Arial"><tspan y="499" x="640.3125 646.9845 653.6565">box</tspan></text>
<path transform="matrix(.6742756,0,0,.6742756,19.840334,25.837138)" stroke-width="1" stroke-linecap="butt" stroke-miterlimit="10" stroke-linejoin="miter" fill="none" stroke="#000000" d="M560 695H643V514.39"/>
<path transform="matrix(.6742756,0,0,.6742756,19.840334,25.837138)" d="M643 509.14 646.5 516.14 643 514.39 639.5 516.14 643 509.14Z"/>
<path transform="matrix(.6742756,0,0,.6742756,19.840334,25.837138)" stroke-width="1" stroke-linecap="butt" stroke-miterlimit="10" stroke-linejoin="miter" fill="none" stroke="#000000" d="M643 509.14 646.5 516.14 643 514.39 639.5 516.14 643 509.14Z"/>
<path transform="matrix(.6742756,0,0,.6742756,19.840334,25.837138)" stroke-width="1" stroke-linecap="butt" stroke-miterlimit="10" stroke-linejoin="miter" fill="none" stroke="#000000" d="M579 860H673.4L673.38 516.37"/>
<path transform="matrix(.6742756,0,0,.6742756,19.840334,25.837138)" d="M673.38 511.12 676.88 518.12 673.38 516.37 669.88 518.12 673.38 511.12Z"/>
<path transform="matrix(.6742756,0,0,.6742756,19.840334,25.837138)" stroke-width="1" stroke-linecap="butt" stroke-miterlimit="10" stroke-linejoin="miter" fill="none" stroke="#000000" d="M673.38 511.12 676.88 518.12 673.38 516.37 669.88 518.12 673.38 511.12Z"/>
<text xml:space="preserve" transform="matrix(.6742756 0 0 .6742756 19.503195 25.5)" font-size="12" font-family="Arial"><tspan y="529" x="565.3281 572.6601 579.3321 581.9961 587.9961">False</tspan></text>
<text xml:space="preserve" transform="matrix(.6742756 0 0 .6742756 19.503195 25.5)" font-size="12" font-family="Arial"><tspan y="689" x="571.3281 578.6601 585.3321 587.9961 593.9961">False</tspan></text>
<text xml:space="preserve" transform="matrix(.6742756 0 0 .6742756 19.503195 25.5)" font-size="12" font-family="Arial"><tspan y="849" x="585.3281 592.6601 599.3321 601.9961 607.9961">False</tspan></text>
<text xml:space="preserve" transform="matrix(.6742756 0 0 .6742756 19.503195 25.5)" font-size="12" font-family="Arial"><tspan y="619" x="437.875 444.75978 448.75578 455.42778">True</tspan></text>
<text xml:space="preserve" transform="matrix(.6742756 0 0 .6742756 19.503195 25.5)" font-size="12" font-family="Arial"><tspan y="779" x="447.875 454.75978 458.75578 465.42778">True</tspan></text>
<text xml:space="preserve" transform="matrix(.6742756 0 0 .6742756 19.503195 25.5)" font-size="12" font-family="Arial"><tspan y="929" x="457.875 464.75978 468.75578 475.42778">True</tspan></text>
<path transform="matrix(.6742756,0,0,.6742756,19.840334,25.837138)" stroke-width="1" stroke-linecap="butt" stroke-miterlimit="10" stroke-linejoin="miter" fill="none" stroke="#000000" d="M1170 270H740V480H716.37"/>
<path transform="matrix(.6742756,0,0,.6742756,19.840334,25.837138)" d="M711.12 480 718.12 476.5 716.37 480 718.12 483.5 711.12 480Z"/>
<path transform="matrix(.6742756,0,0,.6742756,19.840334,25.837138)" stroke-width="1" stroke-linecap="butt" stroke-miterlimit="10" stroke-linejoin="miter" fill="none" stroke="#000000" d="M711.12 480 718.12 476.5 716.37 480 718.12 483.5 711.12 480Z"/>
<text xml:space="preserve" transform="matrix(.6742756 0 0 .6742756 19.503195 25.5)" font-size="12" font-family="Arial"><tspan y="19" x="19.65625 27.660252 34.332254">Key</tspan></text>
<path transform="matrix(.6742756,0,0,.6742756,19.840334,25.837138)" d="M10 80H110V120H10Z" fill="#ffe6cc"/>
<path transform="matrix(.6742756,0,0,.6742756,19.840334,25.837138)" stroke-width="1" stroke-linecap="butt" stroke-miterlimit="4" stroke-linejoin="miter" fill="none" stroke="#d79b00" d="M10 80H110V120H10Z"/>
<text xml:space="preserve" transform="matrix(.6742756 0 0 .6742756 19.503195 25.5)" font-size="12" font-family="Arial"><tspan y="104" x="38.3125 46.3165 50.3125 56.9845 62.9845 69.6565 75.6565">Process</tspan></text>
<path transform="matrix(.6742756,0,0,.6742756,19.840334,25.837138)" d="M5 170 25 130H115L95 170H5Z" fill="#fff2cc"/>
<path transform="matrix(.6742756,0,0,.6742756,19.840334,25.837138)" stroke-width="1" stroke-linecap="butt" stroke-miterlimit="10" stroke-linejoin="miter" fill="none" stroke="#d6b656" d="M5 170 25 130H115L95 170H5Z"/>
<text xml:space="preserve" transform="matrix(.6742756 0 0 .6742756 19.503195 25.5)" font-size="12" font-family="Arial"><tspan y="154" x="26.96875 30.30475 36.976755 43.648756 50.320756 53.656755 56.992753 66.32875 73.00075 76.33675 83.00874 89.68074">Input/Output</tspan></text>
<path transform="matrix(.6742756,0,0,.6742756,19.840334,25.837138)" d="M60 180 100 215 60 250 20 215 60 180Z" fill="#f8cecc"/>
<path transform="matrix(.6742756,0,0,.6742756,19.840334,25.837138)" stroke-width="1" stroke-linecap="butt" stroke-miterlimit="10" stroke-linejoin="miter" fill="none" stroke="#b85450" d="M60 180 100 215 60 250 20 215 60 180Z"/>
<text xml:space="preserve" transform="matrix(.6742756 0 0 .6742756 19.503195 25.5)" font-size="12" font-family="Arial"><tspan y="219" x="36.984376 45.648378 52.320379 58.320379 60.98438 66.984378 69.64838 76.32037">Decision</tspan></text>
<path transform="matrix(.6742756,0,0,.6742756,19.840334,25.837138)" d="M30 270C30 261.72 43.43 255 60 255 67.96 255 75.59 256.58 81.21 259.39 86.84 262.21 90 266.02 90 270V305C90 313.28 76.57 320 60 320 43.43 320 30 313.28 30 305V270Z" fill="#e1d5e7"/>
<path transform="matrix(.6742756,0,0,.6742756,19.840334,25.837138)" stroke-width="1" stroke-linecap="butt" stroke-miterlimit="10" stroke-linejoin="miter" fill="none" stroke="#9673a6" d="M30 270C30 261.72 43.43 255 60 255 67.96 255 75.59 256.58 81.21 259.39 86.84 262.21 90 266.02 90 270V305C90 313.28 76.57 320 60 320 43.43 320 30 313.28 30 305V270Z"/>
<path transform="matrix(.6742756,0,0,.6742756,19.840334,25.837138)" stroke-width="1" stroke-linecap="butt" stroke-miterlimit="10" stroke-linejoin="miter" fill="none" stroke="#9673a6" d="M90 270C90 278.28 76.57 285 60 285 43.43 285 30 278.28 30 270"/>
<text xml:space="preserve" transform="matrix(.6742756 0 0 .6742756 19.503195 25.5)" font-size="12" font-family="Arial"><tspan y="304" x="34.3125 42.9765 49.648504 52.984506 59.656507 66.32851 73.0005 79.0005">Database</tspan></text>
<path transform="matrix(.6742756,0,0,.6742756,19.840334,25.837138)" stroke-width="1" stroke-linecap="butt" stroke-miterlimit="10" stroke-linejoin="miter" fill="none" stroke="#000000" d="M45 340 71.18 374.91"/>
<path transform="matrix(.6742756,0,0,.6742756,19.840334,25.837138)" d="M74.33 379.11 67.33 375.61 71.18 374.91 72.93 371.41 74.33 379.11Z"/>
<path transform="matrix(.6742756,0,0,.6742756,19.840334,25.837138)" stroke-width="1" stroke-linecap="butt" stroke-miterlimit="10" stroke-linejoin="miter" fill="none" stroke="#000000" d="M74.33 379.11 67.33 375.61 71.18 374.91 72.93 371.41 74.33 379.11Z"/>
<text xml:space="preserve" transform="matrix(.6742756 0 0 .6742756 19.503195 25.5)" font-size="12" font-family="Arial"><tspan y="349" x="66.3125 74.9765 77.6405 81.636508 88.3085 94.3085 97.6445 100.3085 106.9805">Direction</tspan></text>
<path transform="matrix(.6742756,0,0,.6742756,19.840334,25.837138)" d="M16 30H104C104.39396 30 104.784137 30.03843 105.170528 30.115288 105.55692 30.192147 105.93211 30.305956 106.29609 30.456719 106.660068 30.607483 107.00584 30.792304 107.333408 31.011179 107.66097 31.230053 107.96405 31.478779 108.24263 31.757357 108.5212 32.035936 108.76993 32.339006 108.98881 32.666578 109.20769 32.994146 109.3925 33.339918 109.54327 33.703897 109.69402 34.067876 109.80784 34.443059 109.884708 34.829454 109.96156 35.21585 109.99999 35.606035 110 36V64C109.99999 64.39396 109.96156 64.78414 109.8847 65.17053 109.80783 65.55693 109.69402 65.93212 109.54326 66.2961 109.392498 66.66007 109.20768 67.00585 108.98881 67.33342 108.76993 67.66099 108.5212 67.964069 108.24263 68.24264 107.96405 68.52121 107.66097 68.769939 107.333408 68.98881 107.00584 69.20769 106.660068 69.3925 106.29609 69.54327 105.93211 69.69403 105.55692 69.80784 105.170528 69.884708 104.784137 69.96157 104.39396 70 104 70H16C15.606034 70 15.215853 69.96157 14.829456 69.884708 14.44306 69.80784 14.067874 69.69403 13.703897 69.54327 13.339921 69.3925 12.994147 69.20769 12.666576 68.98881 12.339007 68.769939 12.035934 68.52121 11.757359 68.24264 11.478782 67.964069 11.230056 67.66099 11.011181 67.33342 10.792304 67.00585 10.607485 66.66007 10.456721 66.2961 10.305957 65.93212 10.192145 65.55693 10.115288 65.17053 10.038428 64.78414 9.999999 64.39396 10 64V36C9.999999 35.606035 10.038428 35.21585 10.115288 34.829454 10.192145 34.443059 10.305957 34.067876 10.456721 33.703897 10.607485 33.339918 10.792304 32.994146 11.011181 32.666578 11.230056 32.339006 11.478782 32.035936 11.757359 31.757357 12.035934 31.478779 12.339007 31.230053 12.666577 31.011179 12.994147 30.792304 13.339921 30.607483 13.703897 30.45672 14.067874 30.305958 14.44306 30.192147 14.829456 30.115288 15.215853 30.03843 15.606034 30 16 30Z" fill="#dae8fc"/>
<path transform="matrix(.6742756,0,0,.6742756,19.840334,25.837138)" stroke-width="1" stroke-linecap="butt" stroke-miterlimit="4" stroke-linejoin="miter" fill="none" stroke="#6c8ebf" d="M16 30H104C104.39396 30 104.784137 30.03843 105.170528 30.115288 105.55692 30.192147 105.93211 30.305956 106.29609 30.456719 106.660068 30.607483 107.00584 30.792304 107.333408 31.011179 107.66097 31.230053 107.96405 31.478779 108.24263 31.757357 108.5212 32.035936 108.76993 32.339006 108.98881 32.666578 109.20769 32.994146 109.3925 33.339918 109.54327 33.703897 109.69402 34.067876 109.80784 34.443059 109.884708 34.829454 109.96156 35.21585 109.99999 35.606035 110 36V64C109.99999 64.39396 109.96156 64.78414 109.8847 65.17053 109.80783 65.55693 109.69402 65.93212 109.54326 66.2961 109.392498 66.66007 109.20768 67.00585 108.98881 67.33342 108.76993 67.66099 108.5212 67.964069 108.24263 68.24264 107.96405 68.52121 107.66097 68.769939 107.333408 68.98881 107.00584 69.20769 106.660068 69.3925 106.29609 69.54327 105.93211 69.69403 105.55692 69.80784 105.170528 69.884708 104.784137 69.96157 104.39396 70 104 70H16C15.606034 70 15.215853 69.96157 14.829456 69.884708 14.44306 69.80784 14.067874 69.69403 13.703897 69.54327 13.339921 69.3925 12.994147 69.20769 12.666576 68.98881 12.339007 68.769939 12.035934 68.52121 11.757359 68.24264 11.478782 67.964069 11.230056 67.66099 11.011181 67.33342 10.792304 67.00585 10.607485 66.66007 10.456721 66.2961 10.305957 65.93212 10.192145 65.55693 10.115288 65.17053 10.038428 64.78414 9.999999 64.39396 10 64V36C9.999999 35.606035 10.038428 35.21585 10.115288 34.829454 10.192145 34.443059 10.305957 34.067876 10.456721 33.703897 10.607485 33.339918 10.792304 32.994146 11.011181 32.666578 11.230056 32.339006 11.478782 32.035936 11.757359 31.757357 12.035934 31.478779 12.339007 31.230053 12.666577 31.011179 12.994147 30.792304 13.339921 30.607483 13.703897 30.45672 14.067874 30.305958 14.44306 30.192147 14.829456 30.115288 15.215853 30.03843 15.606034 30 16 30Z"/>
<text xml:space="preserve" transform="matrix(.6742756 0 0 .6742756 19.503195 25.5)" font-size="12" font-family="Arial"><tspan y="54" x="34.984376 42.988378 46.32438 52.99638 56.99238 60.328378 63.664377 71.66837 78.34038">Start/End</tspan></text>
</g>
</svg>
