<svg xmlns="http://www.w3.org/2000/svg" xmlns:xlink="http://www.w3.org/1999/xlink" xmlns:inkscape="http://www.inkscape.org/namespaces/inkscape" version="1.1" width="612" height="792" viewBox="0 0 612 792">
<defs>
<clipPath id="clip_1">
<path transform="matrix(.24,0,0,.24,0,0)" d="M0 0H2550V3300H0Z" clip-rule="evenodd"/>
</clipPath>
<clipPath id="clip_2">
<path transform="matrix(.24,0,0,.24,0,0)" d="M78.125 103.125H2471.875V3196.875H78.125Z" clip-rule="evenodd"/>
</clipPath>
</defs>
<g clip-path="url(#clip_1)">
<path transform="matrix(.75,0,0,.75,0,-1584)" d="M0 2112H816V3168H0Z" fill="#ffffff"/>
</g>
<g clip-path="url(#clip_2)">
<text xml:space="preserve" transform="matrix(.6742756 0 0 .6742756 -1126.7651 25.5)" font-size="18" font-family="Arial" font-weight="bold"><tspan y="31" x="2056 2066.998 2077.996 2088.9942 2093.998 2104.996 2110 2120.998 2126.002 2137 2151.004 2161.012 2172.01 2182.018 2189.02">Login Flowchart</tspan></text>
<path transform="matrix(.6742756,0,0,.6742756,-1126.4281,25.837138)" stroke-width="1" stroke-linecap="butt" stroke-miterlimit="10" stroke-linejoin="miter" fill="none" stroke="#000000" d="M2126 120V140 120 133.63"/>
<path transform="matrix(.6742756,0,0,.6742756,-1126.4281,25.837138)" d="M2126 138.88 2122.5 131.88 2126 133.63 2129.5 131.88 2126 138.88Z"/>
<path transform="matrix(.6742756,0,0,.6742756,-1126.4281,25.837138)" stroke-width="1" stroke-linecap="butt" stroke-miterlimit="10" stroke-linejoin="miter" fill="none" stroke="#000000" d="M2126 138.88 2122.5 131.88 2126 133.63 2129.5 131.88 2126 138.88Z"/>
<path transform="matrix(.6742756,0,0,.6742756,-1126.4281,25.837138)" d="M2075 60H2177C2177.5909 60 2178.176 60.057645 2178.7559 60.17293 2179.3353 60.288217 2179.898 60.45893 2180.444 60.685079 2180.99 60.911226 2181.5086 61.188455 2181.9998 61.516767 2182.4913 61.845087 2182.9459 62.218175 2183.3638 62.636037 2183.7816 63.053899 2184.1546 63.508508 2184.4827 63.999864 2184.811 64.49122 2185.0882 65.00987 2185.3145 65.55584 2185.5406 66.10181 2185.7113 66.66459 2185.8267 67.24418 2185.9422 67.82378 2185.9998 68.40905 2186 69V111C2185.9998 111.59094 2185.9422 112.17621 2185.8267 112.7558 2185.7113 113.335399 2185.5406 113.89817 2185.3145 114.44414 2185.0882 114.990108 2184.811 115.508769 2184.4827 116.00012 2184.1546 116.49148 2183.7816 116.94608 2183.3638 117.36395 2182.9459 117.78181 2182.4913 118.15489 2181.9998 118.48321 2181.5084 118.81152 2180.9898 119.08876 2180.4439 119.3149 2179.898 119.541049 2179.3353 119.71177 2178.7559 119.82706 2178.176 119.942348 2177.5909 119.99999 2177 120H2075C2074.409 119.99999 2073.8238 119.942348 2073.2442 119.82706 2072.6644 119.71177 2072.1016 119.541049 2071.5557 119.3149 2071.0096 119.08876 2070.491 118.81152 2069.9998 118.48321 2069.5084 118.15489 2069.0538 117.78181 2068.636 117.36395 2068.2183 116.94608 2067.845 116.49148 2067.5164 116.00012 2067.188 115.508769 2066.911 114.990108 2066.6849 114.44414 2066.4588 113.89817 2066.288 113.335399 2066.1727 112.7558 2066.0577 112.17621 2066 111.59094 2066 111V69C2066 68.40905 2066.0577 67.82378 2066.1727 67.24418 2066.288 66.66459 2066.4588 66.10181 2066.6849 65.55584 2066.911 65.00987 2067.188 64.49121 2067.5164 63.99986 2067.845 63.508508 2068.2183 63.053899 2068.636 62.636037 2069.0538 62.218175 2069.5084 61.845087 2069.9998 61.51677 2070.491 61.188459 2071.0096 60.91123 2071.5557 60.68508 2072.1016 60.458936 2072.6644 60.288217 2073.2442 60.17293 2073.8238 60.057645 2074.409 60 2075 60Z" fill="#dae8fc"/>
<path transform="matrix(.6742756,0,0,.6742756,-1126.4281,25.837138)" stroke-width="1" stroke-linecap="butt" stroke-miterlimit="4" stroke-linejoin="miter" fill="none" stroke="#6c8ebf" d="M2075 60H2177C2177.5909 60 2178.176 60.057645 2178.7559 60.17293 2179.3353 60.288217 2179.898 60.45893 2180.444 60.685079 2180.99 60.911226 2181.5086 61.188455 2181.9998 61.516767 2182.4913 61.845087 2182.9459 62.218175 2183.3638 62.636037 2183.7816 63.053899 2184.1546 63.508508 2184.4827 63.999864 2184.811 64.49122 2185.0882 65.00987 2185.3145 65.55584 2185.5406 66.10181 2185.7113 66.66459 2185.8267 67.24418 2185.9422 67.82378 2185.9998 68.40905 2186 69V111C2185.9998 111.59094 2185.9422 112.17621 2185.8267 112.7558 2185.7113 113.335399 2185.5406 113.89817 2185.3145 114.44414 2185.0882 114.990108 2184.811 115.508769 2184.4827 116.00012 2184.1546 116.49148 2183.7816 116.94608 2183.3638 117.36395 2182.9459 117.78181 2182.4913 118.15489 2181.9998 118.48321 2181.5084 118.81152 2180.9898 119.08876 2180.4439 119.3149 2179.898 119.541049 2179.3353 119.71177 2178.7559 119.82706 2178.176 119.942348 2177.5909 119.99999 2177 120H2075C2074.409 119.99999 2073.8238 119.942348 2073.2442 119.82706 2072.6644 119.71177 2072.1016 119.541049 2071.5557 119.3149 2071.0096 119.08876 2070.491 118.81152 2069.9998 118.48321 2069.5084 118.15489 2069.0538 117.78181 2068.636 117.36395 2068.2183 116.94608 2067.845 116.49148 2067.5164 116.00012 2067.188 115.508769 2066.911 114.990108 2066.6849 114.44414 2066.4588 113.89817 2066.288 113.335399 2066.1727 112.7558 2066.0577 112.17621 2066 111.59094 2066 111V69C2066 68.40905 2066.0577 67.82378 2066.1727 67.24418 2066.288 66.66459 2066.4588 66.10181 2066.6849 65.55584 2066.911 65.00987 2067.188 64.49121 2067.5164 63.99986 2067.845 63.508508 2068.2183 63.053899 2068.636 62.636037 2069.0538 62.218175 2069.5084 61.845087 2069.9998 61.51677 2070.491 61.188459 2071.0096 60.91123 2071.5557 60.68508 2072.1016 60.458936 2072.6644 60.288217 2073.2442 60.17293 2073.8238 60.057645 2074.409 60 2075 60Z"/>
<text xml:space="preserve" transform="matrix(.6742756 0 0 .6742756 -1126.7651 25.5)" font-size="12" font-family="Arial"><tspan y="80" x="2069.2969 2077.961 2080.625 2083.289 2089.289 2095.289 2098.625 2105.297 2111.9693 2115.3052 2121.9774 2128.6495 2135.3216 2137.9857 2144.6578 2147.9937 2155.9976 2162.6697 2166.0057 2169.3416 2176.0137">Click on Login Button</tspan></text>
<text xml:space="preserve" transform="matrix(.6742756 0 0 .6742756 -1126.7651 25.5)" font-size="12" font-family="Arial"><tspan y="94" x="2077.9688 2084.6409 2088.637 2091.973 2095.969 2102.641 2109.3133 2111.9774 2115.9735 2122.6456 2128.6456 2131.9815 2135.3175 2138.6534 2145.3255 2148.6614 2151.3255 2157.9976 2164.6697 2167.3338">or redirect to login</tspan></text>
<text xml:space="preserve" transform="matrix(.6742756 0 0 .6742756 -1126.7651 25.5)" font-size="12" font-family="Arial"><tspan y="109" x="2110.9844 2117.6566 2124.3287 2131.0008 2137.6729">page.</tspan></text>
<path transform="matrix(.6742756,0,0,.6742756,-1126.4281,25.837138)" stroke-width="1" stroke-linecap="butt" stroke-miterlimit="10" stroke-linejoin="miter" fill="none" stroke="#000000" d="M2126 200 2125.66 213.63"/>
<path transform="matrix(.6742756,0,0,.6742756,-1126.4281,25.837138)" d="M2125.53 218.88 2122.2 211.8 2125.66 213.63 2129.2 211.97 2125.53 218.88Z"/>
<path transform="matrix(.6742756,0,0,.6742756,-1126.4281,25.837138)" stroke-width="1" stroke-linecap="butt" stroke-miterlimit="10" stroke-linejoin="miter" fill="none" stroke="#000000" d="M2125.53 218.88 2122.2 211.8 2125.66 213.63 2129.2 211.97 2125.53 218.88Z"/>
<path transform="matrix(.6742756,0,0,.6742756,-1126.4281,25.837138)" d="M2066 200 2086 140H2186L2166 200H2066Z" fill="#fff2cc"/>
<path transform="matrix(.6742756,0,0,.6742756,-1126.4281,25.837138)" stroke-width="1" stroke-linecap="butt" stroke-miterlimit="10" stroke-linejoin="miter" fill="none" stroke="#d6b656" d="M2066 200 2086 140H2186L2166 200H2066Z"/>
<text xml:space="preserve" transform="matrix(.6742756 0 0 .6742756 -1126.7651 25.5)" font-size="12" font-family="Arial"><tspan y="174" x="2081.6407 2084.9766 2091.6488 2098.3209 2104.993 2108.3289 2111.6649 2120.3289 2126.3289 2133.001 2136.997 2140.333 2148.337 2158.333 2165.0052 2167.6693">Input User Email</tspan></text>
<path transform="matrix(.6742756,0,0,.6742756,-1126.4281,25.837138)" stroke-width="1" stroke-linecap="butt" stroke-miterlimit="10" stroke-linejoin="miter" fill="none" stroke="#000000" d="M2125.5 280H2128.5V296.13"/>
<path transform="matrix(.6742756,0,0,.6742756,-1126.4281,25.837138)" d="M2128.5 301.38 2125 294.38 2128.5 296.13 2132 294.38 2128.5 301.38Z"/>
<path transform="matrix(.6742756,0,0,.6742756,-1126.4281,25.837138)" stroke-width="1" stroke-linecap="butt" stroke-miterlimit="10" stroke-linejoin="miter" fill="none" stroke="#000000" d="M2128.5 301.38 2125 294.38 2128.5 296.13 2132 294.38 2128.5 301.38Z"/>
<path transform="matrix(.6742756,0,0,.6742756,-1126.4281,25.837138)" d="M2048 280 2068 220H2203L2183 280H2048Z" fill="#fff2cc"/>
<path transform="matrix(.6742756,0,0,.6742756,-1126.4281,25.837138)" stroke-width="1" stroke-linecap="butt" stroke-miterlimit="10" stroke-linejoin="miter" fill="none" stroke="#d6b656" d="M2048 280 2068 220H2203L2183 280H2048Z"/>
<text xml:space="preserve" transform="matrix(.6742756 0 0 .6742756 -1126.7651 25.5)" font-size="12" font-family="Arial"><tspan y="254" x="2069.7969 2073.1329 2079.805 2086.477 2093.1492 2096.485 2099.821 2108.485 2114.485 2121.1573 2125.1534 2128.4893 2136.4932 2143.1654 2149.1654 2155.1654 2163.8294 2170.5015 2174.4976">Input User Password</tspan></text>
<path transform="matrix(.6742756,0,0,.6742756,-1126.4281,25.837138)" stroke-width="1" stroke-linecap="butt" stroke-miterlimit="10" stroke-linejoin="miter" fill="none" stroke="#000000" d="M2261 410H2313.63"/>
<path transform="matrix(.6742756,0,0,.6742756,-1126.4281,25.837138)" d="M2318.88 410 2311.88 413.5 2313.63 410 2311.88 406.5 2318.88 410Z"/>
<path transform="matrix(.6742756,0,0,.6742756,-1126.4281,25.837138)" stroke-width="1" stroke-linecap="butt" stroke-miterlimit="10" stroke-linejoin="miter" fill="none" stroke="#000000" d="M2318.88 410 2311.88 413.5 2313.63 410 2311.88 406.5 2318.88 410Z"/>
<path transform="matrix(.6742756,0,0,.6742756,-1126.4281,25.837138)" stroke-width="1" stroke-linecap="butt" stroke-miterlimit="10" stroke-linejoin="miter" fill="none" stroke="#000000" d="M2128.5 460V473.63"/>
<path transform="matrix(.6742756,0,0,.6742756,-1126.4281,25.837138)" d="M2128.5 478.88 2125 471.88 2128.5 473.63 2132 471.88 2128.5 478.88Z"/>
<path transform="matrix(.6742756,0,0,.6742756,-1126.4281,25.837138)" stroke-width="1" stroke-linecap="butt" stroke-miterlimit="10" stroke-linejoin="miter" fill="none" stroke="#000000" d="M2128.5 478.88 2125 471.88 2128.5 473.63 2132 471.88 2128.5 478.88Z"/>
<path transform="matrix(.6742756,0,0,.6742756,-1126.4281,25.837138)" d="M2128.5 360 2261 410 2128.5 460 1996 410 2128.5 360Z" fill="#f8cecc"/>
<path transform="matrix(.6742756,0,0,.6742756,-1126.4281,25.837138)" stroke-width="1" stroke-linecap="butt" stroke-miterlimit="10" stroke-linejoin="miter" fill="none" stroke="#b85450" d="M2128.5 360 2261 410 2128.5 460 1996 410 2128.5 360Z"/>
<text xml:space="preserve" transform="matrix(.6742756 0 0 .6742756 -1126.7651 25.5)" font-size="12" font-family="Arial"><tspan y="407" x="1999.0938 2007.7577 2014.4297 2021.1017 2027.1017 2030.4378 2033.7738 2040.4458 2047.1178 2050.4539 2057.126 2067.122 2073.7943 2076.4583 2079.1224 2082.4583 2089.1304 2095.8026 2101.8026 2107.8026 2111.1385 2117.8106 2120.4747 2123.1387 2126.4747 2133.1468 2143.1429 2149.815 2152.479 2155.143 2158.479 2164.479 2171.1512 2173.8153 2176.4793 2183.1514 2189.8236 2193.1595 2195.8236 2202.4957 2209.1678 2212.5037 2216.4998 2223.1719 2225.836 2232.508 2238.508 2241.844 2247.844 2254.516">Does the email pass all email validation rules set</tspan></text>
<text xml:space="preserve" transform="matrix(.6742756 0 0 .6742756 -1126.7651 25.5)" font-size="12" font-family="Arial"><tspan y="422" x="2084.7969 2091.469 2097.469 2100.805 2104.1409 2110.813 2117.485 2120.821 2127.4932 2131.4893 2138.1614 2144.8336 2148.8297 2155.5018 2165.4979">by the program?</tspan></text>
<path transform="matrix(.6742756,0,0,.6742756,-1126.4281,25.837138)" stroke-width="1" stroke-linecap="butt" stroke-miterlimit="10" stroke-linejoin="miter" fill="none" stroke="#000000" d="M2385 380H2365V130H2136.37"/>
<path transform="matrix(.6742756,0,0,.6742756,-1126.4281,25.837138)" d="M2131.12 130 2138.12 126.5 2136.37 130 2138.12 133.5 2131.12 130Z"/>
<path transform="matrix(.6742756,0,0,.6742756,-1126.4281,25.837138)" stroke-width="1" stroke-linecap="butt" stroke-miterlimit="10" stroke-linejoin="miter" fill="none" stroke="#000000" d="M2131.12 130 2138.12 126.5 2136.37 130 2138.12 133.5 2131.12 130Z"/>
<path transform="matrix(.6742756,0,0,.6742756,-1126.4281,25.837138)" d="M2310 440 2330 380H2460L2440 440H2310Z" fill="#fff2cc"/>
<path transform="matrix(.6742756,0,0,.6742756,-1126.4281,25.837138)" stroke-width="1" stroke-linecap="butt" stroke-miterlimit="10" stroke-linejoin="miter" fill="none" stroke="#d6b656" d="M2310 440 2330 380H2460L2440 440H2310Z"/>
<text xml:space="preserve" transform="matrix(.6742756 0 0 .6742756 -1126.7651 25.5)" font-size="12" font-family="Arial"><tspan y="407" x="2336.6407 2345.9766 2352.6488 2355.9847 2362.6568 2369.3289 2372.6649 2376.0008 2384.6649 2387.3289 2394.001 2400.673 2404.6693 2408.0052 2414.6773 2418.6734 2422.6695 2429.3416">Output Clear error</tspan></text>
<text xml:space="preserve" transform="matrix(.6742756 0 0 .6742756 -1126.7651 25.5)" font-size="12" font-family="Arial"><tspan y="422" x="2315.9532 2325.9493 2332.6214 2338.6214 2344.6214 2351.2935 2357.9656 2364.6378 2367.9737 2374.6458 2381.3179 2387.3179 2390.6539 2393.9898 2397.3258 2403.9979 2407.3338 2410.6697 2417.3419 2421.338 2431.334 2434.67 2441.342 2448.0142">message next to form box</tspan></text>
<text xml:space="preserve" transform="matrix(.6742756 0 0 .6742756 -1126.7651 25.5)" font-size="12" font-family="Arial"><tspan y="429" x="2255.3282 2262.6602 2269.3323 2271.9964 2277.9964">False</tspan></text>
<path transform="matrix(.6742756,0,0,.6742756,-1126.4281,25.837138)" stroke-width="1" stroke-linecap="butt" stroke-miterlimit="10" stroke-linejoin="miter" fill="none" stroke="#000000" d="M2129 540V553.63"/>
<path transform="matrix(.6742756,0,0,.6742756,-1126.4281,25.837138)" d="M2129 558.88 2125.5 551.88 2129 553.63 2132.5 551.88 2129 558.88Z"/>
<path transform="matrix(.6742756,0,0,.6742756,-1126.4281,25.837138)" stroke-width="1" stroke-linecap="butt" stroke-miterlimit="10" stroke-linejoin="miter" fill="none" stroke="#000000" d="M2129 558.88 2125.5 551.88 2129 553.63 2132.5 551.88 2129 558.88Z"/>
<path transform="matrix(.6742756,0,0,.6742756,-1126.4281,25.837138)" d="M2069 480H2189V540H2069Z" fill="#ffe6cc"/>
<path transform="matrix(.6742756,0,0,.6742756,-1126.4281,25.837138)" stroke-width="1" stroke-linecap="butt" stroke-miterlimit="4" stroke-linejoin="miter" fill="none" stroke="#d79b00" d="M2069 480H2189V540H2069Z"/>
<text xml:space="preserve" transform="matrix(.6742756 0 0 .6742756 -1126.7651 25.5)" font-size="12" font-family="Arial"><tspan y="514" x="2096.4219 2104.4259 2113.7618 2121.7657 2128.877 2132.213 2138.885 2145.5572 2152.2293 2154.8934">POST Login</tspan></text>
<path transform="matrix(.6742756,0,0,.6742756,-1126.4281,25.837138)" stroke-width="1" stroke-linecap="butt" stroke-miterlimit="10" stroke-linejoin="miter" fill="none" stroke="#000000" d="M2128.5 620V640 620 633.63"/>
<path transform="matrix(.6742756,0,0,.6742756,-1126.4281,25.837138)" d="M2128.5 638.88 2125 631.88 2128.5 633.63 2132 631.88 2128.5 638.88Z"/>
<path transform="matrix(.6742756,0,0,.6742756,-1126.4281,25.837138)" stroke-width="1" stroke-linecap="butt" stroke-miterlimit="10" stroke-linejoin="miter" fill="none" stroke="#000000" d="M2128.5 638.88 2125 631.88 2128.5 633.63 2132 631.88 2128.5 638.88Z"/>
<path transform="matrix(.6742756,0,0,.6742756,-1126.4281,25.837138)" stroke-width="1" stroke-linecap="butt" stroke-miterlimit="10" stroke-linejoin="miter" fill="none" stroke="#000000" d="M2068.5 590H2009.3V572.5H1956.37"/>
<path transform="matrix(.6742756,0,0,.6742756,-1126.4281,25.837138)" d="M1951.12 572.5 1958.12 569 1956.37 572.5 1958.12 576 1951.12 572.5Z"/>
<path transform="matrix(.6742756,0,0,.6742756,-1126.4281,25.837138)" stroke-width="1" stroke-linecap="butt" stroke-miterlimit="10" stroke-linejoin="miter" fill="none" stroke="#000000" d="M1951.12 572.5 1958.12 569 1956.37 572.5 1958.12 576 1951.12 572.5Z"/>
<path transform="matrix(.6742756,0,0,.6742756,-1126.4281,25.837138)" d="M2068.5 560H2188.5V620H2068.5Z" fill="#ffe6cc"/>
<path transform="matrix(.6742756,0,0,.6742756,-1126.4281,25.837138)" stroke-width="1" stroke-linecap="butt" stroke-miterlimit="4" stroke-linejoin="miter" fill="none" stroke="#d79b00" d="M2068.5 560H2188.5V620H2068.5Z"/>
<text xml:space="preserve" transform="matrix(.6742756 0 0 .6742756 -1126.7651 25.5)" font-size="12" font-family="Arial"><tspan y="587" x="2073.3126 2081.9766 2088.6488 2098.6448 2105.317 2111.989 2115.985 2122.6573 2125.9932 2134.6573 2140.6573 2147.3294 2151.3255 2154.6614 2162.6654 2172.6614 2179.3336 2181.9976">Compare User Email</tspan></text>
<text xml:space="preserve" transform="matrix(.6742756 0 0 .6742756 -1126.7651 25.5)" font-size="12" font-family="Arial"><tspan y="602" x="2075.2969 2078.6329 2085.305 2088.6409 2095.313 2097.977 2100.641 2103.977 2110.6492 2116.6492 2119.3133 2125.3133 2128.6492 2131.3133 2137.9854 2144.6575 2147.9935 2154.6656 2164.6617 2171.3338 2173.9979 2176.6619">to all existing emails</tspan></text>
<path transform="matrix(.6742756,0,0,.6742756,-1126.4281,25.837138)" stroke-width="1" stroke-linecap="butt" stroke-miterlimit="10" stroke-linejoin="miter" fill="none" stroke="#000000" d="M2128.5 720V763.63"/>
<path transform="matrix(.6742756,0,0,.6742756,-1126.4281,25.837138)" d="M2128.5 768.88 2125 761.88 2128.5 763.63 2132 761.88 2128.5 768.88Z"/>
<path transform="matrix(.6742756,0,0,.6742756,-1126.4281,25.837138)" stroke-width="1" stroke-linecap="butt" stroke-miterlimit="10" stroke-linejoin="miter" fill="none" stroke="#000000" d="M2128.5 768.88 2125 761.88 2128.5 763.63 2132 761.88 2128.5 768.88Z"/>
<path transform="matrix(.6742756,0,0,.6742756,-1126.4281,25.837138)" stroke-width="1" stroke-linecap="butt" stroke-miterlimit="10" stroke-linejoin="miter" fill="none" stroke="#000000" d="M2208.5 680H2385V446.37"/>
<path transform="matrix(.6742756,0,0,.6742756,-1126.4281,25.837138)" d="M2385 441.12 2388.5 448.12 2385 446.37 2381.5 448.12 2385 441.12Z"/>
<path transform="matrix(.6742756,0,0,.6742756,-1126.4281,25.837138)" stroke-width="1" stroke-linecap="butt" stroke-miterlimit="10" stroke-linejoin="miter" fill="none" stroke="#000000" d="M2385 441.12 2388.5 448.12 2385 446.37 2381.5 448.12 2385 441.12Z"/>
<path transform="matrix(.6742756,0,0,.6742756,-1126.4281,25.837138)" d="M2128.5 640 2208.5 680 2128.5 720 2048.5 680 2128.5 640Z" fill="#f8cecc"/>
<path transform="matrix(.6742756,0,0,.6742756,-1126.4281,25.837138)" stroke-width="1" stroke-linecap="butt" stroke-miterlimit="10" stroke-linejoin="miter" fill="none" stroke="#b85450" d="M2128.5 640 2208.5 680 2128.5 720 2048.5 680 2128.5 640Z"/>
<text xml:space="preserve" transform="matrix(.6742756 0 0 .6742756 -1126.7651 25.5)" font-size="12" font-family="Arial"><tspan y="684" x="2080.3126 2088.9766 2095.6488 2102.3209 2108.3209 2111.6568 2119.6607 2129.6568 2136.3289 2138.993 2141.657 2144.993 2152.9969 2158.9969 2161.661 2167.661 2170.9969">Does Email Exist?</tspan></text>
<path transform="matrix(.6742756,0,0,.6742756,-1126.4281,25.837138)" stroke-width="1" stroke-linecap="butt" stroke-miterlimit="10" stroke-linejoin="miter" fill="none" stroke="#000000" d="M2213.5 810H2422.5V446.37"/>
<path transform="matrix(.6742756,0,0,.6742756,-1126.4281,25.837138)" d="M2422.5 441.12 2426 448.12 2422.5 446.37 2419 448.12 2422.5 441.12Z"/>
<path transform="matrix(.6742756,0,0,.6742756,-1126.4281,25.837138)" stroke-width="1" stroke-linecap="butt" stroke-miterlimit="10" stroke-linejoin="miter" fill="none" stroke="#000000" d="M2422.5 441.12 2426 448.12 2422.5 446.37 2419 448.12 2422.5 441.12Z"/>
<path transform="matrix(.6742756,0,0,.6742756,-1126.4281,25.837138)" stroke-width="1" stroke-linecap="butt" stroke-miterlimit="10" stroke-linejoin="miter" fill="none" stroke="#000000" d="M2128.5 850V870 850 863.63"/>
<path transform="matrix(.6742756,0,0,.6742756,-1126.4281,25.837138)" d="M2128.5 868.88 2125 861.88 2128.5 863.63 2132 861.88 2128.5 868.88Z"/>
<path transform="matrix(.6742756,0,0,.6742756,-1126.4281,25.837138)" stroke-width="1" stroke-linecap="butt" stroke-miterlimit="10" stroke-linejoin="miter" fill="none" stroke="#000000" d="M2128.5 868.88 2125 861.88 2128.5 863.63 2132 861.88 2128.5 868.88Z"/>
<path transform="matrix(.6742756,0,0,.6742756,-1126.4281,25.837138)" d="M2128.5 770 2213.5 810 2128.5 850 2043.5 810 2128.5 770Z" fill="#f8cecc"/>
<path transform="matrix(.6742756,0,0,.6742756,-1126.4281,25.837138)" stroke-width="1" stroke-linecap="butt" stroke-miterlimit="10" stroke-linejoin="miter" fill="none" stroke="#b85450" d="M2128.5 770 2213.5 810 2128.5 850 2043.5 810 2128.5 770Z"/>
<text xml:space="preserve" transform="matrix(.6742756 0 0 .6742756 -1126.7651 25.5)" font-size="12" font-family="Arial"><tspan y="807" x="2068.9688 2077.6329 2084.305 2090.977 2096.977 2100.313 2108.317 2114.989 2120.989 2126.989 2135.653 2142.3253 2146.3214 2152.9935 2156.3294 2166.3255 2172.9976 2176.3336 2182.3336">Does Password Match</tspan></text>
<text xml:space="preserve" transform="matrix(.6742756 0 0 .6742756 -1126.7651 25.5)" font-size="12" font-family="Arial"><tspan y="822" x="2077.625 2081.621 2088.2933 2091.6292 2098.3013 2102.2974 2108.9696 2115.6417 2121.6417 2128.3138 2131.6497 2134.9857 2141.6578 2144.9937 2151.6658 2161.6619 2168.334 2170.998 2173.662">reference to email?</tspan></text>
<path transform="matrix(.6742756,0,0,.6742756,-1126.4281,25.837138)" stroke-width="1" stroke-linecap="butt" stroke-miterlimit="10" stroke-linejoin="miter" fill="none" stroke="#000000" d="M1950 572.5H2009.3V590H2062.13"/>
<path transform="matrix(.6742756,0,0,.6742756,-1126.4281,25.837138)" d="M2067.38 590 2060.38 593.5 2062.13 590 2060.38 586.5 2067.38 590Z"/>
<path transform="matrix(.6742756,0,0,.6742756,-1126.4281,25.837138)" stroke-width="1" stroke-linecap="butt" stroke-miterlimit="10" stroke-linejoin="miter" fill="none" stroke="#000000" d="M2067.38 590 2060.38 593.5 2062.13 590 2060.38 586.5 2067.38 590Z"/>
<path transform="matrix(.6742756,0,0,.6742756,-1126.4281,25.837138)" stroke-width="1" stroke-linecap="butt" stroke-miterlimit="10" stroke-linejoin="miter" fill="none" stroke="#000000" d="M1880 630V790H2079.63"/>
<path transform="matrix(.6742756,0,0,.6742756,-1126.4281,25.837138)" d="M2084.88 790 2077.88 793.5 2079.63 790 2077.88 786.5 2084.88 790Z"/>
<path transform="matrix(.6742756,0,0,.6742756,-1126.4281,25.837138)" stroke-width="1" stroke-linecap="butt" stroke-miterlimit="10" stroke-linejoin="miter" fill="none" stroke="#000000" d="M2084.88 790 2077.88 793.5 2079.63 790 2077.88 786.5 2084.88 790Z"/>
<path transform="matrix(.6742756,0,0,.6742756,-1126.4281,25.837138)" stroke-width="1" stroke-linecap="butt" stroke-miterlimit="10" stroke-linejoin="miter" fill="none" stroke="#000000" d="M1830.3 625.65 1840 625.7V900H2062.13"/>
<path transform="matrix(.6742756,0,0,.6742756,-1126.4281,25.837138)" d="M2067.38 900 2060.38 903.5 2062.13 900 2060.38 896.5 2067.38 900Z"/>
<path transform="matrix(.6742756,0,0,.6742756,-1126.4281,25.837138)" stroke-width="1" stroke-linecap="butt" stroke-miterlimit="10" stroke-linejoin="miter" fill="none" stroke="#000000" d="M2067.38 900 2060.38 903.5 2062.13 900 2060.38 896.5 2067.38 900Z"/>
<path transform="matrix(.6742756,0,0,.6742756,-1126.4281,25.837138)" stroke-width="1" stroke-linecap="butt" stroke-miterlimit="10" stroke-linejoin="miter" fill="none" stroke="#000000" d="M1950 615H1999.3V680H2042.13"/>
<path transform="matrix(.6742756,0,0,.6742756,-1126.4281,25.837138)" d="M2047.38 680 2040.38 683.5 2042.13 680 2040.38 676.5 2047.38 680Z"/>
<path transform="matrix(.6742756,0,0,.6742756,-1126.4281,25.837138)" stroke-width="1" stroke-linecap="butt" stroke-miterlimit="10" stroke-linejoin="miter" fill="none" stroke="#000000" d="M2047.38 680 2040.38 683.5 2042.13 680 2040.38 676.5 2047.38 680Z"/>
<path transform="matrix(.6742756,0,0,.6742756,-1126.4281,25.837138)" d="M1810 530C1810 521.72 1841.34 515 1880 515 1898.57 515 1916.37 516.58 1929.5 519.39 1942.63 522.21 1950 526.02 1950 530V615C1950 623.28 1918.66 630 1880 630 1841.34 630 1810 623.28 1810 615V530Z" fill="#e1d5e7"/>
<path transform="matrix(.6742756,0,0,.6742756,-1126.4281,25.837138)" stroke-width="1" stroke-linecap="butt" stroke-miterlimit="10" stroke-linejoin="miter" fill="none" stroke="#9673a6" d="M1810 530C1810 521.72 1841.34 515 1880 515 1898.57 515 1916.37 516.58 1929.5 519.39 1942.63 522.21 1950 526.02 1950 530V615C1950 623.28 1918.66 630 1880 630 1841.34 630 1810 623.28 1810 615V530Z"/>
<path transform="matrix(.6742756,0,0,.6742756,-1126.4281,25.837138)" stroke-width="1" stroke-linecap="butt" stroke-miterlimit="10" stroke-linejoin="miter" fill="none" stroke="#9673a6" d="M1950 530C1950 538.28 1918.66 545 1880 545 1841.34 545 1810 538.28 1810 530"/>
<text xml:space="preserve" transform="matrix(.6742756 0 0 .6742756 -1126.7651 25.5)" font-size="12" font-family="Arial"><tspan y="589" x="1822.2969 1830.3009 1836.9729 1843.6449 1846.3088 1848.9728 1854.9728 1861.6448 1864.9808 1867.6448 1874.3168 1880.9888 1889.6527 1896.3247 1904.9887 1911.6607 1918.3327 1921.6687 1928.3407 1934.3407">ApplicationDbContext</tspan></text>
<path transform="matrix(.6742756,0,0,.6742756,-1126.4281,25.837138)" stroke-width="1" stroke-linecap="butt" stroke-miterlimit="10" stroke-linejoin="miter" fill="none" stroke="#000000" d="M2069 510H2009.5V551.3L1956.37 551.26"/>
<path transform="matrix(.6742756,0,0,.6742756,-1126.4281,25.837138)" d="M1951.12 551.25 1958.12 547.76 1956.37 551.26 1958.12 554.76 1951.12 551.25Z"/>
<path transform="matrix(.6742756,0,0,.6742756,-1126.4281,25.837138)" stroke-width="1" stroke-linecap="butt" stroke-miterlimit="10" stroke-linejoin="miter" fill="none" stroke="#000000" d="M1951.12 551.25 1958.12 547.76 1956.37 551.26 1958.12 554.76 1951.12 551.25Z"/>
<path transform="matrix(.6742756,0,0,.6742756,-1126.4281,25.837138)" stroke-width="1" stroke-linecap="butt" stroke-miterlimit="10" stroke-linejoin="miter" fill="none" stroke="#000000" d="M2086 790H1880V636.37"/>
<path transform="matrix(.6742756,0,0,.6742756,-1126.4281,25.837138)" d="M1880 631.12 1883.5 638.12 1880 636.37 1876.5 638.12 1880 631.12Z"/>
<path transform="matrix(.6742756,0,0,.6742756,-1126.4281,25.837138)" stroke-width="1" stroke-linecap="butt" stroke-miterlimit="10" stroke-linejoin="miter" fill="none" stroke="#000000" d="M1880 631.12 1883.5 638.12 1880 636.37 1876.5 638.12 1880 631.12Z"/>
<text xml:space="preserve" transform="matrix(.6742756 0 0 .6742756 -1126.7651 25.5)" font-size="12" font-family="Arial"><tspan y="669" x="2219.3282 2226.6602 2233.3323 2235.9964 2241.9964">False</tspan></text>
<text xml:space="preserve" transform="matrix(.6742756 0 0 .6742756 -1126.7651 25.5)" font-size="12" font-family="Arial"><tspan y="799" x="2224.3282 2231.6602 2238.3323 2240.9964 2246.9964">False</tspan></text>
<text xml:space="preserve" transform="matrix(.6742756 0 0 .6742756 -1126.7651 25.5)" font-size="12" font-family="Arial"><tspan y="729" x="2155.875 2162.7598 2166.7559 2173.428">True</tspan></text>
<text xml:space="preserve" transform="matrix(.6742756 0 0 .6742756 -1126.7651 25.5)" font-size="12" font-family="Arial"><tspan y="859" x="2171.875 2178.7598 2182.7559 2189.428">True</tspan></text>
<path transform="matrix(.6742756,0,0,.6742756,-1126.4281,25.837138)" stroke-width="1" stroke-linecap="butt" stroke-miterlimit="10" stroke-linejoin="miter" fill="none" stroke="#000000" d="M2128.5 930 2128.84 943.63"/>
<path transform="matrix(.6742756,0,0,.6742756,-1126.4281,25.837138)" d="M2128.97 948.88 2125.3 941.97 2128.84 943.63 2132.3 941.8 2128.97 948.88Z"/>
<path transform="matrix(.6742756,0,0,.6742756,-1126.4281,25.837138)" stroke-width="1" stroke-linecap="butt" stroke-miterlimit="10" stroke-linejoin="miter" fill="none" stroke="#000000" d="M2128.97 948.88 2125.3 941.97 2128.84 943.63 2132.3 941.8 2128.97 948.88Z"/>
<path transform="matrix(.6742756,0,0,.6742756,-1126.4281,25.837138)" d="M2068.5 870H2188.5V930H2068.5Z" fill="#ffe6cc"/>
<path transform="matrix(.6742756,0,0,.6742756,-1126.4281,25.837138)" stroke-width="1" stroke-linecap="butt" stroke-miterlimit="4" stroke-linejoin="miter" fill="none" stroke="#d79b00" d="M2068.5 870H2188.5V930H2068.5Z"/>
<text xml:space="preserve" transform="matrix(.6742756 0 0 .6742756 -1126.7651 25.5)" font-size="12" font-family="Arial"><tspan y="883" x="2078.3126 2086.3165 2092.3165 2098.3165 2100.9805 2107.6527 2114.3248 2117.6607 2124.3328 2130.3328 2137.005 2141.001 2144.337 2151.009 2154.345 2163.009 2169.009 2175.6812">Assign user a User</tspan></text>
<text xml:space="preserve" transform="matrix(.6742756 0 0 .6742756 -1126.7651 25.5)" font-size="12" font-family="Arial"><tspan y="897" x="2075.625 2083.629 2090.301 2096.301 2102.301 2104.965 2111.6373 2118.3094 2121.6453 2130.3094 2136.9815 2143.6536 2149.6536 2152.3177 2158.9898 2162.3258 2168.9979 2175.67">Session Cookie and</tspan></text>
<text xml:space="preserve" transform="matrix(.6742756 0 0 .6742756 -1126.7651 25.5)" font-size="12" font-family="Arial"><tspan y="912" x="2082.2969 2088.969 2092.965 2099.6373 2105.6373 2108.3013 2114.9735 2121.6456 2124.9815 2131.6536 2137.6536 2143.6536 2150.3258 2156.3258 2162.3258 2165.6617 2168.9976">provide access to</tspan></text>
<text xml:space="preserve" transform="matrix(.6742756 0 0 .6742756 -1126.7651 25.5)" font-size="12" font-family="Arial"><tspan y="926" x="2071.2969 2077.969 2083.969 2089.969 2096.641 2102.641 2108.641 2112.6373 2115.3013 2121.9735 2127.9735 2133.9735 2140.6456 2147.3177 2150.6536 2157.3258 2163.9979 2170.67 2177.342 2183.342">access-locked pages.</tspan></text>
<path transform="matrix(.6742756,0,0,.6742756,-1126.4281,25.837138)" d="M2074 1030H2176C2176.5909 1030 2177.176 1030.0576 2177.7554 1030.1729 2178.3353 1030.2882 2178.898 1030.4589 2179.4439 1030.6849 2179.99 1030.9111 2180.5086 1031.1884 2181 1031.5167 2181.4915 1031.8451 2181.946 1032.2182 2182.3638 1032.636 2182.7816 1033.0538 2183.1546 1033.5084 2183.483 1033.9998 2183.8114 1034.4911 2184.0885 1035.0098 2184.3145 1035.5558 2184.5408 1036.1017 2184.7115 1036.6644 2184.827 1037.2442 2184.9422 1037.8236 2184.9998 1038.4089 2185 1039V1081C2184.9998 1081.591 2184.9422 1082.1762 2184.827 1082.7556 2184.7115 1083.3353 2184.5408 1083.8981 2184.3145 1084.444 2184.0885 1084.99 2183.8114 1085.5087 2183.483 1086 2183.1546 1086.4913 2182.7816 1086.946 2182.3638 1087.3639 2181.946 1087.7816 2181.4915 1088.1547 2181 1088.483 2180.5086 1088.8113 2179.99 1089.0885 2179.4439 1089.3147 2178.898 1089.5409 2178.3353 1089.7117 2177.7554 1089.827 2177.176 1089.9424 2176.5909 1090 2176 1090H2074C2073.409 1090 2072.8236 1089.9424 2072.2442 1089.827 2071.6644 1089.7117 2071.1016 1089.5409 2070.5557 1089.3147 2070.0098 1089.0885 2069.4913 1088.8113 2068.9998 1088.483 2068.5084 1088.1547 2068.0538 1087.7816 2067.636 1087.3639 2067.218 1086.946 2066.845 1086.4913 2066.5167 1086 2066.1883 1085.5087 2065.911 1084.99 2065.685 1084.444 2065.4588 1083.8981 2065.288 1083.3353 2065.1729 1082.7556 2065.0574 1082.1762 2064.9998 1081.591 2065 1081V1039C2064.9998 1038.4089 2065.0574 1037.8236 2065.1727 1037.244 2065.288 1036.6643 2065.4588 1036.1016 2065.685 1035.5557 2065.911 1035.0097 2066.1883 1034.491 2066.5167 1033.9996 2066.845 1033.5083 2067.218 1033.0538 2067.636 1032.636 2068.0538 1032.2182 2068.5084 1031.8451 2068.9998 1031.5167 2069.4913 1031.1884 2070.0098 1030.9111 2070.5557 1030.6849 2071.1016 1030.4589 2071.6644 1030.2882 2072.2442 1030.1729 2072.8236 1030.0576 2073.409 1030 2074 1030Z" fill="#dae8fc"/>
<path transform="matrix(.6742756,0,0,.6742756,-1126.4281,25.837138)" stroke-width="1" stroke-linecap="butt" stroke-miterlimit="4" stroke-linejoin="miter" fill="none" stroke="#6c8ebf" d="M2074 1030H2176C2176.5909 1030 2177.176 1030.0576 2177.7554 1030.1729 2178.3353 1030.2882 2178.898 1030.4589 2179.4439 1030.6849 2179.99 1030.9111 2180.5086 1031.1884 2181 1031.5167 2181.4915 1031.8451 2181.946 1032.2182 2182.3638 1032.636 2182.7816 1033.0538 2183.1546 1033.5084 2183.483 1033.9998 2183.8114 1034.4911 2184.0885 1035.0098 2184.3145 1035.5558 2184.5408 1036.1017 2184.7115 1036.6644 2184.827 1037.2442 2184.9422 1037.8236 2184.9998 1038.4089 2185 1039V1081C2184.9998 1081.591 2184.9422 1082.1762 2184.827 1082.7556 2184.7115 1083.3353 2184.5408 1083.8981 2184.3145 1084.444 2184.0885 1084.99 2183.8114 1085.5087 2183.483 1086 2183.1546 1086.4913 2182.7816 1086.946 2182.3638 1087.3639 2181.946 1087.7816 2181.4915 1088.1547 2181 1088.483 2180.5086 1088.8113 2179.99 1089.0885 2179.4439 1089.3147 2178.898 1089.5409 2178.3353 1089.7117 2177.7554 1089.827 2177.176 1089.9424 2176.5909 1090 2176 1090H2074C2073.409 1090 2072.8236 1089.9424 2072.2442 1089.827 2071.6644 1089.7117 2071.1016 1089.5409 2070.5557 1089.3147 2070.0098 1089.0885 2069.4913 1088.8113 2068.9998 1088.483 2068.5084 1088.1547 2068.0538 1087.7816 2067.636 1087.3639 2067.218 1086.946 2066.845 1086.4913 2066.5167 1086 2066.1883 1085.5087 2065.911 1084.99 2065.685 1084.444 2065.4588 1083.8981 2065.288 1083.3353 2065.1729 1082.7556 2065.0574 1082.1762 2064.9998 1081.591 2065 1081V1039C2064.9998 1038.4089 2065.0574 1037.8236 2065.1727 1037.244 2065.288 1036.6643 2065.4588 1036.1016 2065.685 1035.5557 2065.911 1035.0097 2066.1883 1034.491 2066.5167 1033.9996 2066.845 1033.5083 2067.218 1033.0538 2067.636 1032.636 2068.0538 1032.2182 2068.5084 1031.8451 2068.9998 1031.5167 2069.4913 1031.1884 2070.0098 1030.9111 2070.5557 1030.6849 2071.1016 1030.4589 2071.6644 1030.2882 2072.2442 1030.1729 2072.8236 1030.0576 2073.409 1030 2074 1030Z"/>
<text xml:space="preserve" transform="matrix(.6742756 0 0 .6742756 -1126.7651 25.5)" font-size="12" font-family="Arial"><tspan y="1064" x="2114.3126 2122.3165 2128.9886">End</tspan></text>
<path transform="matrix(.6742756,0,0,.6742756,-1126.4281,25.837138)" stroke-width="1" stroke-linecap="butt" stroke-miterlimit="10" stroke-linejoin="miter" fill="none" stroke="#000000" d="M2129 1010H2125V1023.63"/>
<path transform="matrix(.6742756,0,0,.6742756,-1126.4281,25.837138)" d="M2125 1028.88 2121.5 1021.88 2125 1023.63 2128.5 1021.88 2125 1028.88Z"/>
<path transform="matrix(.6742756,0,0,.6742756,-1126.4281,25.837138)" stroke-width="1" stroke-linecap="butt" stroke-miterlimit="10" stroke-linejoin="miter" fill="none" stroke="#000000" d="M2125 1028.88 2121.5 1021.88 2125 1023.63 2128.5 1021.88 2125 1028.88Z"/>
<path transform="matrix(.6742756,0,0,.6742756,-1126.4281,25.837138)" d="M2069 1010 2089 950H2189L2169 1010H2069Z" fill="#fff2cc"/>
<path transform="matrix(.6742756,0,0,.6742756,-1126.4281,25.837138)" stroke-width="1" stroke-linecap="butt" stroke-miterlimit="10" stroke-linejoin="miter" fill="none" stroke="#d6b656" d="M2069 1010 2089 950H2189L2169 1010H2069Z"/>
<text xml:space="preserve" transform="matrix(.6742756 0 0 .6742756 -1126.7651 25.5)" font-size="12" font-family="Arial"><tspan y="984" x="2096.4219 2105.086 2111.758 2115.094 2121.766 2125.7623 2132.4344 2135.7703 2143.5606 2146.2247 2152.8968">Return View</tspan></text>
<text xml:space="preserve" transform="matrix(.6742756 0 0 .6742756 -1126.7651 25.5)" font-size="12" font-family="Arial"><tspan y="459" x="2166.875 2173.7598 2177.7559 2184.428">True</tspan></text>
<text xml:space="preserve" transform="matrix(.6742756 0 0 .6742756 -1126.7651 25.5)" font-size="12" font-family="Arial"><tspan y="19" x="1719.6563 1727.6603 1734.3323">Key</tspan></text>
<path transform="matrix(.6742756,0,0,.6742756,-1126.4281,25.837138)" d="M1710 80H1810V120H1710Z" fill="#ffe6cc"/>
<path transform="matrix(.6742756,0,0,.6742756,-1126.4281,25.837138)" stroke-width="1" stroke-linecap="butt" stroke-miterlimit="4" stroke-linejoin="miter" fill="none" stroke="#d79b00" d="M1710 80H1810V120H1710Z"/>
<text xml:space="preserve" transform="matrix(.6742756 0 0 .6742756 -1126.7651 25.5)" font-size="12" font-family="Arial"><tspan y="104" x="1738.3125 1746.3165 1750.3125 1756.9845 1762.9845 1769.6565 1775.6565">Process</tspan></text>
<path transform="matrix(.6742756,0,0,.6742756,-1126.4281,25.837138)" d="M1705 170 1725 130H1815L1795 170H1705Z" fill="#fff2cc"/>
<path transform="matrix(.6742756,0,0,.6742756,-1126.4281,25.837138)" stroke-width="1" stroke-linecap="butt" stroke-miterlimit="10" stroke-linejoin="miter" fill="none" stroke="#d6b656" d="M1705 170 1725 130H1815L1795 170H1705Z"/>
<text xml:space="preserve" transform="matrix(.6742756 0 0 .6742756 -1126.7651 25.5)" font-size="12" font-family="Arial"><tspan y="154" x="1726.9688 1730.3048 1736.9768 1743.6488 1750.3208 1753.6569 1756.9929 1766.329 1773.001 1776.337 1783.009 1789.681">Input/Output</tspan></text>
<path transform="matrix(.6742756,0,0,.6742756,-1126.4281,25.837138)" d="M1760 180 1800 215 1760 250 1720 215 1760 180Z" fill="#f8cecc"/>
<path transform="matrix(.6742756,0,0,.6742756,-1126.4281,25.837138)" stroke-width="1" stroke-linecap="butt" stroke-miterlimit="10" stroke-linejoin="miter" fill="none" stroke="#b85450" d="M1760 180 1800 215 1760 250 1720 215 1760 180Z"/>
<text xml:space="preserve" transform="matrix(.6742756 0 0 .6742756 -1126.7651 25.5)" font-size="12" font-family="Arial"><tspan y="219" x="1736.9844 1745.6483 1752.3203 1758.3203 1760.9843 1766.9843 1769.6482 1776.3202">Decision</tspan></text>
<path transform="matrix(.6742756,0,0,.6742756,-1126.4281,25.837138)" d="M1730 270C1730 261.72 1743.43 255 1760 255 1767.96 255 1775.59 256.58 1781.21 259.39 1786.84 262.21 1790 266.02 1790 270V305C1790 313.28 1776.57 320 1760 320 1743.43 320 1730 313.28 1730 305V270Z" fill="#e1d5e7"/>
<path transform="matrix(.6742756,0,0,.6742756,-1126.4281,25.837138)" stroke-width="1" stroke-linecap="butt" stroke-miterlimit="10" stroke-linejoin="miter" fill="none" stroke="#9673a6" d="M1730 270C1730 261.72 1743.43 255 1760 255 1767.96 255 1775.59 256.58 1781.21 259.39 1786.84 262.21 1790 266.02 1790 270V305C1790 313.28 1776.57 320 1760 320 1743.43 320 1730 313.28 1730 305V270Z"/>
<path transform="matrix(.6742756,0,0,.6742756,-1126.4281,25.837138)" stroke-width="1" stroke-linecap="butt" stroke-miterlimit="10" stroke-linejoin="miter" fill="none" stroke="#9673a6" d="M1790 270C1790 278.28 1776.57 285 1760 285 1743.43 285 1730 278.28 1730 270"/>
<text xml:space="preserve" transform="matrix(.6742756 0 0 .6742756 -1126.7651 25.5)" font-size="12" font-family="Arial"><tspan y="304" x="1734.3125 1742.9765 1749.6484 1752.9845 1759.6565 1766.3285 1773.0005 1779.0005">Database</tspan></text>
<path transform="matrix(.6742756,0,0,.6742756,-1126.4281,25.837138)" stroke-width="1" stroke-linecap="butt" stroke-miterlimit="10" stroke-linejoin="miter" fill="none" stroke="#000000" d="M1745 340 1771.18 374.91"/>
<path transform="matrix(.6742756,0,0,.6742756,-1126.4281,25.837138)" d="M1774.33 379.11 1767.33 375.61 1771.18 374.91 1772.93 371.41 1774.33 379.11Z"/>
<path transform="matrix(.6742756,0,0,.6742756,-1126.4281,25.837138)" stroke-width="1" stroke-linecap="butt" stroke-miterlimit="10" stroke-linejoin="miter" fill="none" stroke="#000000" d="M1774.33 379.11 1767.33 375.61 1771.18 374.91 1772.93 371.41 1774.33 379.11Z"/>
<text xml:space="preserve" transform="matrix(.6742756 0 0 .6742756 -1126.7651 25.5)" font-size="12" font-family="Arial"><tspan y="349" x="1766.3125 1774.9765 1777.6404 1781.6364 1788.3084 1794.3084 1797.6444 1800.3084 1806.9804">Direction</tspan></text>
<path transform="matrix(.6742756,0,0,.6742756,-1126.4281,25.837138)" d="M1716 30H1804C1804.3938 30 1804.7839 30.03843 1805.1703 30.115288 1805.5567 30.192147 1805.9319 30.305956 1806.2959 30.456719 1806.6598 30.607483 1807.0056 30.792304 1807.3333 31.011179 1807.6609 31.230053 1807.964 31.478779 1808.2426 31.757357 1808.5211 32.035936 1808.7698 32.339006 1808.9885 32.666578 1809.2074 32.994146 1809.3923 33.339918 1809.5431 33.703897 1809.6939 34.067876 1809.8078 34.443059 1809.8847 34.829454 1809.9614 35.21585 1809.9999 35.606035 1810 36V64C1809.9999 64.39396 1809.9614 64.78414 1809.8845 65.17053 1809.8078 65.55693 1809.6939 65.93212 1809.5431 66.2961 1809.3923 66.66007 1809.2075 67.00585 1808.9887 67.33342 1808.7698 67.66099 1808.5211 67.964069 1808.2426 68.24264 1807.964 68.52121 1807.6609 68.769939 1807.3333 68.98881 1807.0056 69.20769 1806.6598 69.3925 1806.2959 69.54327 1805.9319 69.69403 1805.5567 69.80784 1805.1703 69.884708 1804.7839 69.96157 1804.3938 70 1804 70H1716C1715.606 70 1715.2157 69.96157 1714.8294 69.884708 1714.4429 69.80784 1714.0676 69.69403 1713.7037 69.54327 1713.3397 69.3925 1712.994 69.20769 1712.6665 68.98881 1712.3389 68.769939 1712.0358 68.52121 1711.7572 68.24264 1711.4786 67.964069 1711.2299 67.66099 1711.011 67.33342 1710.7921 67.00585 1710.6073 66.66007 1710.4566 66.2961 1710.3058 65.93212 1710.192 65.55693 1710.1152 65.17053 1710.0383 64.78414 1709.9999 64.39396 1710 64V36C1709.9999 35.606035 1710.0383 35.21585 1710.1151 34.829454 1710.1919 34.443059 1710.3058 34.067876 1710.4566 33.703897 1710.6073 33.339918 1710.7921 32.994146 1711.0111 32.666578 1711.23 32.339006 1711.4786 32.035936 1711.7572 31.757357 1712.0358 31.478779 1712.3389 31.230053 1712.6664 31.011179 1712.9939 30.792304 1713.3397 30.607483 1713.7037 30.45672 1714.0676 30.305958 1714.4429 30.192147 1714.8294 30.115288 1715.2157 30.03843 1715.606 30 1716 30Z" fill="#dae8fc"/>
<path transform="matrix(.6742756,0,0,.6742756,-1126.4281,25.837138)" stroke-width="1" stroke-linecap="butt" stroke-miterlimit="4" stroke-linejoin="miter" fill="none" stroke="#6c8ebf" d="M1716 30H1804C1804.3938 30 1804.7839 30.03843 1805.1703 30.115288 1805.5567 30.192147 1805.9319 30.305956 1806.2959 30.456719 1806.6598 30.607483 1807.0056 30.792304 1807.3333 31.011179 1807.6609 31.230053 1807.964 31.478779 1808.2426 31.757357 1808.5211 32.035936 1808.7698 32.339006 1808.9885 32.666578 1809.2074 32.994146 1809.3923 33.339918 1809.5431 33.703897 1809.6939 34.067876 1809.8078 34.443059 1809.8847 34.829454 1809.9614 35.21585 1809.9999 35.606035 1810 36V64C1809.9999 64.39396 1809.9614 64.78414 1809.8845 65.17053 1809.8078 65.55693 1809.6939 65.93212 1809.5431 66.2961 1809.3923 66.66007 1809.2075 67.00585 1808.9887 67.33342 1808.7698 67.66099 1808.5211 67.964069 1808.2426 68.24264 1807.964 68.52121 1807.6609 68.769939 1807.3333 68.98881 1807.0056 69.20769 1806.6598 69.3925 1806.2959 69.54327 1805.9319 69.69403 1805.5567 69.80784 1805.1703 69.884708 1804.7839 69.96157 1804.3938 70 1804 70H1716C1715.606 70 1715.2157 69.96157 1714.8294 69.884708 1714.4429 69.80784 1714.0676 69.69403 1713.7037 69.54327 1713.3397 69.3925 1712.994 69.20769 1712.6665 68.98881 1712.3389 68.769939 1712.0358 68.52121 1711.7572 68.24264 1711.4786 67.964069 1711.2299 67.66099 1711.011 67.33342 1710.7921 67.00585 1710.6073 66.66007 1710.4566 66.2961 1710.3058 65.93212 1710.192 65.55693 1710.1152 65.17053 1710.0383 64.78414 1709.9999 64.39396 1710 64V36C1709.9999 35.606035 1710.0383 35.21585 1710.1151 34.829454 1710.1919 34.443059 1710.3058 34.067876 1710.4566 33.703897 1710.6073 33.339918 1710.7921 32.994146 1711.0111 32.666578 1711.23 32.339006 1711.4786 32.035936 1711.7572 31.757357 1712.0358 31.478779 1712.3389 31.230053 1712.6664 31.011179 1712.9939 30.792304 1713.3397 30.607483 1713.7037 30.45672 1714.0676 30.305958 1714.4429 30.192147 1714.8294 30.115288 1715.2157 30.03843 1715.606 30 1716 30Z"/>
<text xml:space="preserve" transform="matrix(.6742756 0 0 .6742756 -1126.7651 25.5)" font-size="12" font-family="Arial"><tspan y="54" x="1734.9844 1742.9884 1746.3245 1752.9965 1756.9924 1760.3285 1763.6646 1771.6686 1778.3406">Start/End</tspan></text>
<path transform="matrix(.6742756,0,0,.6742756,-1126.4281,25.837138)" stroke-width="1" stroke-linecap="butt" stroke-miterlimit="10" stroke-linejoin="miter" fill="none" stroke="#000000" d="M2128.5 337.5V353.63"/>
<path transform="matrix(.6742756,0,0,.6742756,-1126.4281,25.837138)" d="M2128.5 358.88 2125 351.88 2128.5 353.63 2132 351.88 2128.5 358.88Z"/>
<path transform="matrix(.6742756,0,0,.6742756,-1126.4281,25.837138)" stroke-width="1" stroke-linecap="butt" stroke-miterlimit="10" stroke-linejoin="miter" fill="none" stroke="#000000" d="M2128.5 358.88 2125 351.88 2128.5 353.63 2132 351.88 2128.5 358.88Z"/>
<path transform="matrix(.6742756,0,0,.6742756,-1126.4281,25.837138)" d="M1998.5 337.5 2018.5 302.5H2258.5L2238.5 337.5H1998.5Z" fill="#fff2cc"/>
<path transform="matrix(.6742756,0,0,.6742756,-1126.4281,25.837138)" stroke-width="1" stroke-linecap="butt" stroke-miterlimit="10" stroke-linejoin="miter" fill="none" stroke="#d6b656" d="M1998.5 337.5 2018.5 302.5H2258.5L2238.5 337.5H1998.5Z"/>
<text xml:space="preserve" transform="matrix(.6742756 0 0 .6742756 -1126.7651 25.5)" font-size="12" font-family="Arial"><tspan y="324" x="2041.6094 2044.9454 2051.6175 2058.2896 2064.9617 2068.2977 2071.6336 2080.2977 2086.2977 2092.9698 2096.9659 2100.3018 2106.9739 2110.97 2117.642 2123.642 2129.642 2132.3062 2138.9783 2145.6505 2148.9864 2155.6585 2162.3306 2169.0028 2171.6668 2178.3389 2181.6749 2189.6788 2196.3509 2199.6868 2203.0228 2209.6949">Input User pressing Login Button</tspan></text>
</g>
</svg>
