<svg xmlns="http://www.w3.org/2000/svg" xmlns:xlink="http://www.w3.org/1999/xlink" xmlns:inkscape="http://www.inkscape.org/namespaces/inkscape" version="1.1" width="612" height="792" viewBox="0 0 612 792">
<defs>
<clipPath id="clip_1">
<path transform="matrix(.24,0,0,.24,0,0)" d="M0 0H2550V3300H0Z" clip-rule="evenodd"/>
</clipPath>
<clipPath id="clip_2">
<path transform="matrix(.24,0,0,.24,0,0)" d="M78.125 103.125H2471.875V3196.875H78.125Z" clip-rule="evenodd"/>
</clipPath>
</defs>
<g clip-path="url(#clip_1)">
<path transform="matrix(.75,0,0,.75,0,-2376)" d="M0 3168H816V4224H0Z" fill="#ffffff"/>
</g>
<g clip-path="url(#clip_2)">
<text xml:space="preserve" transform="matrix(.6742756 0 0 .6742756 -1699.8994 25.5)" font-size="18" font-family="Arial" font-weight="bold"><tspan y="31" x="2852.9844 2865.9805 2876.9786 2881.9825 2892.9805 2902.9886 2913.9866 2918.9906 2929.9886 2940.9866 2945.9906 2958.9866 2969.9847 2980.9827 2996.9847 3006.9927 3011.9967 3022.9947 3027.9986 3038.9967 3053.0006 3063.0086 3074.0067 3084.0147 3091.0167">Uploading Rooms Flowchart</tspan></text>
<path transform="matrix(.6742756,0,0,.6742756,-1699.5624,25.837138)" stroke-width="1" stroke-linecap="butt" stroke-miterlimit="10" stroke-linejoin="miter" fill="none" stroke="#000000" d="M2975 120 2975.34 133.63"/>
<path transform="matrix(.6742756,0,0,.6742756,-1699.5624,25.837138)" d="M2975.47 138.88 2971.8 131.97 2975.34 133.63 2978.8 131.8 2975.47 138.88Z"/>
<path transform="matrix(.6742756,0,0,.6742756,-1699.5624,25.837138)" stroke-width="1" stroke-linecap="butt" stroke-miterlimit="10" stroke-linejoin="miter" fill="none" stroke="#000000" d="M2975.47 138.88 2971.8 131.97 2975.34 133.63 2978.8 131.8 2975.47 138.88Z"/>
<path transform="matrix(.6742756,0,0,.6742756,-1699.5624,25.837138)" d="M2924 60H3026C3026.5909 60 3027.176 60.057645 3027.7557 60.17293 3028.335 60.288217 3028.8978 60.45893 3029.4439 60.685079 3029.9898 60.911226 3030.5086 61.188455 3031 61.516767 3031.4915 61.845087 3031.946 62.218175 3032.364 62.636037 3032.7818 63.053899 3033.1549 63.508508 3033.4832 63.999864 3033.8116 64.49122 3034.0887 65.00987 3034.3148 65.55584 3034.541 66.10181 3034.7117 66.66459 3034.8267 67.24418 3034.9422 67.82378 3034.9998 68.40905 3035 69V111C3034.9998 111.59094 3034.9422 112.17621 3034.827 112.7558 3034.7117 113.335399 3034.541 113.89817 3034.315 114.44414 3034.0887 114.990108 3033.8116 115.508769 3033.4835 116.00012 3033.1549 116.49148 3032.7818 116.94608 3032.364 117.36395 3031.946 117.78181 3031.4913 118.15489 3030.9998 118.48321 3030.5084 118.81152 3029.9898 119.08876 3029.4439 119.3149 3028.8978 119.541049 3028.335 119.71177 3027.7557 119.82706 3027.176 119.942348 3026.5909 119.99999 3026 120H2924C2923.409 119.99999 2922.8236 119.942348 2922.244 119.82706 2921.664 119.71177 2921.1014 119.541049 2920.5555 119.3149 2920.0093 119.08876 2919.4908 118.81152 2918.9993 118.48321 2918.508 118.15489 2918.0538 117.78181 2917.636 117.36395 2917.218 116.94608 2916.845 116.49148 2916.5167 116.00012 2916.1883 115.508769 2915.911 114.990108 2915.6849 114.44414 2915.4588 113.89817 2915.288 113.335399 2915.1727 112.7558 2915.0574 112.17621 2914.9998 111.59094 2915 111V69C2914.9998 68.40905 2915.0574 67.82378 2915.1727 67.24418 2915.2879 66.66459 2915.4586 66.10181 2915.6846 65.55584 2915.911 65.00987 2916.188 64.49121 2916.5164 63.99986 2916.8448 63.508508 2917.218 63.053899 2917.636 62.636037 2918.0538 62.218175 2918.508 61.845087 2918.9996 61.51677 2919.4908 61.188459 2920.0093 60.91123 2920.5555 60.68508 2921.1014 60.458936 2921.664 60.288217 2922.244 60.17293 2922.8236 60.057645 2923.409 60 2924 60Z" fill="#dae8fc"/>
<path transform="matrix(.6742756,0,0,.6742756,-1699.5624,25.837138)" stroke-width="1" stroke-linecap="butt" stroke-miterlimit="4" stroke-linejoin="miter" fill="none" stroke="#6c8ebf" d="M2924 60H3026C3026.5909 60 3027.176 60.057645 3027.7557 60.17293 3028.335 60.288217 3028.8978 60.45893 3029.4439 60.685079 3029.9898 60.911226 3030.5086 61.188455 3031 61.516767 3031.4915 61.845087 3031.946 62.218175 3032.364 62.636037 3032.7818 63.053899 3033.1549 63.508508 3033.4832 63.999864 3033.8116 64.49122 3034.0887 65.00987 3034.3148 65.55584 3034.541 66.10181 3034.7117 66.66459 3034.8267 67.24418 3034.9422 67.82378 3034.9998 68.40905 3035 69V111C3034.9998 111.59094 3034.9422 112.17621 3034.827 112.7558 3034.7117 113.335399 3034.541 113.89817 3034.315 114.44414 3034.0887 114.990108 3033.8116 115.508769 3033.4835 116.00012 3033.1549 116.49148 3032.7818 116.94608 3032.364 117.36395 3031.946 117.78181 3031.4913 118.15489 3030.9998 118.48321 3030.5084 118.81152 3029.9898 119.08876 3029.4439 119.3149 3028.8978 119.541049 3028.335 119.71177 3027.7557 119.82706 3027.176 119.942348 3026.5909 119.99999 3026 120H2924C2923.409 119.99999 2922.8236 119.942348 2922.244 119.82706 2921.664 119.71177 2921.1014 119.541049 2920.5555 119.3149 2920.0093 119.08876 2919.4908 118.81152 2918.9993 118.48321 2918.508 118.15489 2918.0538 117.78181 2917.636 117.36395 2917.218 116.94608 2916.845 116.49148 2916.5167 116.00012 2916.1883 115.508769 2915.911 114.990108 2915.6849 114.44414 2915.4588 113.89817 2915.288 113.335399 2915.1727 112.7558 2915.0574 112.17621 2914.9998 111.59094 2915 111V69C2914.9998 68.40905 2915.0574 67.82378 2915.1727 67.24418 2915.2879 66.66459 2915.4586 66.10181 2915.6846 65.55584 2915.911 65.00987 2916.188 64.49121 2916.5164 63.99986 2916.8448 63.508508 2917.218 63.053899 2917.636 62.636037 2918.0538 62.218175 2918.508 61.845087 2918.9996 61.51677 2919.4908 61.188459 2920.0093 60.91123 2920.5555 60.68508 2921.1014 60.458936 2921.664 60.288217 2922.244 60.17293 2922.8236 60.057645 2923.409 60 2924 60Z"/>
<text xml:space="preserve" transform="matrix(.6742756 0 0 .6742756 -1699.8994 25.5)" font-size="12" font-family="Arial"><tspan y="80" x="2922.9688 2931.6329 2934.2969 2936.961 2942.961 2948.961 2952.2969 2958.969 2965.641 2968.977 2972.313 2978.985 2985.6573 2988.9932 2997.6573 3004.3294 3006.9935 3013.6656 3020.3377">Click on the Upload</tspan></text>
<text xml:space="preserve" transform="matrix(.6742756 0 0 .6742756 -1699.8994 25.5)" font-size="12" font-family="Arial"><tspan y="94" x="2933.6407 2942.3048 2948.9769 2955.649 2965.645 2968.981 2975.653 2982.3253 2985.6612 2988.997 2995.6693 3002.3414 3005.6773 3012.3494">Room button or</tspan></text>
<text xml:space="preserve" transform="matrix(.6742756 0 0 .6742756 -1699.8994 25.5)" font-size="12" font-family="Arial"><tspan y="109" x="2919.6407 2923.6368 2930.3089 2936.981 2939.645 2943.641 2950.3133 2956.3133 2959.6492 2962.985 2966.321 2970.3172 2976.9893 2986.9854 2990.3214 2996.9935 3000.3294 3007.0015 3013.6737 3020.3458 3027.0179">redirect from a page.</tspan></text>
<path transform="matrix(.6742756,0,0,.6742756,-1699.5624,25.837138)" stroke-width="1" stroke-linecap="butt" stroke-miterlimit="10" stroke-linejoin="miter" fill="none" stroke="#000000" d="M2975.5 200V213.63"/>
<path transform="matrix(.6742756,0,0,.6742756,-1699.5624,25.837138)" d="M2975.5 218.88 2972 211.88 2975.5 213.63 2979 211.88 2975.5 218.88Z"/>
<path transform="matrix(.6742756,0,0,.6742756,-1699.5624,25.837138)" stroke-width="1" stroke-linecap="butt" stroke-miterlimit="10" stroke-linejoin="miter" fill="none" stroke="#000000" d="M2975.5 218.88 2972 211.88 2975.5 213.63 2979 211.88 2975.5 218.88Z"/>
<path transform="matrix(.6742756,0,0,.6742756,-1699.5624,25.837138)" d="M2903 200 2923 140H3048L3028 200H2903Z" fill="#fff2cc"/>
<path transform="matrix(.6742756,0,0,.6742756,-1699.5624,25.837138)" stroke-width="1" stroke-linecap="butt" stroke-miterlimit="10" stroke-linejoin="miter" fill="none" stroke="#d6b656" d="M2903 200 2923 140H3048L3028 200H2903Z"/>
<text xml:space="preserve" transform="matrix(.6742756 0 0 .6742756 -1699.8994 25.5)" font-size="12" font-family="Arial"><tspan y="174" x="2926.7969 2930.1329 2936.805 2943.477 2950.1492 2953.485 2956.821 2965.485 2972.1573 2978.8294 2988.8255 2992.1614 3000.8255 3007.4976 3017.4937">Input Room Name</tspan></text>
<path transform="matrix(.6742756,0,0,.6742756,-1699.5624,25.837138)" stroke-width="1" stroke-linecap="butt" stroke-miterlimit="10" stroke-linejoin="miter" fill="none" stroke="#000000" d="M2975.5 280H2972.5V293.63"/>
<path transform="matrix(.6742756,0,0,.6742756,-1699.5624,25.837138)" d="M2972.5 298.88 2969 291.88 2972.5 293.63 2976 291.88 2972.5 298.88Z"/>
<path transform="matrix(.6742756,0,0,.6742756,-1699.5624,25.837138)" stroke-width="1" stroke-linecap="butt" stroke-miterlimit="10" stroke-linejoin="miter" fill="none" stroke="#000000" d="M2972.5 298.88 2969 291.88 2972.5 293.63 2976 291.88 2972.5 298.88Z"/>
<path transform="matrix(.6742756,0,0,.6742756,-1699.5624,25.837138)" d="M2903 280 2923 220H3048L3028 280H2903Z" fill="#fff2cc"/>
<path transform="matrix(.6742756,0,0,.6742756,-1699.5624,25.837138)" stroke-width="1" stroke-linecap="butt" stroke-miterlimit="10" stroke-linejoin="miter" fill="none" stroke="#d6b656" d="M2903 280 2923 220H3048L3028 280H2903Z"/>
<text xml:space="preserve" transform="matrix(.6742756 0 0 .6742756 -1699.8994 25.5)" font-size="12" font-family="Arial"><tspan y="247" x="2944.4688 2947.8048 2954.4769 2961.149 2967.821 2971.157 2974.493 2983.157 2989.829 2996.5013">Input Room</tspan></text>
<text xml:space="preserve" transform="matrix(.6742756 0 0 .6742756 -1699.8994 25.5)" font-size="12" font-family="Arial"><tspan y="262" x="2931.4688 2938.1409 2944.813 2950.813 2957.485 2960.821 2963.485 2970.1573 2976.8294 2985.4935 2992.1656 3002.1617 3008.8338 3015.5059">LocationNumber</tspan></text>
<path transform="matrix(.6742756,0,0,.6742756,-1699.5624,25.837138)" d="M2900 360 2920 300H3045L3025 360H2900Z" fill="#fff2cc"/>
<path transform="matrix(.6742756,0,0,.6742756,-1699.5624,25.837138)" stroke-width="1" stroke-linecap="butt" stroke-miterlimit="10" stroke-linejoin="miter" fill="none" stroke="#d6b656" d="M2900 360 2920 300H3045L3025 360H2900Z"/>
<text xml:space="preserve" transform="matrix(.6742756 0 0 .6742756 -1699.8994 25.5)" font-size="12" font-family="Arial"><tspan y="334" x="2926.9063 2930.2423 2936.9144 2943.5865 2950.2586 2953.5946 2956.9305 2965.5946 2972.2667 2978.9388 2988.9349 2992.0567 2998.7247 3004.7247 3011.3968">Input Room Type</tspan></text>
<path transform="matrix(.6742756,0,0,.6742756,-1699.5624,25.837138)" stroke-width="1" stroke-linecap="butt" stroke-miterlimit="10" stroke-linejoin="miter" fill="none" stroke="#000000" d="M2968.5 440V460 450 463.63"/>
<path transform="matrix(.6742756,0,0,.6742756,-1699.5624,25.837138)" d="M2968.5 468.88 2965 461.88 2968.5 463.63 2972 461.88 2968.5 468.88Z"/>
<path transform="matrix(.6742756,0,0,.6742756,-1699.5624,25.837138)" stroke-width="1" stroke-linecap="butt" stroke-miterlimit="10" stroke-linejoin="miter" fill="none" stroke="#000000" d="M2968.5 468.88 2965 461.88 2968.5 463.63 2972 461.88 2968.5 468.88Z"/>
<path transform="matrix(.6742756,0,0,.6742756,-1699.5624,25.837138)" d="M2892 440 2912 380H3045L3025 440H2892Z" fill="#fff2cc"/>
<path transform="matrix(.6742756,0,0,.6742756,-1699.5624,25.837138)" stroke-width="1" stroke-linecap="butt" stroke-miterlimit="10" stroke-linejoin="miter" fill="none" stroke="#d6b656" d="M2892 440 2912 380H3045L3025 440H2892Z"/>
<text xml:space="preserve" transform="matrix(.6742756 0 0 .6742756 -1699.8994 25.5)" font-size="12" font-family="Arial"><tspan y="414" x="2903.7969 2907.1329 2913.805 2920.477 2927.1492 2930.485 2933.821 2936.485 2939.821 2943.157 2947.153 2953.8253 2960.4974 2970.4935 2973.8294 2976.4935 2982.4935 2985.8294 2992.5015 2998.5015 3005.1737 3007.8377 3010.5018 3017.1739 3023.846 3026.51">Input if room is available</tspan></text>
<path transform="matrix(.6742756,0,0,.6742756,-1699.5624,25.837138)" stroke-width="1" stroke-linecap="butt" stroke-miterlimit="10" stroke-linejoin="miter" fill="none" stroke="#000000" d="M2972.5 360H2975.8L2975.83 372.19"/>
<path transform="matrix(.6742756,0,0,.6742756,-1699.5624,25.837138)" d="M2975.84 377.44 2972.32 370.45 2975.83 372.19 2979.32 370.43 2975.84 377.44Z"/>
<path transform="matrix(.6742756,0,0,.6742756,-1699.5624,25.837138)" stroke-width="1" stroke-linecap="butt" stroke-miterlimit="10" stroke-linejoin="miter" fill="none" stroke="#000000" d="M2975.84 377.44 2972.32 370.45 2975.83 372.19 2979.32 370.43 2975.84 377.44Z"/>
<path transform="matrix(.6742756,0,0,.6742756,-1699.5624,25.837138)" stroke-width="1" stroke-linecap="butt" stroke-miterlimit="10" stroke-linejoin="miter" fill="none" stroke="#000000" d="M3093.5 525H3190V396.37"/>
<path transform="matrix(.6742756,0,0,.6742756,-1699.5624,25.837138)" d="M3190 391.12 3193.5 398.12 3190 396.37 3186.5 398.12 3190 391.12Z"/>
<path transform="matrix(.6742756,0,0,.6742756,-1699.5624,25.837138)" stroke-width="1" stroke-linecap="butt" stroke-miterlimit="10" stroke-linejoin="miter" fill="none" stroke="#000000" d="M3190 391.12 3193.5 398.12 3190 396.37 3186.5 398.12 3190 391.12Z"/>
<path transform="matrix(.6742756,0,0,.6742756,-1699.5624,25.837138)" stroke-width="1" stroke-linecap="butt" stroke-miterlimit="10" stroke-linejoin="miter" fill="none" stroke="#000000" d="M2968.5 580V593.63"/>
<path transform="matrix(.6742756,0,0,.6742756,-1699.5624,25.837138)" d="M2968.5 598.88 2965 591.88 2968.5 593.63 2972 591.88 2968.5 598.88Z"/>
<path transform="matrix(.6742756,0,0,.6742756,-1699.5624,25.837138)" stroke-width="1" stroke-linecap="butt" stroke-miterlimit="10" stroke-linejoin="miter" fill="none" stroke="#000000" d="M2968.5 598.88 2965 591.88 2968.5 593.63 2972 591.88 2968.5 598.88Z"/>
<path transform="matrix(.6742756,0,0,.6742756,-1699.5624,25.837138)" d="M2968.5 470 3093.5 525 2968.5 580 2843.5 525 2968.5 470Z" fill="#f8cecc"/>
<path transform="matrix(.6742756,0,0,.6742756,-1699.5624,25.837138)" stroke-width="1" stroke-linecap="butt" stroke-miterlimit="10" stroke-linejoin="miter" fill="none" stroke="#b85450" d="M2968.5 470 3093.5 525 2968.5 580 2843.5 525 2968.5 470Z"/>
<text xml:space="preserve" transform="matrix(.6742756 0 0 .6742756 -1699.8994 25.5)" font-size="12" font-family="Arial"><tspan y="522" x="2850.2657 2858.9298 2865.6019 2872.274 2878.274 2881.6099 2884.9459 2891.618 2898.29 2901.626 2908.298 2914.9703 2918.3062 2924.9783 2928.3143 2934.9864 2941.6585 2947.6585 2953.6585 2956.9945 2963.6666 2966.3306 2968.9947 2972.3306 2978.3306 2985.0028 2987.6668 2990.3309 2997.003 3003.675 3007.011 3009.675 3016.3472 3023.0194 3026.3553 3030.3514 3037.0235 3039.6876 3046.3597 3052.3597 3055.6956 3061.6956 3068.3677 3071.7037 3075.0396 3081.7117">Does the data pass all validation rules set by</tspan></text>
<text xml:space="preserve" transform="matrix(.6742756 0 0 .6742756 -1699.8994 25.5)" font-size="12" font-family="Arial"><tspan y="537" x="2933.3126 2936.6485 2943.3206 2949.9927 2953.3287 2960.0008 2963.9969 2970.669 2977.341 2981.3372 2988.0093 2998.0054">the program?</tspan></text>
<path transform="matrix(.6742756,0,0,.6742756,-1699.5624,25.837138)" stroke-width="1" stroke-linecap="butt" stroke-miterlimit="10" stroke-linejoin="miter" fill="none" stroke="#000000" d="M3190 330V130H2986.37"/>
<path transform="matrix(.6742756,0,0,.6742756,-1699.5624,25.837138)" d="M2981.12 130 2988.12 126.5 2986.37 130 2988.12 133.5 2981.12 130Z"/>
<path transform="matrix(.6742756,0,0,.6742756,-1699.5624,25.837138)" stroke-width="1" stroke-linecap="butt" stroke-miterlimit="10" stroke-linejoin="miter" fill="none" stroke="#000000" d="M2981.12 130 2988.12 126.5 2986.37 130 2988.12 133.5 2981.12 130Z"/>
<path transform="matrix(.6742756,0,0,.6742756,-1699.5624,25.837138)" d="M3120 390 3140 330H3260L3240 390H3120Z" fill="#fff2cc"/>
<path transform="matrix(.6742756,0,0,.6742756,-1699.5624,25.837138)" stroke-width="1" stroke-linecap="butt" stroke-miterlimit="10" stroke-linejoin="miter" fill="none" stroke="#d6b656" d="M3120 390 3140 330H3260L3240 390H3120Z"/>
<text xml:space="preserve" transform="matrix(.6742756 0 0 .6742756 -1699.8994 25.5)" font-size="12" font-family="Arial"><tspan y="350" x="3141.6407 3150.9766 3157.6488 3160.9847 3167.6568 3174.3289 3177.6649 3181.0008 3189.6649 3192.3289 3199.001 3205.673 3209.6693 3213.0052 3219.6773 3223.6734 3227.6695 3234.3416">Output Clear error</tspan></text>
<text xml:space="preserve" transform="matrix(.6742756 0 0 .6742756 -1699.8994 25.5)" font-size="12" font-family="Arial"><tspan y="364" x="3132.2969 3142.293 3148.965 3154.965 3160.965 3167.6373 3174.3094 3180.9815 3184.3175 3190.9896 3197.6617 3203.6617 3206.9976 3210.3336 3213.6695 3220.3416 3223.6776 3227.0135 3233.6856 3237.6817">message next to form</tspan></text>
<text xml:space="preserve" transform="matrix(.6742756 0 0 .6742756 -1699.8994 25.5)" font-size="12" font-family="Arial"><tspan y="379" x="3180.3126 3186.9847 3193.6568">box</tspan></text>
<text xml:space="preserve" transform="matrix(.6742756 0 0 .6742756 -1699.8994 25.5)" font-size="12" font-family="Arial"><tspan y="514" x="3109.3282 3116.6602 3123.3323 3125.9964 3131.9964">False</tspan></text>
<path transform="matrix(.6742756,0,0,.6742756,-1699.5624,25.837138)" stroke-width="1" stroke-linecap="butt" stroke-miterlimit="10" stroke-linejoin="miter" fill="none" stroke="#000000" d="M2968.5 660V673.63"/>
<path transform="matrix(.6742756,0,0,.6742756,-1699.5624,25.837138)" d="M2968.5 678.88 2965 671.88 2968.5 673.63 2972 671.88 2968.5 678.88Z"/>
<path transform="matrix(.6742756,0,0,.6742756,-1699.5624,25.837138)" stroke-width="1" stroke-linecap="butt" stroke-miterlimit="10" stroke-linejoin="miter" fill="none" stroke="#000000" d="M2968.5 678.88 2965 671.88 2968.5 673.63 2972 671.88 2968.5 678.88Z"/>
<path transform="matrix(.6742756,0,0,.6742756,-1699.5624,25.837138)" d="M2908.5 600H3028.5V660H2908.5Z" fill="#ffe6cc"/>
<path transform="matrix(.6742756,0,0,.6742756,-1699.5624,25.837138)" stroke-width="1" stroke-linecap="butt" stroke-miterlimit="4" stroke-linejoin="miter" fill="none" stroke="#d79b00" d="M2908.5 600H3028.5V660H2908.5Z"/>
<text xml:space="preserve" transform="matrix(.6742756 0 0 .6742756 -1699.8994 25.5)" font-size="12" font-family="Arial"><tspan y="634" x="2916.0782 2924.082 2933.418 2941.4219 2948.5333 2951.8692 2960.5333 2967.2054 2969.8695 2976.5416 2983.2137 2989.8858 2998.5499 3005.222 3011.894">POST UploadRoom</tspan></text>
<path transform="matrix(.6742756,0,0,.6742756,-1699.5624,25.837138)" stroke-width="1" stroke-linecap="butt" stroke-miterlimit="10" stroke-linejoin="miter" fill="none" stroke="#000000" d="M2800 660H2854.3V710H2902.13"/>
<path transform="matrix(.6742756,0,0,.6742756,-1699.5624,25.837138)" d="M2907.38 710 2900.38 713.5 2902.13 710 2900.38 706.5 2907.38 710Z"/>
<path transform="matrix(.6742756,0,0,.6742756,-1699.5624,25.837138)" stroke-width="1" stroke-linecap="butt" stroke-miterlimit="10" stroke-linejoin="miter" fill="none" stroke="#000000" d="M2907.38 710 2900.38 713.5 2902.13 710 2900.38 706.5 2907.38 710Z"/>
<path transform="matrix(.6742756,0,0,.6742756,-1699.5624,25.837138)" stroke-width="1" stroke-linecap="butt" stroke-miterlimit="10" stroke-linejoin="miter" fill="none" stroke="#000000" d="M2730 700V800H2879.13"/>
<path transform="matrix(.6742756,0,0,.6742756,-1699.5624,25.837138)" d="M2884.38 800 2877.38 803.5 2879.13 800 2877.38 796.5 2884.38 800Z"/>
<path transform="matrix(.6742756,0,0,.6742756,-1699.5624,25.837138)" stroke-width="1" stroke-linecap="butt" stroke-miterlimit="10" stroke-linejoin="miter" fill="none" stroke="#000000" d="M2884.38 800 2877.38 803.5 2879.13 800 2877.38 796.5 2884.38 800Z"/>
<path transform="matrix(.6742756,0,0,.6742756,-1699.5624,25.837138)" stroke-width="1" stroke-linecap="butt" stroke-miterlimit="10" stroke-linejoin="miter" fill="none" stroke="#000000" d="M2680.3 695.65V990H2878.63"/>
<path transform="matrix(.6742756,0,0,.6742756,-1699.5624,25.837138)" d="M2883.88 990 2876.88 993.5 2878.63 990 2876.88 986.5 2883.88 990Z"/>
<path transform="matrix(.6742756,0,0,.6742756,-1699.5624,25.837138)" stroke-width="1" stroke-linecap="butt" stroke-miterlimit="10" stroke-linejoin="miter" fill="none" stroke="#000000" d="M2883.88 990 2876.88 993.5 2878.63 990 2876.88 986.5 2883.88 990Z"/>
<path transform="matrix(.6742756,0,0,.6742756,-1699.5624,25.837138)" d="M2660 585C2660 576.72 2691.34 570 2730 570 2748.57 570 2766.37 571.58 2779.5 574.39 2792.63 577.21 2800 581.02 2800 585V685C2800 693.28 2768.66 700 2730 700 2691.34 700 2660 693.28 2660 685V585Z" fill="#e1d5e7"/>
<path transform="matrix(.6742756,0,0,.6742756,-1699.5624,25.837138)" stroke-width="1" stroke-linecap="butt" stroke-miterlimit="10" stroke-linejoin="miter" fill="none" stroke="#9673a6" d="M2660 585C2660 576.72 2691.34 570 2730 570 2748.57 570 2766.37 571.58 2779.5 574.39 2792.63 577.21 2800 581.02 2800 585V685C2800 693.28 2768.66 700 2730 700 2691.34 700 2660 693.28 2660 685V585Z"/>
<path transform="matrix(.6742756,0,0,.6742756,-1699.5624,25.837138)" stroke-width="1" stroke-linecap="butt" stroke-miterlimit="10" stroke-linejoin="miter" fill="none" stroke="#9673a6" d="M2800 585C2800 593.28 2768.66 600 2730 600 2691.34 600 2660 593.28 2660 585"/>
<text xml:space="preserve" transform="matrix(.6742756 0 0 .6742756 -1699.8994 25.5)" font-size="12" font-family="Arial"><tspan y="652" x="2672.2969 2680.3009 2686.973 2693.645 2696.309 2698.9732 2704.9732 2711.6453 2714.9813 2717.6453 2724.3175 2730.9896 2739.6536 2746.3258 2754.9898 2761.6619 2768.334 2771.67 2778.342 2784.342">ApplicationDbContext</tspan></text>
<path transform="matrix(.6742756,0,0,.6742756,-1699.5624,25.837138)" stroke-width="1" stroke-linecap="butt" stroke-miterlimit="10" stroke-linejoin="miter" fill="none" stroke="#000000" d="M2908.5 630H2854.3V610H2806.37"/>
<path transform="matrix(.6742756,0,0,.6742756,-1699.5624,25.837138)" d="M2801.12 610 2808.12 606.5 2806.37 610 2808.12 613.5 2801.12 610Z"/>
<path transform="matrix(.6742756,0,0,.6742756,-1699.5624,25.837138)" stroke-width="1" stroke-linecap="butt" stroke-miterlimit="10" stroke-linejoin="miter" fill="none" stroke="#000000" d="M2801.12 610 2808.12 606.5 2806.37 610 2808.12 613.5 2801.12 610Z"/>
<path transform="matrix(.6742756,0,0,.6742756,-1699.5624,25.837138)" stroke-width="1" stroke-linecap="butt" stroke-miterlimit="10" stroke-linejoin="miter" fill="none" stroke="#000000" d="M2968.5 740H2970.5V753.63"/>
<path transform="matrix(.6742756,0,0,.6742756,-1699.5624,25.837138)" d="M2970.5 758.88 2967 751.88 2970.5 753.63 2974 751.88 2970.5 758.88Z"/>
<path transform="matrix(.6742756,0,0,.6742756,-1699.5624,25.837138)" stroke-width="1" stroke-linecap="butt" stroke-miterlimit="10" stroke-linejoin="miter" fill="none" stroke="#000000" d="M2970.5 758.88 2967 751.88 2970.5 753.63 2974 751.88 2970.5 758.88Z"/>
<path transform="matrix(.6742756,0,0,.6742756,-1699.5624,25.837138)" d="M2908.5 680H3028.5V740H2908.5Z" fill="#ffe6cc"/>
<path transform="matrix(.6742756,0,0,.6742756,-1699.5624,25.837138)" stroke-width="1" stroke-linecap="butt" stroke-miterlimit="4" stroke-linejoin="miter" fill="none" stroke="#d79b00" d="M2908.5 680H3028.5V740H2908.5Z"/>
<text xml:space="preserve" transform="matrix(.6742756 0 0 .6742756 -1699.8994 25.5)" font-size="12" font-family="Arial"><tspan y="707" x="2923.2969 2931.961 2938.633 2948.6292 2955.3013 2961.9735 2965.9696 2972.6417 2975.9776 2984.6417 2991.3138 2994.6497 3001.3218 3004.6578 3007.9937">Compare Data to</tspan></text>
<text xml:space="preserve" transform="matrix(.6742756 0 0 .6742756 -1699.8994 25.5)" font-size="12" font-family="Arial"><tspan y="722" x="2926.9688 2933.6409 2939.6409 2942.305 2948.305 2951.6409 2954.305 2960.977 2967.6492 2970.985 2974.9813 2981.6534 2987.6534 2994.3255 2998.3216 3004.9937">existing records</tspan></text>
<path transform="matrix(.6742756,0,0,.6742756,-1699.5624,25.837138)" stroke-width="1" stroke-linecap="butt" stroke-miterlimit="10" stroke-linejoin="miter" fill="none" stroke="#000000" d="M2970.5 840H2972.5V863.63"/>
<path transform="matrix(.6742756,0,0,.6742756,-1699.5624,25.837138)" d="M2972.5 868.88 2969 861.88 2972.5 863.63 2976 861.88 2972.5 868.88Z"/>
<path transform="matrix(.6742756,0,0,.6742756,-1699.5624,25.837138)" stroke-width="1" stroke-linecap="butt" stroke-miterlimit="10" stroke-linejoin="miter" fill="none" stroke="#000000" d="M2972.5 868.88 2969 861.88 2972.5 863.63 2976 861.88 2972.5 868.88Z"/>
<path transform="matrix(.6742756,0,0,.6742756,-1699.5624,25.837138)" d="M2970.5 760 3055.5 800 2970.5 840 2885.5 800 2970.5 760Z" fill="#f8cecc"/>
<path transform="matrix(.6742756,0,0,.6742756,-1699.5624,25.837138)" stroke-width="1" stroke-linecap="butt" stroke-miterlimit="10" stroke-linejoin="miter" fill="none" stroke="#b85450" d="M2970.5 760 3055.5 800 2970.5 840 2885.5 800 2970.5 760Z"/>
<text xml:space="preserve" transform="matrix(.6742756 0 0 .6742756 -1699.8994 25.5)" font-size="12" font-family="Arial"><tspan y="804" x="2902.9688 2911.6329 2918.305 2924.977 2930.977 2934.313 2938.309 2944.9813 2951.6534 2961.6495 2964.9854 2971.6575 2974.3216 2978.3177 2984.9898 2991.6619 2998.334 3004.334 3007.67 3014.342 3020.342 3023.006 3029.006 3032.342">Does room already exist?</tspan></text>
<text xml:space="preserve" transform="matrix(.6742756 0 0 .6742756 -1699.8994 25.5)" font-size="12" font-family="Arial"><tspan y="779" x="3046.875 3053.7598 3057.7559 3064.428">True</tspan></text>
<text xml:space="preserve" transform="matrix(.6742756 0 0 .6742756 -1699.8994 25.5)" font-size="12" font-family="Arial"><tspan y="849" x="3000.3282 3007.6602 3014.3323 3016.9964 3022.9964">False</tspan></text>
<path transform="matrix(.6742756,0,0,.6742756,-1699.5624,25.837138)" stroke-width="1" stroke-linecap="butt" stroke-miterlimit="10" stroke-linejoin="miter" fill="none" stroke="#000000" d="M2975 1030V1052.4L2862.25 1052.36"/>
<path transform="matrix(.6742756,0,0,.6742756,-1699.5624,25.837138)" d="M2857 1052.35 2864 1048.86 2862.25 1052.36 2864 1055.86 2857 1052.35Z"/>
<path transform="matrix(.6742756,0,0,.6742756,-1699.5624,25.837138)" stroke-width="1" stroke-linecap="butt" stroke-miterlimit="10" stroke-linejoin="miter" fill="none" stroke="#000000" d="M2857 1052.35 2864 1048.86 2862.25 1052.36 2864 1055.86 2857 1052.35Z"/>
<path transform="matrix(.6742756,0,0,.6742756,-1699.5624,25.837138)" d="M2975 950 3065 990 2975 1030 2885 990 2975 950Z" fill="#f8cecc"/>
<path transform="matrix(.6742756,0,0,.6742756,-1699.5624,25.837138)" stroke-width="1" stroke-linecap="butt" stroke-miterlimit="10" stroke-linejoin="miter" fill="none" stroke="#b85450" d="M2975 950 3065 990 2975 1030 2885 990 2975 950Z"/>
<text xml:space="preserve" transform="matrix(.6742756 0 0 .6742756 -1699.8994 25.5)" font-size="12" font-family="Arial"><tspan y="994" x="2918.2969 2926.961 2933.633 2940.3052 2946.3052 2949.641 2952.977 2959.6492 2966.3214 2969.6573 2973.6534 2980.3255 2986.9976 2996.9937 3000.3297 3007.0018 3013.0018 3015.6658 3021.6658 3025.0018">Does the room exist?</tspan></text>
<path transform="matrix(.6742756,0,0,.6742756,-1699.5624,25.837138)" stroke-width="1" stroke-linecap="butt" stroke-miterlimit="10" stroke-linejoin="miter" fill="none" stroke="#000000" d="M2972.5 930H2975V943.63"/>
<path transform="matrix(.6742756,0,0,.6742756,-1699.5624,25.837138)" d="M2975 948.88 2971.5 941.88 2975 943.63 2978.5 941.88 2975 948.88Z"/>
<path transform="matrix(.6742756,0,0,.6742756,-1699.5624,25.837138)" stroke-width="1" stroke-linecap="butt" stroke-miterlimit="10" stroke-linejoin="miter" fill="none" stroke="#000000" d="M2975 948.88 2971.5 941.88 2975 943.63 2978.5 941.88 2975 948.88Z"/>
<path transform="matrix(.6742756,0,0,.6742756,-1699.5624,25.837138)" d="M2912.5 870H3032.5V930H2912.5Z" fill="#ffe6cc"/>
<path transform="matrix(.6742756,0,0,.6742756,-1699.5624,25.837138)" stroke-width="1" stroke-linecap="butt" stroke-miterlimit="4" stroke-linejoin="miter" fill="none" stroke="#d79b00" d="M2912.5 870H3032.5V930H2912.5Z"/>
<text xml:space="preserve" transform="matrix(.6742756 0 0 .6742756 -1699.8994 25.5)" font-size="12" font-family="Arial"><tspan y="890" x="2939.0938 2947.0977 2956.4337 2964.4376 2971.5489 2974.8848 2983.5489 2990.221 2996.893">POST Room</tspan></text>
<text xml:space="preserve" transform="matrix(.6742756 0 0 .6742756 -1699.8994 25.5)" font-size="12" font-family="Arial"><tspan y="904" x="2922.6407 2925.9766 2932.6488 2935.9847 2942.6568 2946.6529 2956.649 2963.321 2966.657 2969.321 2975.9932 2982.6654 2986.0013 2989.3372 2996.0093 2999.3453 3007.349 3016.685">Information to SQL</tspan></text>
<text xml:space="preserve" transform="matrix(.6742756 0 0 .6742756 -1699.8994 25.5)" font-size="12" font-family="Arial"><tspan y="919" x="2953.9844 2961.9884 2968.6605 2972.6566 2978.6566 2985.3287 2988.666">Server.</tspan></text>
<path transform="matrix(.6742756,0,0,.6742756,-1699.5624,25.837138)" stroke-width="1" stroke-linecap="butt" stroke-miterlimit="10" stroke-linejoin="miter" fill="none" stroke="#000000" d="M2885.5 800H2730V706.37"/>
<path transform="matrix(.6742756,0,0,.6742756,-1699.5624,25.837138)" d="M2730 701.12 2733.5 708.12 2730 706.37 2726.5 708.12 2730 701.12Z"/>
<path transform="matrix(.6742756,0,0,.6742756,-1699.5624,25.837138)" stroke-width="1" stroke-linecap="butt" stroke-miterlimit="10" stroke-linejoin="miter" fill="none" stroke="#000000" d="M2730 701.12 2733.5 708.12 2730 706.37 2726.5 708.12 2730 701.12Z"/>
<path transform="matrix(.6742756,0,0,.6742756,-1699.5624,25.837138)" stroke-width="1" stroke-linecap="butt" stroke-miterlimit="10" stroke-linejoin="miter" fill="none" stroke="#000000" d="M3065 990H3239.3L3239.28 398.95"/>
<path transform="matrix(.6742756,0,0,.6742756,-1699.5624,25.837138)" d="M3239.28 393.7 3242.78 400.7 3239.28 398.95 3235.78 400.7 3239.28 393.7Z"/>
<path transform="matrix(.6742756,0,0,.6742756,-1699.5624,25.837138)" stroke-width="1" stroke-linecap="butt" stroke-miterlimit="10" stroke-linejoin="miter" fill="none" stroke="#000000" d="M3239.28 393.7 3242.78 400.7 3239.28 398.95 3235.78 400.7 3239.28 393.7Z"/>
<path transform="matrix(.6742756,0,0,.6742756,-1699.5624,25.837138)" stroke-width="1" stroke-linecap="butt" stroke-miterlimit="10" stroke-linejoin="miter" fill="none" stroke="#000000" d="M3055.5 800H3216L3216.04 398.95"/>
<path transform="matrix(.6742756,0,0,.6742756,-1699.5624,25.837138)" d="M3216.04 393.7 3219.54 400.7 3216.04 398.95 3212.54 400.7 3216.04 393.7Z"/>
<path transform="matrix(.6742756,0,0,.6742756,-1699.5624,25.837138)" stroke-width="1" stroke-linecap="butt" stroke-miterlimit="10" stroke-linejoin="miter" fill="none" stroke="#000000" d="M3216.04 393.7 3219.54 400.7 3216.04 398.95 3212.54 400.7 3216.04 393.7Z"/>
<text xml:space="preserve" transform="matrix(.6742756 0 0 .6742756 -1699.8994 25.5)" font-size="12" font-family="Arial"><tspan y="979" x="3071.3282 3078.6602 3085.3323 3087.9964 3093.9964">False</tspan></text>
<text xml:space="preserve" transform="matrix(.6742756 0 0 .6742756 -1699.8994 25.5)" font-size="12" font-family="Arial"><tspan y="1039" x="3027.875 3034.7598 3038.7559 3045.428">True</tspan></text>
<path transform="matrix(.6742756,0,0,.6742756,-1699.5624,25.837138)" stroke-width="1" stroke-linecap="butt" stroke-miterlimit="10" stroke-linejoin="miter" fill="none" stroke="#000000" d="M2720 1040H2615V1001.37"/>
<path transform="matrix(.6742756,0,0,.6742756,-1699.5624,25.837138)" d="M2615 996.12 2618.5 1003.12 2615 1001.37 2611.5 1003.12 2615 996.12Z"/>
<path transform="matrix(.6742756,0,0,.6742756,-1699.5624,25.837138)" stroke-width="1" stroke-linecap="butt" stroke-miterlimit="10" stroke-linejoin="miter" fill="none" stroke="#000000" d="M2615 996.12 2618.5 1003.12 2615 1001.37 2611.5 1003.12 2615 996.12Z"/>
<path transform="matrix(.6742756,0,0,.6742756,-1699.5624,25.837138)" d="M2710 1070 2730 1010H2870L2850 1070H2710Z" fill="#fff2cc"/>
<path transform="matrix(.6742756,0,0,.6742756,-1699.5624,25.837138)" stroke-width="1" stroke-linecap="butt" stroke-miterlimit="10" stroke-linejoin="miter" fill="none" stroke="#d6b656" d="M2710 1070 2730 1010H2870L2850 1070H2710Z"/>
<text xml:space="preserve" transform="matrix(.6742756 0 0 .6742756 -1699.8994 25.5)" font-size="12" font-family="Arial"><tspan y="1037" x="2711.9532 2721.289 2727.9613 2731.297 2737.9693 2744.6414 2747.9774 2751.3133 2759.3172 2765.9893 2771.9893 2777.9893 2784.6614 2790.6614 2796.6614 2799.9974 2806.6695 2813.3416 2820.0137 2823.3497 2827.3458 2834.0179 2837.3538 2844.026 2848.022 2854.694 2858.03 2861.366">Output Success and return to</tspan></text>
<text xml:space="preserve" transform="matrix(.6742756 0 0 .6742756 -1699.8994 25.5)" font-size="12" font-family="Arial"><tspan y="1052" x="2775.3126 2778.6485 2785.3206 2791.9927 2798.6649">Index</tspan></text>
<path transform="matrix(.6742756,0,0,.6742756,-1699.5624,25.837138)" d="M2576 955H2654C2654.394 955 2654.7843 955.0384 2655.1702 955.1152 2655.5567 955.1921 2655.932 955.3059 2656.296 955.4566 2656.66 955.6074 2657.0057 955.79226 2657.333 956.0111 2657.661 956.23 2657.964 956.4787 2658.2427 956.7573 2658.5213 957.0359 2658.7698 957.3389 2658.9888 957.6665 2659.2078 957.9941 2659.3924 958.33987 2659.543 958.7038 2659.6937 959.06777 2659.8077 959.443 2659.8846 959.8294 2659.9615 960.2158 2659.9998 960.606 2660 961V989C2659.9998 989.3939 2659.9615 989.78408 2659.8846 990.1705 2659.8077 990.5569 2659.6937 990.93209 2659.543 991.296 2659.3924 991.66 2659.2078 992.0058 2658.9888 992.3334 2658.7698 992.66098 2658.5213 992.964 2658.2427 993.2426 2657.964 993.5212 2657.661 993.7699 2657.333 993.9887 2657.0057 994.2076 2656.66 994.3924 2656.296 994.5432 2655.932 994.694 2655.5567 994.8078 2655.1702 994.88467 2654.7843 994.96157 2654.394 995 2654 995H2576C2575.606 995 2575.2159 994.96157 2574.8294 994.88467 2574.4429 994.8078 2574.0677 994.694 2573.7037 994.5432 2573.3397 994.3924 2572.994 994.2076 2572.6666 993.9887 2572.3389 993.7699 2572.036 993.5212 2571.7574 993.2426 2571.4788 992.964 2571.23 992.66098 2571.0113 992.3334 2570.7923 992.0058 2570.6075 991.66 2570.4566 991.296 2570.3057 990.93209 2570.1917 990.5569 2570.1148 990.1705 2570.038 989.78408 2569.9998 989.3939 2570 989V961C2569.9998 960.606 2570.038 960.2158 2570.1148 959.8294 2570.1917 959.443 2570.3057 959.06777 2570.4566 958.7038 2570.6075 958.33987 2570.7923 957.9941 2571.0113 957.6665 2571.23 957.3389 2571.4788 957.0359 2571.7574 956.7573 2572.036 956.4787 2572.3389 956.23 2572.6666 956.0111 2572.994 955.79226 2573.3397 955.6074 2573.7037 955.4566 2574.0677 955.3059 2574.4429 955.19216 2574.8294 955.1153 2575.2159 955.03848 2575.606 955 2576 955Z" fill="#dae8fc"/>
<path transform="matrix(.6742756,0,0,.6742756,-1699.5624,25.837138)" stroke-width="1" stroke-linecap="butt" stroke-miterlimit="4" stroke-linejoin="miter" fill="none" stroke="#6c8ebf" d="M2576 955H2654C2654.394 955 2654.7843 955.0384 2655.1702 955.1152 2655.5567 955.1921 2655.932 955.3059 2656.296 955.4566 2656.66 955.6074 2657.0057 955.79226 2657.333 956.0111 2657.661 956.23 2657.964 956.4787 2658.2427 956.7573 2658.5213 957.0359 2658.7698 957.3389 2658.9888 957.6665 2659.2078 957.9941 2659.3924 958.33987 2659.543 958.7038 2659.6937 959.06777 2659.8077 959.443 2659.8846 959.8294 2659.9615 960.2158 2659.9998 960.606 2660 961V989C2659.9998 989.3939 2659.9615 989.78408 2659.8846 990.1705 2659.8077 990.5569 2659.6937 990.93209 2659.543 991.296 2659.3924 991.66 2659.2078 992.0058 2658.9888 992.3334 2658.7698 992.66098 2658.5213 992.964 2658.2427 993.2426 2657.964 993.5212 2657.661 993.7699 2657.333 993.9887 2657.0057 994.2076 2656.66 994.3924 2656.296 994.5432 2655.932 994.694 2655.5567 994.8078 2655.1702 994.88467 2654.7843 994.96157 2654.394 995 2654 995H2576C2575.606 995 2575.2159 994.96157 2574.8294 994.88467 2574.4429 994.8078 2574.0677 994.694 2573.7037 994.5432 2573.3397 994.3924 2572.994 994.2076 2572.6666 993.9887 2572.3389 993.7699 2572.036 993.5212 2571.7574 993.2426 2571.4788 992.964 2571.23 992.66098 2571.0113 992.3334 2570.7923 992.0058 2570.6075 991.66 2570.4566 991.296 2570.3057 990.93209 2570.1917 990.5569 2570.1148 990.1705 2570.038 989.78408 2569.9998 989.3939 2570 989V961C2569.9998 960.606 2570.038 960.2158 2570.1148 959.8294 2570.1917 959.443 2570.3057 959.06777 2570.4566 958.7038 2570.6075 958.33987 2570.7923 957.9941 2571.0113 957.6665 2571.23 957.3389 2571.4788 957.0359 2571.7574 956.7573 2572.036 956.4787 2572.3389 956.23 2572.6666 956.0111 2572.994 955.79226 2573.3397 955.6074 2573.7037 955.4566 2574.0677 955.3059 2574.4429 955.19216 2574.8294 955.1153 2575.2159 955.03848 2575.606 955 2576 955Z"/>
<text xml:space="preserve" transform="matrix(.6742756 0 0 .6742756 -1699.8994 25.5)" font-size="12" font-family="Arial"><tspan y="979" x="2604.3126 2612.3165 2618.9886">End</tspan></text>
<path transform="matrix(.6742756,0,0,.6742756,-1699.5624,25.837138)" stroke-width="1" stroke-linecap="butt" stroke-miterlimit="10" stroke-linejoin="miter" fill="none" stroke="#000000" d="M2912.5 900H2709.6L2709.56 705.33"/>
<path transform="matrix(.6742756,0,0,.6742756,-1699.5624,25.837138)" d="M2709.56 700.08 2713.06 707.08 2709.56 705.33 2706.06 707.08 2709.56 700.08Z"/>
<path transform="matrix(.6742756,0,0,.6742756,-1699.5624,25.837138)" stroke-width="1" stroke-linecap="butt" stroke-miterlimit="10" stroke-linejoin="miter" fill="none" stroke="#000000" d="M2709.56 700.08 2713.06 707.08 2709.56 705.33 2706.06 707.08 2709.56 700.08Z"/>
<path transform="matrix(.6742756,0,0,.6742756,-1699.5624,25.837138)" stroke-width="1" stroke-linecap="butt" stroke-miterlimit="10" stroke-linejoin="miter" fill="none" stroke="#000000" d="M2885 990H2680.3V702.02"/>
<path transform="matrix(.6742756,0,0,.6742756,-1699.5624,25.837138)" d="M2680.3 696.77 2683.8 703.77 2680.3 702.02 2676.8 703.77 2680.3 696.77Z"/>
<path transform="matrix(.6742756,0,0,.6742756,-1699.5624,25.837138)" stroke-width="1" stroke-linecap="butt" stroke-miterlimit="10" stroke-linejoin="miter" fill="none" stroke="#000000" d="M2680.3 696.77 2683.8 703.77 2680.3 702.02 2676.8 703.77 2680.3 696.77Z"/>
<text xml:space="preserve" transform="matrix(.6742756 0 0 .6742756 -1699.8994 25.5)" font-size="12" font-family="Arial"><tspan y="19" x="2569.6563 2577.6602 2584.3323">Key</tspan></text>
<path transform="matrix(.6742756,0,0,.6742756,-1699.5624,25.837138)" d="M2560 80H2660V120H2560Z" fill="#ffe6cc"/>
<path transform="matrix(.6742756,0,0,.6742756,-1699.5624,25.837138)" stroke-width="1" stroke-linecap="butt" stroke-miterlimit="4" stroke-linejoin="miter" fill="none" stroke="#d79b00" d="M2560 80H2660V120H2560Z"/>
<text xml:space="preserve" transform="matrix(.6742756 0 0 .6742756 -1699.8994 25.5)" font-size="12" font-family="Arial"><tspan y="104" x="2588.3126 2596.3165 2600.3126 2606.9847 2612.9847 2619.6568 2625.6568">Process</tspan></text>
<path transform="matrix(.6742756,0,0,.6742756,-1699.5624,25.837138)" d="M2555 170 2575 130H2665L2645 170H2555Z" fill="#fff2cc"/>
<path transform="matrix(.6742756,0,0,.6742756,-1699.5624,25.837138)" stroke-width="1" stroke-linecap="butt" stroke-miterlimit="10" stroke-linejoin="miter" fill="none" stroke="#d6b656" d="M2555 170 2575 130H2665L2645 170H2555Z"/>
<text xml:space="preserve" transform="matrix(.6742756 0 0 .6742756 -1699.8994 25.5)" font-size="12" font-family="Arial"><tspan y="154" x="2576.9688 2580.3048 2586.9769 2593.649 2600.321 2603.657 2606.993 2616.3289 2623.001 2626.337 2633.009 2639.6812">Input/Output</tspan></text>
<path transform="matrix(.6742756,0,0,.6742756,-1699.5624,25.837138)" d="M2610 180 2650 215 2610 250 2570 215 2610 180Z" fill="#f8cecc"/>
<path transform="matrix(.6742756,0,0,.6742756,-1699.5624,25.837138)" stroke-width="1" stroke-linecap="butt" stroke-miterlimit="10" stroke-linejoin="miter" fill="none" stroke="#b85450" d="M2610 180 2650 215 2610 250 2570 215 2610 180Z"/>
<text xml:space="preserve" transform="matrix(.6742756 0 0 .6742756 -1699.8994 25.5)" font-size="12" font-family="Arial"><tspan y="219" x="2586.9844 2595.6485 2602.3206 2608.3206 2610.9847 2616.9847 2619.6488 2626.3209">Decision</tspan></text>
<path transform="matrix(.6742756,0,0,.6742756,-1699.5624,25.837138)" d="M2580 270C2580 261.72 2593.43 255 2610 255 2617.96 255 2625.59 256.58 2631.21 259.39 2636.84 262.21 2640 266.02 2640 270V305C2640 313.28 2626.57 320 2610 320 2593.43 320 2580 313.28 2580 305V270Z" fill="#e1d5e7"/>
<path transform="matrix(.6742756,0,0,.6742756,-1699.5624,25.837138)" stroke-width="1" stroke-linecap="butt" stroke-miterlimit="10" stroke-linejoin="miter" fill="none" stroke="#9673a6" d="M2580 270C2580 261.72 2593.43 255 2610 255 2617.96 255 2625.59 256.58 2631.21 259.39 2636.84 262.21 2640 266.02 2640 270V305C2640 313.28 2626.57 320 2610 320 2593.43 320 2580 313.28 2580 305V270Z"/>
<path transform="matrix(.6742756,0,0,.6742756,-1699.5624,25.837138)" stroke-width="1" stroke-linecap="butt" stroke-miterlimit="10" stroke-linejoin="miter" fill="none" stroke="#9673a6" d="M2640 270C2640 278.28 2626.57 285 2610 285 2593.43 285 2580 278.28 2580 270"/>
<text xml:space="preserve" transform="matrix(.6742756 0 0 .6742756 -1699.8994 25.5)" font-size="12" font-family="Arial"><tspan y="304" x="2584.3126 2592.9766 2599.6488 2602.9847 2609.6568 2616.3289 2623.001 2629.001">Database</tspan></text>
<path transform="matrix(.6742756,0,0,.6742756,-1699.5624,25.837138)" stroke-width="1" stroke-linecap="butt" stroke-miterlimit="10" stroke-linejoin="miter" fill="none" stroke="#000000" d="M2595 340 2621.18 374.91"/>
<path transform="matrix(.6742756,0,0,.6742756,-1699.5624,25.837138)" d="M2624.33 379.11 2617.33 375.61 2621.18 374.91 2622.93 371.41 2624.33 379.11Z"/>
<path transform="matrix(.6742756,0,0,.6742756,-1699.5624,25.837138)" stroke-width="1" stroke-linecap="butt" stroke-miterlimit="10" stroke-linejoin="miter" fill="none" stroke="#000000" d="M2624.33 379.11 2617.33 375.61 2621.18 374.91 2622.93 371.41 2624.33 379.11Z"/>
<text xml:space="preserve" transform="matrix(.6742756 0 0 .6742756 -1699.8994 25.5)" font-size="12" font-family="Arial"><tspan y="349" x="2616.3126 2624.9766 2627.6407 2631.6368 2638.3089 2644.3089 2647.6448 2650.3089 2656.981">Direction</tspan></text>
<path transform="matrix(.6742756,0,0,.6742756,-1699.5624,25.837138)" d="M2566 30H2654C2654.394 30 2654.7843 30.03843 2655.1702 30.115288 2655.5567 30.192147 2655.932 30.305956 2656.296 30.456719 2656.66 30.607483 2657.0057 30.792304 2657.333 31.011179 2657.661 31.230053 2657.964 31.478779 2658.2427 31.757357 2658.5213 32.035936 2658.7698 32.339006 2658.9888 32.666578 2659.2078 32.994146 2659.3924 33.339918 2659.543 33.703897 2659.6937 34.067876 2659.8077 34.443059 2659.8846 34.829454 2659.9615 35.21585 2659.9998 35.606035 2660 36V64C2659.9998 64.39396 2659.9615 64.78414 2659.8846 65.17053 2659.8077 65.55693 2659.6937 65.93212 2659.543 66.2961 2659.3924 66.66007 2659.2078 67.00585 2658.9888 67.33342 2658.7698 67.66099 2658.5213 67.964069 2658.2427 68.24264 2657.964 68.52121 2657.661 68.769939 2657.333 68.98881 2657.0057 69.20769 2656.66 69.3925 2656.296 69.54327 2655.932 69.69403 2655.5567 69.80784 2655.1702 69.884708 2654.7843 69.96157 2654.394 70 2654 70H2566C2565.606 70 2565.2159 69.96157 2564.8294 69.884708 2564.443 69.80784 2564.0679 69.69403 2563.7039 69.54327 2563.3399 69.3925 2562.9942 69.20769 2562.6663 68.98881 2562.3389 68.769939 2562.036 68.52121 2561.7574 68.24264 2561.4788 67.964069 2561.23 67.66099 2561.011 67.33342 2560.792 67.00585 2560.607 66.66007 2560.4564 66.2961 2560.3057 65.93212 2560.192 65.55693 2560.115 65.17053 2560.038 64.78414 2559.9998 64.39396 2560 64V36C2559.9998 35.606035 2560.038 35.21585 2560.115 34.829454 2560.192 34.443059 2560.3057 34.067876 2560.4564 33.703897 2560.607 33.339918 2560.7918 32.994146 2561.0108 32.666578 2561.2298 32.339006 2561.4788 32.035936 2561.7574 31.757357 2562.036 31.478779 2562.339 31.230053 2562.6666 31.011179 2562.9942 30.792304 2563.3399 30.607483 2563.7039 30.45672 2564.0679 30.305958 2564.443 30.192147 2564.8294 30.115288 2565.2159 30.03843 2565.606 30 2566 30Z" fill="#dae8fc"/>
<path transform="matrix(.6742756,0,0,.6742756,-1699.5624,25.837138)" stroke-width="1" stroke-linecap="butt" stroke-miterlimit="4" stroke-linejoin="miter" fill="none" stroke="#6c8ebf" d="M2566 30H2654C2654.394 30 2654.7843 30.03843 2655.1702 30.115288 2655.5567 30.192147 2655.932 30.305956 2656.296 30.456719 2656.66 30.607483 2657.0057 30.792304 2657.333 31.011179 2657.661 31.230053 2657.964 31.478779 2658.2427 31.757357 2658.5213 32.035936 2658.7698 32.339006 2658.9888 32.666578 2659.2078 32.994146 2659.3924 33.339918 2659.543 33.703897 2659.6937 34.067876 2659.8077 34.443059 2659.8846 34.829454 2659.9615 35.21585 2659.9998 35.606035 2660 36V64C2659.9998 64.39396 2659.9615 64.78414 2659.8846 65.17053 2659.8077 65.55693 2659.6937 65.93212 2659.543 66.2961 2659.3924 66.66007 2659.2078 67.00585 2658.9888 67.33342 2658.7698 67.66099 2658.5213 67.964069 2658.2427 68.24264 2657.964 68.52121 2657.661 68.769939 2657.333 68.98881 2657.0057 69.20769 2656.66 69.3925 2656.296 69.54327 2655.932 69.69403 2655.5567 69.80784 2655.1702 69.884708 2654.7843 69.96157 2654.394 70 2654 70H2566C2565.606 70 2565.2159 69.96157 2564.8294 69.884708 2564.443 69.80784 2564.0679 69.69403 2563.7039 69.54327 2563.3399 69.3925 2562.9942 69.20769 2562.6663 68.98881 2562.3389 68.769939 2562.036 68.52121 2561.7574 68.24264 2561.4788 67.964069 2561.23 67.66099 2561.011 67.33342 2560.792 67.00585 2560.607 66.66007 2560.4564 66.2961 2560.3057 65.93212 2560.192 65.55693 2560.115 65.17053 2560.038 64.78414 2559.9998 64.39396 2560 64V36C2559.9998 35.606035 2560.038 35.21585 2560.115 34.829454 2560.192 34.443059 2560.3057 34.067876 2560.4564 33.703897 2560.607 33.339918 2560.7918 32.994146 2561.0108 32.666578 2561.2298 32.339006 2561.4788 32.035936 2561.7574 31.757357 2562.036 31.478779 2562.339 31.230053 2562.6666 31.011179 2562.9942 30.792304 2563.3399 30.607483 2563.7039 30.45672 2564.0679 30.305958 2564.443 30.192147 2564.8294 30.115288 2565.2159 30.03843 2565.606 30 2566 30Z"/>
<text xml:space="preserve" transform="matrix(.6742756 0 0 .6742756 -1699.8994 25.5)" font-size="12" font-family="Arial"><tspan y="54" x="2584.9844 2592.9884 2596.3243 2602.9964 2606.9925 2610.3284 2613.6644 2621.6683 2628.3404">Start/End</tspan></text>
</g>
</svg>
